<svg width="120" height="120" viewBox="0 0 120 120" fill="none" xmlns="http://www.w3.org/2000/svg">
<rect width="120" height="120" rx="60" fill="white"/>
<rect x="0.5" y="0.5" width="119" height="119" rx="59.5" stroke="#1B497E" stroke-opacity="0.1"/>
<g clip-path="url(#clip0_16275_5158)">
<mask id="mask0_16275_5158" style="mask-type:luminance" maskUnits="userSpaceOnUse" x="16" y="41" width="88" height="37">
<path d="M104 41H16V77.989H104V41Z" fill="white"/>
</mask>
<g mask="url(#mask0_16275_5158)">
<path d="M38.0484 60.2113C38.0484 68.5046 34.3235 71.6697 26.8627 71.6697C19.402 71.6697 16 67.4128 16 60.862V56.7154H24.2036V60.101C24.2036 62.3949 24.2036 64.5785 26.6582 64.5785C29.1128 64.5785 28.8975 61.634 28.8975 60.3216V41H38.0592V60.2113H38.0484Z" fill="#231F20"/>
<path d="M60.4199 61.9538C60.4199 53.4399 57.0071 48.6426 49.3418 48.6426C43.1622 48.6426 39.1143 53.7707 39.1143 60.101C39.1143 67.4128 43.7974 71.5594 49.977 71.5594C54.4556 71.5594 58.5035 69.3758 59.9892 64.6888H53.0668C52.4316 65.6703 51.1505 66.2107 49.977 66.2107C47.63 66.2107 46.3597 64.4682 46.1444 61.9538H60.4199ZM46.252 57.5865C46.575 55.2927 47.8454 53.9803 49.977 53.9803C51.8933 53.9803 53.2821 55.6235 53.2821 57.5865H46.252Z" fill="#231F20"/>
<path d="M82.2639 61.9538C82.2639 53.4399 78.8511 48.6426 71.1858 48.6426C65.0062 48.6426 60.9583 53.7707 60.9583 60.101C60.9583 67.4128 65.6414 71.5594 71.821 71.5594C76.1919 71.5594 80.3475 69.3758 81.8332 64.6888H74.9108C74.2756 65.6703 72.9945 66.2107 71.821 66.2107C69.474 66.2107 68.2037 64.4682 67.9884 61.9538H82.2639ZM68.096 57.5865C68.419 55.2927 69.6894 53.9803 71.821 53.9803C73.7373 53.9803 75.1261 55.6235 75.1261 57.5865H68.096Z" fill="#231F20"/>
<path d="M83.0066 78H90.3597V68.6149H90.4673C91.5331 70.4676 93.5571 71.5594 95.7964 71.5594C102.299 71.5594 104 65.3395 104 60.2113C104 54.7523 101.438 48.6426 95.9041 48.6426C92.276 48.6426 91.1133 50.1645 90.1551 51.5871V49.183H83.0174V77.9889L83.0066 78ZM90.1443 60.101C90.1443 57.4763 90.6826 54.7523 93.3418 54.7523C96.001 54.7523 96.6469 57.4763 96.6469 60.101C96.6469 62.7257 96.0117 65.4497 93.3418 65.4497C90.6719 65.4497 90.1443 62.6155 90.1443 60.101Z" fill="#231F20"/>
<path d="M101.761 73.3018H102.299C102.514 73.3018 102.73 73.4121 102.73 73.6327C102.73 73.9635 102.407 74.0738 102.202 74.0738H101.771V73.3129L101.761 73.3018ZM101.438 75.2649H101.761V74.2834H102.191L102.719 75.2649H103.149L102.514 74.2834C102.837 74.2834 103.053 74.0628 103.053 73.6327C103.053 73.3018 102.837 73.0923 102.31 73.0923H101.459V75.2759L101.438 75.2649ZM100.264 74.1731C100.264 75.1546 101.115 76.0258 102.18 76.0258C103.139 76.0258 103.989 75.1546 103.989 74.1731C103.989 73.0813 103.139 72.3203 102.18 72.3203C101.115 72.3203 100.264 73.0813 100.264 74.1731ZM100.695 74.1731C100.695 73.1915 101.33 72.5409 102.191 72.5409C103.053 72.5409 103.688 73.1915 103.688 74.1731C103.688 75.0443 103.053 75.695 102.191 75.695C101.33 75.695 100.695 75.0443 100.695 74.1731Z" fill="#231F20"/>
</g>
</g>
<defs>
<clipPath id="clip0_16275_5158">
<rect width="88" height="37" fill="white" transform="translate(16 41)"/>
</clipPath>
</defs>
</svg>
