<svg width="120" height="120" viewBox="0 0 120 120" fill="none" xmlns="http://www.w3.org/2000/svg">
<rect width="120" height="120" rx="60" fill="white"/>
<rect x="0.5" y="0.5" width="119" height="119" rx="59.5" stroke="#1B497E" stroke-opacity="0.1"/>
<g clip-path="url(#clip0_16275_5145)">
<path d="M53.9172 43.0374C53.9674 43.3587 54.005 43.6183 54.0552 43.9272C54.5068 43.4452 54.4942 43.3464 53.9172 43.0374ZM58.9849 36.5985C59.2734 36.1535 59.1229 35.8322 58.5083 35.6468C58.6588 35.9929 58.6337 36.376 58.9849 36.5985ZM54.9332 45.9294V43.989C54.3061 44.4587 54.281 45.0395 54.9332 45.9294ZM54.582 41.7026C54.2182 41.7397 53.9046 41.7644 53.4656 41.8015C53.8796 42.2588 54.2308 42.6419 54.582 43.025L54.6698 42.9632C54.6447 42.5554 54.6196 42.1476 54.582 41.7026ZM61.3683 58.8073C61.3683 58.8073 61.293 58.9185 61.2554 58.9803C60.5655 60.1915 60.4902 61.4521 60.9794 62.7497C61.0547 62.9351 61.2428 63.0834 61.3808 63.2441C61.431 63.2441 61.4812 63.2441 61.5439 63.2317C61.6693 62.7992 61.8198 62.3666 61.8951 61.9341C61.9327 61.7363 61.8575 61.5139 61.8199 61.3038C61.7948 61.1184 61.6568 60.9083 61.707 60.7723C61.9704 60.0802 61.6442 59.487 61.3432 58.8196M59.7376 68.9786C59.9132 68.9909 60.0512 69.0157 60.2017 69.0033C61.2052 69.0033 62.2087 69.0033 63.2122 68.9662C63.9272 68.9415 64.1906 68.5707 64.1656 67.8416C64.1405 67.1495 63.852 66.8652 63.1495 66.8405C62.2087 66.8158 61.2554 66.8034 60.3146 66.7911C60.1264 66.7911 59.9383 66.8158 59.7376 66.8282V68.9662V68.9786ZM55.9995 72.3526V71.7346H57.5173V66.8899C57.5173 66.8899 57.4671 66.8776 57.442 66.8652C57.4044 66.9394 57.3542 67.0135 57.3291 67.0877C57.2288 67.3719 57.0281 67.4337 56.8023 67.2731C55.6232 66.408 54.6071 65.4069 54.2308 63.9362C54.1555 63.6643 54.143 63.38 54.1555 63.0958C54.1806 61.3038 54.2057 59.5117 54.2559 57.7197C54.281 56.8917 54.5193 56.113 54.9583 55.4086C55.3096 54.8401 55.6859 54.2716 56.0246 53.6907C56.0747 53.6042 56.0747 53.4065 56.012 53.3447C55.1841 52.529 54.9207 51.4785 54.8329 50.3785C54.7576 49.5381 54.7827 48.6854 54.7451 47.8326C54.7075 46.9552 54.2935 46.1889 53.9925 45.3979C53.9423 45.3979 53.8921 45.3732 53.8419 45.3609C52.3994 47.7461 50.9568 50.1314 49.5143 52.4919C49.7526 52.702 49.9784 52.8503 50.1038 53.0481C50.1917 53.184 50.1666 53.3941 50.1917 53.5671C50.0286 53.5671 49.8279 53.6536 49.6899 53.5918C48.9122 53.2334 48.2097 52.7638 47.708 52.0717C47.6076 51.9358 47.6202 51.7133 47.5825 51.5279C47.7832 51.5279 47.9965 51.4908 48.1595 51.565C48.4481 51.6886 48.7115 51.874 49 52.047C49.4767 51.2684 49.9408 50.5145 50.4049 49.7606C51.3708 48.2034 52.3492 46.6462 53.3276 45.1013C53.8545 44.2609 53.729 43.4082 53.4154 42.5554C53.2775 42.1723 52.9764 41.9869 52.5625 41.9745C52.3492 41.9745 52.136 41.9375 51.9227 41.9127C51.0196 41.8139 50.7561 41.2083 50.8063 40.4791C50.8314 40.2196 50.9945 40.0589 51.2579 39.9848C51.4837 39.923 51.6718 39.8365 51.6217 39.5522C51.6217 39.5522 51.6217 39.5275 51.6217 39.5151C51.9854 38.9466 52.1861 38.341 52.2363 37.6737C52.2363 37.5624 52.4746 37.3771 52.6126 37.3771C52.9764 37.34 53.1771 37.167 53.3402 36.8703C53.5158 36.549 53.7667 36.2771 53.9925 35.9805C54.0928 35.8446 54.1806 35.7086 54.2559 35.5603C54.4691 35.1525 54.3688 34.9176 53.9172 34.8682C53.5911 34.8311 53.4154 34.7075 53.3903 34.3986C53.3653 34.1761 53.2273 34.1143 53.014 34.1267C52.851 34.1267 52.6879 34.1267 52.4746 34.1267C52.4496 33.3604 52.3367 32.6313 52.5625 31.9268C52.7757 31.2594 53.4029 30.9134 54.1555 31.0123C54.8831 31.1111 55.435 31.692 55.4726 32.4212C55.4726 32.5324 55.4726 32.6313 55.4726 32.7425C55.435 33.6694 55.9368 33.8548 56.6518 33.5087C57.2539 33.2245 57.5047 33.3604 57.9062 33.7436C58.3326 34.139 58.8971 34.3986 59.3738 34.757C59.8254 35.1154 60.2769 35.4985 60.6658 35.9187C61.0672 36.3513 61.0045 36.6355 60.4777 36.8827C59.3863 37.3894 59.4365 37.6984 60.001 38.6253C60.3773 39.2309 60.7536 39.8241 61.2052 40.3803C62.1084 41.4802 62.6979 42.7037 62.8108 44.125C62.8359 44.5205 62.999 44.6564 63.4129 44.6688C64.3161 44.7058 65.0938 45.0148 65.5203 45.8923C65.5705 46.0035 65.6708 46.1024 65.7712 46.1889C66.0722 46.4855 66.2479 46.4855 66.5865 46.2383C66.6994 46.1518 66.8123 46.053 66.9127 45.9664C67.151 45.7563 67.4521 45.6822 67.7155 45.8181C68.1671 46.0653 68.6186 46.3372 69.0075 46.6709C69.3337 46.9552 69.2458 47.4989 68.8946 47.7585C68.8319 47.8079 68.7065 47.8203 68.6312 47.7956C68.4179 47.6843 68.1922 47.5607 68.004 47.4001C67.6277 47.0911 67.3893 47.0169 66.875 47.1776C67.0005 47.363 67.1134 47.536 67.2514 47.6967C67.5775 48.0551 67.9287 48.4011 68.2423 48.7719C69.2208 49.9336 69.296 51.2807 68.8821 52.6526C68.6061 53.5795 68.581 54.4817 68.7566 55.4086C68.9072 56.2366 68.581 56.8917 67.9915 57.4354C67.7782 57.6332 67.6779 57.8309 67.6904 58.1152C67.7029 58.4241 67.6904 58.7331 67.7029 59.0297C67.728 59.5488 67.6277 60.0061 67.2012 60.3645C67.0632 60.4757 66.9754 60.6735 66.9378 60.8588C66.7496 61.724 66.5614 62.5767 66.4486 63.4542C66.3733 63.9485 66.3231 64.4305 66.0597 64.8755C65.997 64.9867 66.0221 65.1721 66.0722 65.2957C66.2102 65.6293 66.1475 65.9136 65.7963 66.0248C65.4576 66.1361 65.0813 66.1608 64.6171 66.2473C64.7551 65.9012 64.8178 65.6293 64.9558 65.4316C65.2443 65.0485 65.3447 64.6406 65.1816 64.2081C64.8304 63.2935 65.0311 62.3913 65.282 61.5139C65.6081 60.3892 65.997 59.2893 66.2729 58.1646C66.4862 57.2871 66.574 56.3726 66.3984 55.4704C66.2729 54.803 66.135 54.7536 65.5705 55.1367C65.3572 55.2726 65.1691 55.4457 64.9558 55.5569C64.8053 55.6311 64.6046 55.6681 64.4666 55.6311C64.3913 55.6063 64.3913 55.3468 64.3788 55.1985C64.3788 55.112 64.3914 55.0131 64.3412 54.8772C64.2157 55.0131 64.0778 55.1491 63.9649 55.2974C63.5133 55.9029 63.2624 56.5703 63.2373 57.3366C63.2248 58.1646 63.1871 58.9927 63.1495 59.8083C63.137 60.142 63.2122 60.451 63.4129 60.7352C63.7014 61.1431 63.6763 61.3408 63.3502 61.724C62.9739 62.1689 62.8986 62.7003 62.8108 63.2317C62.6854 64.0227 62.5474 64.8013 62.422 65.6046H60.7913C60.7913 65.444 60.8163 65.2957 60.7913 65.1474C60.7411 64.9496 60.6909 64.7271 60.5655 64.5788C60.2644 64.2204 59.9006 63.8991 59.587 63.5531C59.4616 63.4171 59.3487 63.2317 59.3362 63.0587C59.2233 62.2801 59.148 61.4891 59.0727 60.7105C59.0602 60.5375 59.1229 60.3521 59.2233 60.1915C59.7877 59.2645 60.1139 58.2635 60.2142 57.2006C60.2519 56.8299 60.2393 56.4467 60.2644 56.0636C60.277 55.8782 60.2142 55.7794 60.0261 55.7423C60.0261 55.7423 60.001 55.7423 59.9884 55.7423C59.587 55.6434 59.1605 55.3962 58.7842 55.458C58.4205 55.5198 58.1319 55.9029 57.7933 56.1378C57.279 56.4962 56.7521 56.8422 56.2378 57.2006C56.0873 57.3119 55.9368 57.4354 55.8113 57.5714C55.3347 58.0781 55.3221 58.2511 55.711 58.8196C56.0371 59.314 56.012 59.2893 55.6482 59.7465C55.4852 59.9566 55.3597 60.2656 55.3723 60.5128C55.4852 61.8723 55.6232 63.2317 55.7862 64.5912C55.8239 64.9743 55.9995 65.0979 56.5263 65.1226C56.8274 65.135 56.9403 65.2586 57.0281 65.5058C57.2413 66.1855 57.2539 66.1731 57.9689 66.1731C59.8505 66.1731 61.732 66.1731 63.6136 66.1731C63.9272 66.1731 64.2408 66.1979 64.5293 66.2844C65.2067 66.4945 65.6332 66.9517 65.6708 67.6686C65.7085 68.4101 65.3823 68.9909 64.7426 69.3864C64.2534 69.6954 63.6889 69.7078 63.1495 69.7201C62.284 69.7201 61.4184 69.6954 60.5655 69.683C60.3271 69.683 60.0888 69.7078 59.8379 69.7201V71.6357H61.5815V72.3526H56.0371H55.9995Z" fill="#231F20"/>
<path d="M33.4079 80.2747C33.5585 80.2747 33.6964 80.287 33.8219 80.287C36.4812 80.287 39.1405 80.287 41.7998 80.287C42.0758 80.287 42.3517 80.25 42.6152 80.2005C43.581 80.0275 44.2459 79.4837 44.4089 78.5197C44.5093 77.9759 44.5093 77.3951 44.4466 76.8389C44.3211 75.739 43.7566 75.1828 42.6653 74.9727C42.3016 74.9109 41.9378 74.8491 41.5615 74.8491C39.4165 74.8244 37.284 74.8121 35.139 74.7873C34.562 74.7873 33.9975 74.7873 33.4079 74.7873V80.2623V80.2747ZM33.5459 82.1038V86.9361H37.9363V88.8023H24V87.1215H27.8886V74.9851H24.1882V73.2178H24.5268C30.5354 73.2178 36.5564 73.2178 42.565 73.2178C43.4054 73.2178 44.2835 73.2549 45.0863 73.465C48.1345 74.2436 49.2258 77.5928 47.2689 80.0893C46.3031 81.3252 45.011 81.9925 43.4431 82.042C41.4486 82.1161 39.4415 82.0791 37.4471 82.0914C36.155 82.0914 34.863 82.0914 33.5334 82.0914" fill="#231F20"/>
<path d="M66.6117 73.4775V74.8864H69.7728V87.2206H65.6709V88.8519H78.5535V87.0599H74.9283V73.4775H66.6117Z" fill="#231F20"/>
<path d="M60.1262 83.0305C60.1262 81.9182 59.9757 80.8183 59.5367 79.7801C59.1854 78.9274 58.5457 78.3465 57.6676 78.0252C56.2251 77.4937 54.1428 77.951 53.3776 80.1138C52.7253 81.98 52.7504 83.8709 53.3776 85.7371C53.6285 86.4786 54.0675 87.1089 54.7198 87.5662C55.9115 88.4066 58.4203 88.3572 59.4489 86.2438C59.9506 85.218 60.1262 84.1428 60.1137 83.0181M49.075 83.3271C49.1503 80.9171 50.1413 79.2981 52.0103 78.1982C54.7951 76.5545 59.1854 76.8016 61.8071 78.7049C65.0309 81.0407 64.2908 85.1068 62.0831 87.01C60.9039 88.0235 59.499 88.5178 57.9812 88.7032C56.1624 88.9257 54.3686 88.7774 52.6751 88.0358C51.0946 87.3437 49.8528 86.3056 49.3134 84.6248C49.1629 84.1304 49.1127 83.6114 49.0625 83.3518" fill="#231F20"/>
<path d="M84.863 83.1421C84.9006 83.5252 84.9257 84.1061 85.0261 84.6746C85.0888 85.0701 85.2142 85.4532 85.3522 85.8239C85.7034 86.7385 86.2554 87.5047 87.2212 87.8632C88.6136 88.3822 90.7586 88.1227 91.5991 85.8363C92.1886 84.2173 92.2012 82.5612 91.8374 80.8928C91.6367 79.9659 91.2478 79.1255 90.5077 78.4952C89.2408 77.3952 86.4686 77.5806 85.5027 79.7187C85.0261 80.7568 84.9132 81.8444 84.8755 83.1544M88.5885 88.7777C86.6693 88.7406 84.9006 88.3699 83.3201 87.3317C80.2343 85.2925 80.1841 80.7074 83.433 78.557C85.1515 77.4199 87.0582 77.0245 89.0903 77.1357C90.5454 77.2222 91.9127 77.593 93.1796 78.3221C96.9051 80.4479 96.717 85.5768 93.1169 87.6283C91.8123 88.3822 90.2443 88.7901 88.576 88.7901" fill="#231F20"/>
<path d="M49.025 69.7076V71.6727H49.7275V72.3524H46.2026V71.7098C46.4284 71.7098 46.6417 71.685 46.8926 71.685V66.8651H46.2152V66.1606H49.7275V66.8404H49.0501V68.8054H52.299V66.8651H51.6091V66.173H55.1464V66.8404C54.9206 66.8404 54.7074 66.8651 54.4565 66.8775C54.4565 67.0258 54.444 67.1494 54.444 67.2729C54.444 68.5953 54.444 69.9177 54.444 71.2401C54.444 71.7716 54.4314 71.7221 54.9332 71.7221C55.0085 71.7221 55.0712 71.7345 55.1715 71.7468V72.3771H51.6341V71.7468C51.8599 71.7345 52.0732 71.7221 52.3241 71.7098V69.7447H49.0626L49.025 69.7076Z" fill="#231F20"/>
<path d="M75.0035 68.2743C74.4014 68.3114 73.8244 68.3485 73.2599 68.3856C72.5449 67.162 71.4411 66.7418 70.1114 67.1373C69.1581 67.4339 68.6061 68.299 68.7065 69.4113C68.8069 70.5607 69.4466 71.2528 70.563 71.4258C71.8299 71.6112 72.8836 71.1416 73.2599 70.1899C73.8244 70.227 74.414 70.2517 75.0161 70.3012C74.9283 70.7708 74.6899 71.1045 74.3513 71.3888C73.561 72.0438 72.6202 72.2662 71.6292 72.328C70.4125 72.4145 69.2083 72.3527 68.1169 71.7224C66.2103 70.6101 66.0848 68.1507 67.9037 66.9519C68.3678 66.643 68.9323 66.4329 69.4842 66.3216C70.7762 66.0497 72.0808 66.0745 73.3352 66.5441C74.2384 66.8778 74.7903 67.4463 75.0161 68.2743" fill="#231F20"/>
<path d="M97.1688 89.0001C97.0433 88.9753 96.9179 88.9506 96.805 88.9135C96.0273 88.6664 95.7011 88.0484 95.7387 87.2945C95.7764 86.5654 96.3283 86.0092 97.0809 85.9227C97.3569 85.898 97.658 85.9103 97.9214 85.9845C98.6615 86.1822 99.0503 86.8125 99.0002 87.6406C98.9625 88.2956 98.4106 88.8517 97.6831 88.9753C97.658 88.9753 97.6454 88.9753 97.6454 88.9753C97.4573 89.0124 97.2942 89.0124 97.1688 89.0124M98.5737 87.4676C98.5737 86.7507 98.1095 86.1946 97.4824 86.1946C96.7423 86.1946 96.1402 86.726 96.1276 87.4181C96.1276 88.1226 96.6795 88.7158 97.3569 88.7158C98.0719 88.7158 98.5737 88.2091 98.5737 87.4799" fill="#231F20"/>
<path d="M96.8047 86.7382C97.0556 86.7135 97.2814 86.7135 97.4319 86.7259C97.6577 86.7259 97.758 86.7506 97.8458 86.8248C97.8709 86.8495 98.0214 86.9607 98.0089 87.1337C98.0089 87.2944 97.8709 87.4056 97.8584 87.418C97.8333 87.4303 97.8207 87.4427 97.7957 87.4551C97.8458 87.5169 97.9336 87.6404 97.9713 87.8135C98.0089 87.9618 97.9964 88.0854 97.9838 88.1595C97.8207 88.209 97.7455 88.1719 97.6953 88.1348C97.6451 88.0854 97.6577 88.0359 97.6075 87.8876C97.5699 87.7764 97.5322 87.6899 97.4821 87.6404C97.3692 87.5539 97.1935 87.591 97.1308 87.6157C97.1308 87.7393 97.1308 87.8382 97.1308 87.9494C97.1308 88.0112 97.1057 88.0854 97.0681 88.1348C97.0305 88.1719 96.9552 88.209 96.9176 88.1966C96.8674 88.1842 96.8172 88.1224 96.8172 88.073C96.8047 87.9618 96.8172 87.8505 96.8172 87.727V86.7382M97.1685 87.3562C97.2563 87.3685 97.3441 87.3809 97.3942 87.3686C97.4946 87.3686 97.5448 87.3686 97.5949 87.3191C97.6075 87.3191 97.6828 87.2573 97.6953 87.1584C97.7078 87.0472 97.6326 86.9607 97.62 86.9607C97.5699 86.936 97.5071 86.9113 97.4193 86.8989C97.2939 86.8866 97.2061 86.8989 97.1434 86.9236C97.1434 87.0719 97.1559 87.2079 97.1685 87.3562Z" fill="#231F20"/>
</g>
<defs>
<clipPath id="clip0_16275_5145">
<rect width="75" height="58" fill="white" transform="translate(24 31)"/>
</clipPath>
</defs>
</svg>
