<svg width="120" height="120" viewBox="0 0 120 120" fill="none" xmlns="http://www.w3.org/2000/svg">
<rect width="120" height="120" rx="60" fill="white"/>
<rect x="0.5" y="0.5" width="119" height="119" rx="59.5" stroke="#1B497E" stroke-opacity="0.1"/>
<mask id="mask0_16160_6462" style="mask-type:luminance" maskUnits="userSpaceOnUse" x="15" y="38" width="89" height="45">
<path d="M104 38H15V82.2367H104V38Z" fill="white"/>
</mask>
<g mask="url(#mask0_16160_6462)">
<path d="M62.9702 38.1472C62.6762 38.1892 62.4033 39.26 61.8363 39.8268C61.4269 40.2257 60.9124 40.2047 60.6394 40.6981C60.5344 40.8871 60.5659 41.202 60.4504 41.5064C60.2195 42.1153 59.411 42.1678 59.411 42.8396C59.411 43.5535 60.083 43.6899 60.6709 44.2043C61.1329 44.6137 61.1749 44.8971 61.7313 45.0966C62.2038 45.2541 62.9072 44.7292 63.5476 44.9181C64.0726 45.0756 64.5661 45.1806 64.6815 45.7159C64.7865 46.2093 64.6815 46.9757 64.0411 46.8812C63.8311 46.8602 62.9072 46.5453 61.7733 46.6712C60.4084 46.8287 58.8441 47.2696 58.6971 48.8022C58.6131 49.6525 59.663 50.6603 60.6814 50.4608C61.3849 50.3244 61.0489 49.4951 61.4373 49.0857C61.9413 48.5713 64.7865 50.8912 67.4323 50.8912C68.5452 50.8912 69.3746 50.6078 70.1935 49.747C70.267 49.684 70.3615 49.5371 70.4875 49.5266C70.603 49.5266 70.792 49.642 70.8654 49.6945C72.9967 51.4056 74.6031 54.8488 82.4458 54.8803C83.5482 54.8803 84.7976 55.4157 85.8265 56.35C86.7399 57.2003 87.2754 58.5125 87.8003 59.8457C88.5878 61.8402 89.9841 63.7927 92.1154 65.9552C92.2309 66.0707 93.9842 67.4354 94.1207 67.5404C94.1417 67.5509 94.2677 67.8658 94.2257 68.0337C94.1732 69.3354 93.9842 73.1041 96.798 73.2825C97.4909 73.314 97.3019 72.8311 97.3019 72.5057C97.3019 71.8444 97.1759 71.1935 97.5224 70.5217C97.9949 69.5979 96.5145 69.1675 96.5565 67.1625C96.588 65.6718 95.3281 65.9237 94.6982 64.79C94.3307 64.1287 94.0052 63.7822 94.0262 62.9739C94.1732 58.439 93.0603 55.4577 92.5039 54.7229C92.0734 54.1665 91.7165 53.946 92.1154 53.6941C94.4672 52.1405 95.0026 50.7023 95.0026 50.7023C96.252 47.763 97.3754 45.0861 98.9293 43.8999C99.2442 43.6584 100.042 43.0601 100.536 42.8291C101.984 42.1468 102.74 41.7374 103.171 41.328C103.832 40.6771 104.357 39.3334 103.727 38.5146C102.94 37.5069 101.565 38.3047 100.956 38.6616C96.63 41.223 96 45.7474 94.4987 48.3508C93.3018 50.4293 91.3595 51.9515 89.6272 52.0775C88.3253 52.1719 86.9184 51.9095 85.522 51.3006C82.1204 49.81 80.2621 47.8889 79.8316 47.553C78.9182 46.8497 71.8314 39.8898 66.0989 39.6064C66.0989 39.6064 65.385 38.1787 65.2065 38.1577C64.7865 38.1052 64.3561 39.008 64.0516 39.113C63.7576 39.2075 63.2747 38.1367 62.9807 38.1787" fill="#231F20"/>
<path d="M78.2145 74.1854H76.2092V64.3072C76.2092 63.7613 76.6606 63.3204 77.2066 63.3204C77.7525 63.3204 78.1935 63.7403 78.2145 64.2862V74.1854ZM82.1936 60.7485H72.23C71.1696 60.7485 70.3087 61.6093 70.3087 62.6801V82.2475H76.2092V76.8518H78.2145V82.2475H84.1149V62.6801C84.1149 61.6093 83.254 60.7485 82.1936 60.7485ZM22.9057 73.1671C22.9057 73.7655 22.4228 74.1749 21.9083 74.1749H20.9004V63.2994H21.9083C22.4228 63.2994 22.9057 63.7298 22.9057 64.3282V73.1671ZM26.8954 60.7485H15V82.237H20.9004V76.8413H26.8639C27.9348 76.8413 28.7957 75.9805 28.7957 74.8992V62.6801C28.7957 61.6093 27.9663 60.7485 26.8954 60.7485ZM66.3926 60.7485H48.5233C47.4629 60.7485 46.602 61.6093 46.602 62.6801V82.2475H52.5129V64.3072C52.5129 63.7613 52.9644 63.3204 53.5103 63.3204C54.0563 63.3204 54.5077 63.7508 54.5182 64.2967V82.258H60.3977V64.2967C60.3977 63.7508 60.8491 63.3204 61.3951 63.3204C61.941 63.3204 62.3925 63.7613 62.3925 64.3072V82.2475H68.3034V62.6801C68.3034 61.6093 67.4425 60.7485 66.3821 60.7485M38.6962 78.6574C38.6962 79.2032 38.2343 79.6441 37.6988 79.6651C37.1634 79.6546 36.7014 79.2137 36.7014 78.6574V60.7485H30.801V80.4839C30.801 81.4497 31.5884 82.237 32.5438 82.237H42.8643C43.8302 82.237 44.6072 81.4497 44.6072 80.4839V60.7485H38.7067V78.6574H38.6962Z" fill="#231F20"/>
</g>
</svg>
