<svg width="120" height="120" viewBox="0 0 120 120" fill="none" xmlns="http://www.w3.org/2000/svg">
<rect width="120" height="120" rx="60" fill="white"/>
<rect x="0.5" y="0.5" width="119" height="119" rx="59.5" stroke="#1B497E" stroke-opacity="0.1"/>
<mask id="mask0_16275_5148" style="mask-type:luminance" maskUnits="userSpaceOnUse" x="22" y="41" width="75" height="37">
<path d="M96.4885 41.2222H22.3867V77.376H96.4885V41.2222Z" fill="white"/>
</mask>
<g mask="url(#mask0_16275_5148)">
<path d="M79.3225 51.1823C77.8847 51.1823 76.7258 50.0464 76.7258 48.6477C76.7258 47.249 77.8935 46.1386 79.3225 46.1386C80.7516 46.1386 81.9105 47.266 81.9105 48.6477C81.9105 50.0294 80.7516 51.1823 79.3225 51.1823ZM79.3225 43.7227C75.8893 43.7227 73.5889 45.7062 73.5889 48.6647C73.5889 51.6231 76.0549 53.6152 79.3225 53.6152C82.5902 53.6152 85.0649 51.5807 85.0649 48.6647C85.0649 45.7486 82.7557 43.7227 79.3225 43.7227Z" fill="#231F20"/>
<path d="M67.7592 43.8754H65.6941V46.427H67.097C68.2385 46.427 69.1621 47.3849 69.1621 48.5631C69.1621 50.0042 67.9684 50.7078 67.158 50.7332H64.5961V41.2222H61.4243V53.2932H67.1318C69.6588 53.2932 72.3601 51.4368 72.3601 48.6733C72.3601 45.6725 70.0248 43.8754 67.7679 43.8754" fill="#231F20"/>
<path d="M39.1608 48.5802C39.1608 47.3849 40.1541 46.4101 41.3653 46.4101H43.8749L41.8446 49.7076H44.877L46.916 46.605V43.8755H40.86C38.2197 43.8755 36.0674 45.9947 36.0674 48.5802C36.0674 51.1656 38.2197 53.2848 40.8512 53.2848H46.9247V50.7418H41.3566C40.1367 50.7418 39.1521 49.7669 39.1521 48.5802" fill="#231F20"/>
<path d="M30.1333 41.2222H22.3867V53.2932H25.4627V43.8585H29.4536C30.5515 43.8585 31.7192 44.4264 31.7192 46.0201C31.7192 47.2323 30.8391 48.1562 29.6104 48.1562H26.5345V50.6739H28.6868C30.5428 50.7502 31.3619 51.5724 31.3706 53.3526V55.9295H34.5947V52.4964C34.5947 50.6739 33.2702 49.7499 31.9893 49.4363C33.9934 48.7751 34.9781 47.2577 34.9781 45.4267C34.9868 42.8243 32.4685 41.2222 30.1333 41.2222Z" fill="#231F20"/>
<path d="M93.639 48.2664C95.7739 47.6137 96.3839 46.4778 96.3926 44.2145V43.867H93.2556V44.3756C93.2556 45.8929 92.5934 46.978 91.1208 46.978H89.6307V41.2222H86.4502V53.2848H89.6307V49.521H90.7722C92.3581 49.521 93.3254 50.4111 93.3254 51.8098V53.2848H96.4884V51.9115C96.4884 50.1059 95.6693 48.809 93.639 48.258" fill="#231F20"/>
<path d="M51.5255 48.5802C51.5255 47.3849 52.5102 46.4101 53.7301 46.4101H56.2397L54.2094 49.7076H57.2417L59.2808 46.605V43.8755H53.2247C50.5844 43.8755 48.4321 45.9947 48.4321 48.5802C48.4321 51.1656 50.5757 53.2848 53.216 53.2848H59.2895V50.7418H53.7127C52.4927 50.7418 51.5081 49.7669 51.5081 48.5802" fill="#231F20"/>
<path d="M69.833 66.2036C77.9804 63.0333 83.0518 61.2023 96.4884 58.0234C89.195 58.4897 73.0484 59.5747 61.9209 61.6854C61.9209 61.6854 69.6587 66.1019 69.833 66.2036Z" fill="#231F20"/>
<path d="M44.5024 76.7149H55.1507C57.2594 73.6039 59.3594 72.095 61.7993 70.4081C59.9519 69.713 58.0959 69.0433 56.205 68.3906C49.4083 71.3067 45.6265 75.2315 44.5024 76.7149Z" fill="#231F20"/>
<path d="M46.611 65.4067C37.1217 68.7127 31.8325 72.2984 28.2686 76.7149H40.0321C41.1823 75.1636 45.5392 70.6878 53.7389 67.5768C51.4733 66.8309 47.5521 65.6356 46.611 65.4067Z" fill="#231F20"/>
<path d="M51.4818 58.4556H25.4712C51.6909 63.067 64.3258 68.9923 84.6463 77.3759C82.9123 76.1129 54.9063 60.0662 51.4818 58.4556Z" fill="#231F20"/>
</g>
</svg>
