<svg width="120" height="120" viewBox="0 0 120 120" fill="none" xmlns="http://www.w3.org/2000/svg">
<rect width="120" height="120" rx="60" fill="white"/>
<rect x="0.5" y="0.5" width="119" height="119" rx="59.5" stroke="#1B497E" stroke-opacity="0.1"/>
<path d="M21.702 59.6958C22.3039 58.369 21.4777 57.8554 19.5168 57.8554L16.2387 57.8581C15.5259 57.8564 15.3756 57.7996 15.5344 57.4561L15.7701 56.9453C15.9141 56.614 16.1239 56.5498 16.838 56.5491L21.1322 56.5474C22.019 56.5464 22.3931 56.6634 22.8723 56.8479L23.2983 55.036L14.7323 55.0373C13.0985 55.0364 11.8297 55.7771 11.1808 57.2062L10.2596 59.2455C9.54935 60.7665 10.0594 61.2192 11.896 61.2196L15.6631 61.2206C16.3838 61.22 16.5019 61.2915 16.3493 61.6222L16.0622 62.2487C15.9125 62.588 15.7263 62.6438 15.01 62.6449H10.5477C9.6288 62.6445 9.2658 62.4749 8.89256 62.3047L8.43311 64.1626L16.7678 64.1606C18.9851 64.1592 20.0225 63.3567 20.678 61.9264L21.702 59.6958Z" fill="#062849"/>
<path d="M44.0605 60.1866C45.1279 60.186 45.5967 60.3174 46.039 60.4316L46.9535 58.4403C46.4053 58.5472 45.8209 58.6783 44.7582 58.6773L41.4613 58.677L42.4454 56.5445L46.201 56.5423C47.2875 56.5442 47.756 56.6662 48.198 56.7845L48.6251 55.0313L38.1378 55.0304C38.2081 55.3907 38.1916 55.729 37.7991 56.5949L35.0621 62.5846C34.8124 63.1247 34.5986 63.4574 34.3798 63.7221C34.1002 63.2376 33.8942 62.6854 33.7588 62.2878L32.2853 57.7246L35.3437 55.9323C36.2158 55.4146 36.6944 55.2603 37.3464 55.0306L33.1222 55.0326C33.0881 55.1494 33.0625 55.2603 33.0106 55.3739C32.8715 55.6791 32.6463 55.9003 31.9144 56.3631L27.484 59.128L28.6383 56.5966C29.0342 55.7284 29.3442 55.3923 29.7352 55.031L24.3533 55.0346C24.4256 55.3936 24.4177 55.7297 24.0193 56.5966L21.2821 62.5885C20.8872 63.4547 20.5826 63.7917 20.1885 64.1607L25.5594 64.1611C25.5034 63.7921 25.504 63.4526 25.8959 62.5876L26.5274 61.219L28.0478 60.2896L28.9865 64.1584L44.6335 64.1547L45.8565 62.397C45.3296 62.5083 44.7421 62.6383 43.67 62.6389H39.6509L40.7781 60.1873L44.0605 60.1866Z" fill="#062849"/>
<path d="M57.8963 61.9386C57.8963 61.9386 56.4354 62.2805 54.6001 62.2798C54.6001 62.2798 52.8081 62.2846 52.4371 62.2794C51.9682 62.2768 51.8247 62.148 52.0025 61.6997C52.179 61.2507 53.9639 57.4147 53.9639 57.4147C54.0267 57.2764 54.2502 56.8975 54.8256 56.8975L58.2193 56.8985C59.0635 56.8962 59.821 57.1818 59.821 57.1818L60.3604 55.0825L60.3329 55.0849L60.3486 55.0284L53.0763 55.0294C51.0988 55.0294 49.6789 55.7409 48.7768 57.7122L47.0598 61.4733C46.1578 63.4326 46.9365 64.1548 48.8992 64.1548L56.3655 64.1518L57.8963 61.9386Z" fill="#062849"/>
<path d="M71.1047 62.5769L73.8458 56.5863C74.2376 55.7216 74.5495 55.3842 74.934 55.0238L69.5594 55.0264C69.6253 55.3852 69.622 55.7216 69.2227 56.5874L68.2736 58.6744L64.8231 58.674L65.7813 56.5893C66.1822 55.7203 66.4843 55.3839 66.8802 55.0258L61.501 55.0288C61.5672 55.3868 61.5608 55.7216 61.1555 56.5901L58.4232 62.582C58.0226 63.4433 57.7168 63.7867 57.3188 64.1519L62.6988 64.1497C62.6373 63.7854 62.6396 63.4444 63.0449 62.5803L64.1422 60.1834L67.582 60.1817L66.4877 62.5796C66.0905 63.4431 65.7833 63.7837 65.3914 64.1501L70.7619 64.1495C70.6977 63.7841 70.7055 63.4427 71.1047 62.5769Z" fill="#062849"/>
<path d="M80.8021 62.6314L76.795 62.6307L77.9115 60.1804L81.2054 60.1797C82.2606 60.178 82.7406 60.3088 83.1771 60.4223L84.0902 58.4328C83.5401 58.5413 82.9583 58.6714 81.9037 58.6708L78.6008 58.6704L79.5821 56.535L83.3458 56.5343C84.4327 56.5352 84.8975 56.6593 85.3404 56.7756L85.7619 55.0225L75.28 55.0251C75.3415 55.3848 75.3344 55.7213 74.9345 56.5893L72.2029 62.5769C71.8009 63.4427 71.4897 63.7835 71.1052 64.1484L81.7743 64.1465L82.9953 62.389C82.4781 62.504 81.8792 62.6335 80.8021 62.6314Z" fill="#062849"/>
<path d="M94.3918 57.0425L93.8897 58.1572C93.6881 58.5988 93.4854 58.669 92.8879 58.6697L90.2789 58.6703L91.2693 56.5353L93.8679 56.5332C94.4594 56.5319 94.6012 56.5989 94.3918 57.0425ZM95.7237 60.177C96.736 60.1256 97.6377 60.0523 98.254 58.7138L99.0176 57.0334C99.7166 55.504 98.9164 55.0202 96.7988 55.0202L86.8432 55.0219C87.0203 55.3832 87.0146 55.7173 86.614 56.587L83.879 62.5772C83.4831 63.442 83.18 63.7811 82.7773 64.1475L88.1552 64.1462C88.0924 63.7808 88.0968 63.44 88.4933 62.5759L89.5849 60.1796L91.0089 60.1773L91.3886 64.1453L96.5548 64.1462C96.3071 63.7996 96.3021 63.3264 96.1962 62.7446L95.7237 60.177Z" fill="#062849"/>
<path d="M104.296 56.9283C104.452 56.5966 104.652 56.5304 105.376 56.5285L109.667 56.5298C110.559 56.5311 110.919 56.6474 111.404 56.8305L112 55.0148L103.258 55.0198C101.628 55.0194 100.367 55.7591 99.7111 57.1888L98.7916 59.2281C98.0845 60.7502 98.596 61.2032 100.429 61.2032L104.196 61.2021C104.911 61.2015 105.041 61.2721 104.882 61.6058L104.595 62.2312C104.446 62.5701 104.265 62.6272 103.534 62.6283L99.0752 62.6292C98.1739 62.6292 97.7924 62.4578 97.417 62.2881L96.9707 64.1445L105.295 64.1432C107.516 64.1419 108.555 63.3362 109.214 61.9057L110.234 59.6777C110.842 58.3513 110.017 57.8377 108.047 57.8388L104.77 57.8392C104.048 57.8387 103.902 57.7843 104.063 57.4385L104.296 56.9283Z" fill="#062849"/>
<path d="M110.472 63.936H110.691C110.862 63.936 110.94 63.8869 110.94 63.7884C110.94 63.6865 110.867 63.6411 110.711 63.6411H110.472V63.936ZM110.74 63.495C110.985 63.495 111.117 63.5928 111.117 63.7746C111.117 63.863 111.091 63.911 111.01 63.9813L111.014 64.0293L111.058 64.0825C111.067 64.0928 111.073 64.112 111.082 64.1452C111.091 64.1708 111.098 64.1954 111.098 64.2202L111.107 64.2891L111.112 64.3523L111.117 64.3923C111.117 64.4111 111.117 64.4158 111.136 64.475H110.961C110.94 64.4302 110.936 64.4205 110.93 64.3132C110.917 64.1079 110.886 64.073 110.691 64.073H110.476V64.4703H110.29V63.495H110.74ZM109.908 63.995C109.908 64.4263 110.262 64.7788 110.697 64.7788C111.127 64.7788 111.479 64.4263 111.479 63.995C111.479 63.5585 111.131 63.2106 110.697 63.2106C110.262 63.2106 109.908 63.5585 109.908 63.995ZM111.654 63.995C111.654 64.519 111.224 64.9448 110.697 64.9448C110.163 64.9448 109.733 64.519 109.733 63.995C109.733 63.4661 110.163 63.0385 110.697 63.0385C111.224 63.0385 111.654 63.4661 111.654 63.995Z" fill="#062849"/>
</svg>
