<svg width="120" height="120" viewBox="0 0 120 120" fill="none" xmlns="http://www.w3.org/2000/svg">
<rect width="120" height="120" rx="60" fill="white"/>
<rect x="0.5" y="0.5" width="119" height="119" rx="59.5" stroke="#1B497E" stroke-opacity="0.1"/>
<path fill-rule="evenodd" clip-rule="evenodd" d="M19.5478 46.0409H37.9337C40.0926 46.0409 41.8339 47.7124 41.8339 49.8712V50.15C41.8339 52.3088 40.0926 54.0498 37.9337 54.0498H19.5478C17.3891 54.0498 15.5781 52.3088 15.5781 50.15V49.8712C15.5781 47.7124 17.3891 46.0409 19.5478 46.0409Z" fill="white"/>
<path fill-rule="evenodd" clip-rule="evenodd" d="M15.5781 60.1093C15.5781 58.02 17.5281 56.4883 19.6872 56.4883H35.9837C38.1426 56.4883 39.8837 58.2287 39.8837 60.3878V60.5969C39.8837 62.7558 38.1426 64.4969 35.9837 64.4969H24.9104C24.3533 64.4969 23.8657 64.9843 23.8657 65.5414V70.9735C23.8657 73.1324 22.1245 74.8735 19.9659 74.8735H19.4781C17.3195 74.8735 15.5781 73.1324 15.5781 70.9735V60.1093Z" fill="#213258"/>
<path fill-rule="evenodd" clip-rule="evenodd" d="M44.3406 70.9735L44.271 49.3847C44.271 47.2253 45.9425 45.4147 48.171 45.4147H48.5892C50.7478 45.4147 52.4889 47.2253 52.4889 49.3847L52.5586 70.9735C52.5586 73.1324 50.8174 74.8735 48.6586 74.8735H48.171C46.0121 74.8735 44.3406 73.1324 44.3406 70.9735Z" fill="#213258"/>
<path fill-rule="evenodd" clip-rule="evenodd" d="M93.9264 47.9911L102.632 62.1985C104.582 65.2626 105 66.0287 105 68.327C105 71.8787 101.727 74.5947 98.8712 74.5947H87.1016C84.9428 74.5947 83.2018 73.1321 83.2018 70.9732V70.7643C83.2018 68.6054 84.9428 66.8643 87.1016 66.8643H94.3443C94.7622 66.8643 95.0409 66.7947 95.18 66.5162C95.3191 66.1679 95.2496 66.0287 95.0409 65.6803L89.8875 57.3932C89.8174 57.2536 89.7479 57.0449 89.6087 57.0449C89.3995 57.0449 89.33 57.2536 89.2604 57.3932L81.3907 70.9036C80.1371 73.0627 78.6743 74.5947 76.5856 74.5947H61.4733C58.5479 74.5947 55.6926 71.809 55.6926 68.8839V49.3843C55.6926 47.225 57.4338 45.484 59.5925 45.484H60.08C62.2393 45.484 63.9798 47.225 63.9798 49.3843V65.332C63.9798 65.8892 64.3982 66.3766 65.0247 66.3766H72.5461C73.8692 66.3766 74.6354 65.8892 75.332 64.7055L85.4302 47.9911C86.405 46.3892 87.9373 45.5535 89.7479 45.5535C91.4888 45.5535 92.8821 46.3197 93.9264 47.9911Z" fill="#213258"/>
<path fill-rule="evenodd" clip-rule="evenodd" d="M19.5478 46.0409H37.9337C40.0926 46.0409 41.8339 47.7124 41.8339 49.8712V50.15C41.8339 52.3088 40.0926 54.0498 37.9337 54.0498H19.5478C17.3891 54.0498 15.5781 52.3088 15.5781 50.15V49.8712C15.5781 47.7124 17.3891 46.0409 19.5478 46.0409Z" fill="#ED1C24"/>
</svg>
