<svg width="120" height="120" viewBox="0 0 120 120" fill="none" xmlns="http://www.w3.org/2000/svg">
<rect width="120" height="120" rx="60" fill="white"/>
<rect x="0.5" y="0.5" width="119" height="119" rx="59.5" stroke="#1B497E" stroke-opacity="0.1"/>
<g clip-path="url(#clip0_16160_6549)">
<mask id="mask0_16160_6549" style="mask-type:luminance" maskUnits="userSpaceOnUse" x="19" y="39" width="80" height="40">
<path d="M99 39H19V79H99V39Z" fill="white"/>
</mask>
<g mask="url(#mask0_16160_6549)">
<path d="M58.9908 54.9831C57.1376 55.2089 56.178 55.3217 54.1178 55.1336C54.6164 53.4215 55.5195 51.7187 57.0717 50.5616C58.6427 49.4798 60.3831 49.4892 61.5308 50.4299C62.3304 51.2578 63.3464 54.2493 58.9908 54.9831ZM59.8563 47.0245C56.2062 47.0339 50.844 49.5644 49.0567 55.4723C47.6173 60.27 49.8186 66.2437 57.5515 66.5353C59.8939 66.5635 62.2646 66.1872 64.4753 65.3594C64.4376 65.4064 63.9297 62.7724 63.9391 62.7724C62.2175 63.365 59.6023 63.8166 57.7302 63.6284C55.0868 63.1486 52.8384 61.1355 53.3276 57.6454C53.3464 57.683 57.4198 58.2945 60.336 57.4948C66.3473 55.6886 66.8459 51.9821 65.8676 50.016C64.4471 47.1468 60.9946 47.0339 59.8469 47.0433M81.5026 47.8899L76.8741 53.7037L73.384 47.8899H68.1535L73.3088 56.46L65.971 65.6698H69.6587L74.8798 59.0753L78.8403 65.6698H84.0708L78.4734 56.3471L85.1432 47.8994H81.512L81.5026 47.8899ZM91.3332 61.1261L94.5599 47.8899H89.9409L86.686 61.1543C86.686 61.1543 86.3662 62.4431 86.3379 63.365C86.3003 64.5221 86.4132 65.1806 86.6578 65.6698H92.067C91.606 65.2183 91.098 64.7385 91.0322 63.7319C90.9475 62.5184 91.3426 61.1261 91.3426 61.1261M43.9955 61.1261L49.3953 39H44.7857L39.3389 61.1543C39.3389 61.1543 39.019 62.4431 38.9908 63.365C38.9532 64.5221 39.0661 65.1806 39.3012 65.6698H44.7105C44.2589 65.2183 43.7415 64.7385 43.6757 63.7319C43.591 62.5184 43.9861 61.1261 43.9861 61.1261M37.8243 41.794C38.671 41.7658 40.0632 41.8128 40.0632 41.8128C40.0632 41.8128 40.75 39.0565 40.75 39.0188C40.242 39.0188 37.8807 38.9906 37.401 39.0094C33.1865 39 29.7622 41.5682 28.8121 45.4911C28.8121 45.4911 28.163 47.8994 28.1818 47.8899C28.1818 47.8994 24.5035 47.8899 24.5035 47.8899L23.8262 50.6745H27.495C27.495 50.6745 24.9927 61.1073 23.9767 65.6698H28.5769L32.2269 50.6745H37.8525L38.5204 47.8899H32.9043L33.7509 44.6726C34.2589 42.6877 36.385 41.8222 37.8337 41.794M93.892 39C92.3398 39.0188 91.0416 40.223 91.004 41.6905C90.9663 43.1581 92.1893 44.334 93.7509 44.3057C95.3031 44.2869 96.5919 43.0828 96.6296 41.6152C96.6672 40.1477 95.4442 38.9718 93.892 39ZM94.4753 63.1675C94.4753 62.0574 95.3878 61.1449 96.4979 61.1449C97.6079 61.1449 98.5204 62.0574 98.5204 63.1675C98.5204 64.2775 97.6173 65.19 96.4979 65.19C95.3784 65.19 94.4753 64.2775 94.4753 63.1675ZM94.0049 63.1675C94.0049 64.5503 95.1244 65.6698 96.5073 65.6698C97.8901 65.6698 99.0002 64.5503 99.0002 63.1675C99.0002 61.7846 97.8807 60.6745 96.5073 60.6745C95.1338 60.6745 94.0049 61.794 94.0049 63.1675ZM96.131 63.0546H96.432C96.7801 63.0546 96.9965 62.8664 96.9965 62.5936C96.9965 62.2832 96.7801 62.1421 96.4414 62.1421C96.2815 62.1421 96.178 62.1515 96.1216 62.1703V63.064L96.131 63.0546ZM95.623 61.8034C95.8111 61.7752 96.1028 61.747 96.4038 61.747C96.8083 61.747 97.0811 61.8128 97.2693 61.9727C97.4198 62.1044 97.5139 62.302 97.5139 62.5372C97.5139 62.9041 97.2693 63.1486 97.0059 63.2427C97.2034 63.3274 97.3257 63.5249 97.401 63.7978C97.4856 64.1458 97.5609 64.4751 97.6267 64.588H97.0999C97.0623 64.5033 96.9964 64.2681 96.9118 63.92C96.8365 63.5532 96.7048 63.4309 96.4132 63.4309H96.1498V64.588H95.6418V61.8128L95.623 61.8034Z" fill="#D92231"/>
<path d="M19 70.543C31.4553 79.8751 44.3151 80.3267 58.746 77.4104C72.4337 74.6352 85.8956 71.4838 98.9906 78.5675C86.5259 69.2448 73.666 68.7839 59.2446 71.7001C45.5569 74.4753 32.095 77.6362 19 70.543Z" fill="#D92231"/>
</g>
</g>
<defs>
<clipPath id="clip0_16160_6549">
<rect width="80" height="40" fill="white" transform="translate(19 39)"/>
</clipPath>
</defs>
</svg>
