<svg width="120" height="120" viewBox="0 0 120 120" fill="none" xmlns="http://www.w3.org/2000/svg">
<rect width="120" height="120" rx="60" fill="white"/>
<rect x="0.5" y="0.5" width="119" height="119" rx="59.5" stroke="#1B497E" stroke-opacity="0.1"/>
<path d="M52.9667 54.7568L51.0714 59.0195L49.1826 54.7568H42.6797V63.946H47.8036V59.2718L49.712 63.946H52.4373L54.3457 59.2718V63.946H59.4696V54.7568H52.9667Z" fill="#231F20"/>
<path d="M70.6645 54.7568L68.7757 59.0195L66.8804 54.7568H60.3774V63.946H65.5013V59.2718L67.4163 63.946H70.1351L72.0435 59.2718V63.946H77.1674V54.7568H70.6645Z" fill="#231F20"/>
<path d="M21.7408 54.7568V58.1297H19.1481V54.7568H13.6377V63.946H19.1481V60.4669H21.7408V63.946H27.2511V54.7568H21.7408Z" fill="#231F20"/>
<path d="M78.5288 54.7568V63.946H89.8733V61.735H83.8191V60.3606H89.8733V58.3489H83.8191V56.9678H89.8733V54.7568H78.5288Z" fill="#231F20"/>
<path d="M33.6315 54.7568V60.9112C33.6446 61.707 34.1555 61.8993 34.8563 61.8993C35.5572 61.8993 36.0615 61.6871 36.0615 60.8913V54.7568H41.4914V60.9311C41.4914 63.6568 39.5329 64.2404 34.8563 64.2404C30.1732 64.2404 28.2017 63.6634 28.2017 60.9311V54.7568H33.6315Z" fill="#231F20"/>
<path d="M99.6284 63.9287L96.5172 60.6393V63.9287H91.0742V54.7569H99.8183C101.652 54.7569 104.691 54.7038 104.528 57.7677C104.449 59.2002 102.975 60.2414 101.803 60.5001L105.438 63.9287H99.6284ZM98.1153 58.9482C99.1306 58.9482 99.6153 58.5768 99.6153 57.8142C99.6153 56.8592 99.0061 56.6072 98.1088 56.6072H96.5172V58.9482H98.1153Z" fill="#231F20"/>
<path d="M105.235 55.8574C105.235 55.3335 105.622 54.9422 106.119 54.9422C106.617 54.9422 106.997 55.3335 106.997 55.8574C106.997 56.3814 106.611 56.7726 106.119 56.7726C105.628 56.7726 105.235 56.3814 105.235 55.8574ZM106.119 56.9583C106.709 56.9583 107.22 56.4941 107.22 55.8574C107.22 55.2208 106.715 54.7632 106.119 54.7632C105.523 54.7632 105.019 55.2274 105.019 55.8574C105.019 56.4875 105.523 56.9583 106.119 56.9583ZM105.89 55.9436H106.106L106.434 56.4941H106.643L106.29 55.937C106.473 55.9171 106.617 55.8176 106.617 55.5855C106.617 55.3335 106.473 55.2274 106.172 55.2274H105.694V56.4941H105.884V55.9436H105.89ZM105.89 55.7845V55.3932H106.146C106.277 55.3932 106.421 55.4264 106.421 55.5789C106.421 55.7712 106.277 55.7845 106.113 55.7845H105.884H105.89Z" fill="#231F20"/>
</svg>
