<svg width="120" height="120" viewBox="0 0 120 120" fill="none" xmlns="http://www.w3.org/2000/svg">
<rect width="120" height="120" rx="60" fill="white"/>
<rect x="0.5" y="0.5" width="119" height="119" rx="59.5" stroke="#1B497E" stroke-opacity="0.1"/>
<g clip-path="url(#clip0_16275_5171)">
<path d="M104 44H15V75H104V44Z" fill="#475E84"/>
<path d="M100.075 54.5647V54.4014L100.055 54.2483V53.9318L100.034 53.7889V53.4725L100.023 53.3194V53.1561L100.013 53.0234V52.7274L100.023 52.564V52.4109L100.044 52.268L100.096 51.5637H88.3958V52.0537L88.3644 52.0333L88.0609 51.9006L87.7783 51.7985L87.4958 51.7168L87.1923 51.625L86.8992 51.5637L86.6166 51.5127L86.3131 51.4718L86.0306 51.431L85.7375 51.4004H85.4236L85.1515 51.38H84.8584L84.5654 51.3698H84.2828L84.0002 51.38H83.6862L83.4037 51.4106H83.1211L82.8281 51.4412L82.556 51.4616H82.2734L81.9804 51.4923L81.7082 51.5127H81.4466L81.164 51.5331H80.8815L80.6093 51.5535H79.5732L79.6988 52.2986L79.7616 52.7069L79.814 53.0948L79.8558 53.4929L79.8977 53.9012L79.9395 54.2993V54.4728L79.9291 54.432L79.6151 54.0237L79.2697 53.6562L78.9034 53.3194L78.5267 53.003L78.1081 52.7172L77.679 52.462L77.2394 52.2374L76.7894 52.0435L76.3184 51.8699L75.8475 51.727L75.3556 51.6045L74.8637 51.5331L74.3718 51.4616L73.8904 51.431H73.388H72.8857L72.3833 51.4718L71.9019 51.5433L71.41 51.625L70.9181 51.7474L70.4263 51.8903L69.9553 52.0639L69.5053 52.2476L69.0553 52.462L68.6052 52.7069L68.1866 52.9825L67.7889 53.2581L67.4017 53.5746L67.0458 53.9114L66.9307 53.7277L66.7633 53.4521L66.5854 53.2275L66.397 53.0132L66.1563 52.8192L65.9051 52.6559L65.633 52.4926L65.3818 52.3497L65.1097 52.2272L64.8376 52.1149L64.5655 52.0128L64.3038 51.9414L64.0108 51.8495L63.7178 51.7781L63.4457 51.7372L63.1526 51.6862L62.8596 51.6454L62.577 51.6147L62.2944 51.5943L62.0119 51.5739H61.7084L61.4363 51.5535H61.1432L60.8502 51.5433H59.992L59.7199 51.5637H59.1652L58.8826 51.5841H58.621L58.3489 51.5943H58.0768L57.8256 51.6045H56.643V52.2476V52.9111L56.6011 52.8703L56.2557 52.5845L55.8895 52.3191L55.4918 52.1047L55.0836 51.9108L54.6545 51.7372L54.2254 51.5943L53.7859 51.4616L53.3463 51.3596L52.9067 51.2881L52.4672 51.2269L52.0276 51.1962H51.5985L51.2008 51.186L50.7822 51.2065L50.395 51.2371H50.374L50.3531 51.2473H50.395H50.3427L50.0391 51.3085L49.7252 51.3902L49.3798 51.4718L49.0658 51.5739L48.7623 51.676L48.4274 51.7985L48.1135 51.9414L47.8309 52.0843L47.5274 52.2374L47.2343 52.4211L46.9518 52.6253L46.868 52.6967V51.5943H42.6609V56.6572L38.192 51.8291L37.9932 51.6147H34.7174L34.0581 51.6045V57.188L32.0068 52.023L31.8394 51.6045H27.5903L27.4333 52.023L25.9472 55.8713L26.0204 52.2578V51.6045H25.3611H19.9922L20.0236 52.2782L20.055 52.9009L20.0864 53.5031L20.1073 54.0849L20.1387 54.6566L20.1597 55.1976L20.1806 55.7181L20.2015 56.2285L20.2225 56.7287L20.2434 57.2084V57.678L20.2748 58.1271V58.566L20.2957 59.0049V59.4234L20.3167 59.8419V60.2298L20.3376 60.6279V61.3833L20.3481 61.7507V62.108L20.3585 62.4448V63.486L20.369 63.8024V65.7623L20.3481 66.3237L20.2957 66.783L20.2015 67.1403L20.0864 67.4363L19.9713 67.6404L19.8457 67.7935L19.6992 67.916L19.5736 68.0079L19.4271 68.0691L19.2806 68.11L19.1026 68.1406H18.9352L18.7468 68.161H18.5794L18.4014 68.1712L18.2026 68.1916L17.6375 68.2529V71.6009L18.2549 71.6418H18.9247L19.5841 71.6213L20.2329 71.5295L20.8923 71.3866L21.5202 71.1824L22.1272 70.917L22.7133 70.6006L23.2575 70.2229L23.7703 69.784L24.2413 69.3042L24.6704 68.7428L25.0367 68.1304L25.3611 67.4771L25.5914 66.7524L25.7902 65.997L25.8216 65.7623H26.1356L26.2926 65.3438L27.4228 62.4244H30.3951L31.5882 65.3642L31.7556 65.7725H37.9827V60.6892L42.462 65.5581L42.6609 65.7725H42.9644L45.8006 65.7214V70.3352L46.1564 70.5189L46.4704 70.6618L46.7843 70.8047L47.1088 70.9578L47.4541 71.1008L47.7786 71.2334L48.1135 71.3661L48.4588 71.4886L48.8042 71.6009L49.1496 71.703L49.4949 71.8051L49.8403 71.8867L50.1857 71.948L50.531 71.999L50.8555 72.0296H51.1904L51.5148 72.0398H51.6823L51.8288 72.0194H52.0381L52.216 71.9786L52.373 71.9582L52.5404 71.9378L52.7288 71.9174L52.9067 71.8867L53.0847 71.8561L53.2521 71.8255L53.4405 71.7949L53.6184 71.7438L53.7859 71.7132L53.9533 71.6724L54.1208 71.6418L54.3091 71.6009H54.3301L54.351 71.5907L54.8847 71.3866L55.3976 71.1416L55.8895 70.8762L56.3604 70.57L56.7895 70.2433L57.2081 69.8861L57.5744 69.5084L57.9303 69.1001L58.2338 68.6612L58.5163 68.212L58.7675 67.7425L58.9768 67.2628L59.1443 66.7728L59.2803 66.2624L59.3641 65.8031L61.3735 65.7623L62.127 65.7418L62.0119 65.0273L61.97 64.7211L61.9281 64.4149L61.8863 64.1189L61.8444 63.8126L61.8026 63.5064L61.7712 63.2206L61.7398 62.9246L61.6979 62.6286L61.6665 62.3428L61.6351 62.0468L61.6037 61.7814L61.5828 61.516L61.5618 61.2608V61.1995H61.8653H62.2002L62.5456 61.1689L62.9014 61.1383L63.2573 61.0873L63.6026 61.026L63.9689 60.9239L64.3352 60.8014L64.6806 60.6687L65.0364 60.5054L65.3295 60.3319V60.4034L65.4027 60.5973L65.4446 60.7606L65.4969 60.975L65.5807 61.1791L65.6434 61.3424L65.7062 61.516L65.79 61.7201L65.8842 61.9039L65.9784 62.0876L66.1772 62.4755L66.4074 62.8225L66.6377 63.1594L66.8993 63.486L67.1819 63.8024L67.4854 64.1087L67.7994 64.3945L68.1343 64.6599L68.4692 64.9048L68.825 65.1498L69.1913 65.354L69.589 65.5479L69.9762 65.701L70.3844 65.8439L70.8135 65.9664L71.2426 66.0583L71.431 66.0889L71.6089 66.1195L71.7973 66.1501L71.9856 66.1808L72.195 66.2012L72.3729 66.2216L72.5613 66.2522L72.7601 66.2726H72.9694L73.1787 66.293H73.8276L74.0474 66.2522L74.2462 66.2216L74.466 66.191L74.8951 66.0889L75.2928 65.9664L75.6905 65.8541L76.0777 65.7112L76.4545 65.5683L76.8208 65.4152L77.208 65.2315L77.5534 65.0375L77.8987 64.8334L78.2232 64.5986L78.5371 64.3536L78.8302 64.1189L79.1232 63.8331L79.3953 63.537L79.6256 63.241L79.6779 63.1696L79.6465 63.5064L79.6046 63.9147L79.5732 64.323L79.5314 64.7109L79.4895 65.109L79.4267 65.8235H85.0677V65.16L84.984 62.6694L86.7318 65.5071L86.9306 65.8235H96.7788L96.7369 65.1396L96.5381 62.5571L96.4962 55.4017H96.6951L96.8939 55.3813H97.0823L97.2707 55.3711H97.6893H97.8777H98.3068L98.4952 55.3813L98.6836 55.4017H98.8929L99.1022 55.4323L99.8452 55.4936V54.7791L99.8348 54.6157L100.075 54.5647ZM51.4311 55.3609V55.2792L51.452 55.1567L51.4834 55.0036L51.5043 54.9322L51.5357 54.8607V54.8403H51.5567V54.8199L51.6299 54.7893L51.6927 54.7484L51.7869 54.7178L51.8811 54.677L51.9648 54.6566L52.0904 54.6259L52.216 54.6055L52.3521 54.5851L52.4672 54.5647H52.8021L52.8753 54.5545H52.9486L53.2312 54.6055L53.4928 54.6566L53.7126 54.7382L53.9324 54.8607L54.1731 55.0138L54.3719 55.1771L54.5917 55.3711L54.801 55.5752L54.9894 55.81L55.1883 56.0652L55.3871 56.3306L55.565 56.5756L55.7429 56.8512L55.9418 57.137L56.1092 57.4126L56.2976 57.6882L56.7895 58.4231V60.5871L56.7686 60.5667L56.3185 60.2094L55.8581 59.8522L55.408 59.4847L54.9266 59.1172L54.4661 58.7395L54.0056 58.3415L53.5556 57.974L53.116 57.5657L52.6974 57.1472L52.3207 56.7287L51.9858 56.2898L51.6718 55.8406L51.3997 55.4119V55.3711L51.4311 55.3609ZM38.035 58.5558L36.8838 57.3207V64.4557H32.8755L31.6824 61.516L31.5254 61.1077H26.7426L26.5856 61.5262L25.4553 64.4557H24.8902L24.8274 65.0375L24.7227 65.7521L24.5657 66.3951L24.3564 66.9872L24.0948 67.5281L23.7913 68.0079L23.4564 68.457L23.0796 68.8449L22.6714 69.192L22.2319 69.488L21.7609 69.7432L21.269 69.9575L20.7562 70.1208L20.2329 70.2433L19.6992 70.3046L19.1864 70.3352V69.4063H19.291L19.5527 69.3655L19.8457 69.3145L20.1492 69.2226L20.4736 69.0695L20.7772 68.8755L21.0597 68.6203L21.3214 68.2937L21.5516 67.916L21.7086 67.4669L21.8446 66.9565L21.9179 66.3645L21.9388 65.7214V63.0777L21.9284 62.7511V61.6793L21.9179 61.3118V60.9444L21.9074 60.5565V60.1584L21.8865 59.7705V59.352L21.8656 58.9335V58.4946L21.8446 58.0352L21.8237 57.5861V57.1166L21.7923 56.6164L21.7714 56.1162L21.7505 55.6059L21.7295 55.0853L21.7086 54.5443L21.6772 53.9727L21.6563 53.3908L21.6249 52.8498H24.932L24.796 59.5561L24.8169 62.8736L26.0728 59.8011L28.7415 52.8498H31.18L34.3616 60.8219L35.6384 63.8841V60.5871L35.6175 52.8396H37.6478L43.0585 58.7089L44.2098 59.9542V52.8396H45.7796V64.3945L43.5086 64.4353L38.0874 58.5354L38.035 58.5558ZM46.7425 65.6908H47.046V60.0461L47.0669 60.0665L47.2971 60.3319L47.5274 60.5871L47.7576 60.8423L48.0297 61.0873L48.2809 61.3016L48.5321 61.5058L48.7937 61.7099L49.0763 61.9243L49.3484 62.108L49.6205 62.3019L49.8926 62.4959L50.1647 62.6796L50.4264 62.8633L50.6985 63.0471L50.9392 63.2206L51.2008 63.4146L51.4625 63.5983L51.7032 63.782L51.923 63.9658L52.1637 64.1597L52.3835 64.3536L52.5928 64.5578L52.8021 64.7619L52.9905 64.9763L53.1474 65.1396L53.2102 65.2519L53.273 65.3744L53.3254 65.4867L53.3882 65.6194L53.4405 65.7725L53.4823 65.9154L53.5347 66.0481L53.5661 66.1706L53.587 66.3033V66.436L53.6079 66.538V66.732L53.5765 66.8851L53.5556 66.9565L53.5242 67.0484L53.4928 67.0994L53.43 67.2117L53.3777 67.2832L53.3044 67.375L53.1998 67.4771L53.1056 67.569L53.0323 67.6302L52.9172 67.7017L52.8125 67.7629L52.7079 67.814L52.5823 67.865L52.4567 67.916L52.3102 67.9671L52.1846 68.0079L52.0799 68.0385L51.9439 68.0691H51.9648L51.6509 68.0998H51.316H50.9915L50.6671 68.0589L50.3322 67.9977L50.0077 67.8956L49.6833 67.7731L49.3484 67.6302L49.0344 67.4873L48.7205 67.3138L48.4274 67.1301L48.1449 66.9361L47.8518 66.7218L47.5902 66.5176L47.3599 66.3033L47.1402 66.0889L46.732 65.6704L46.7425 65.6908ZM78.6209 62.7L78.422 62.9246L78.2022 63.1185L77.9511 63.3329L77.6999 63.5268L77.4173 63.7106L77.1347 63.8739L76.8312 64.0474L76.5277 64.1903L76.2033 64.3434L75.8684 64.4659L75.523 64.5884L75.1567 64.7007L74.8009 64.8028L74.4451 64.8742L74.2672 64.9048L74.0892 64.9355H73.9323L73.7962 64.9559H73.2729L73.1264 64.9355L72.9485 64.915H72.7601L72.5822 64.8844L72.4147 64.864L72.2473 64.8334L72.0589 64.8028L71.881 64.7721L71.6926 64.7415L71.3577 64.6803L71.0228 64.5782L70.6879 64.4557L70.3635 64.323L70.06 64.1699L69.7565 64.0066L69.4634 63.8126L69.1704 63.6085L68.8983 63.3941L68.6262 63.1492L68.3855 62.9042L68.1552 62.6286L67.925 62.3428L67.7366 62.0672L67.5482 61.7609L67.3912 61.4649L67.3075 61.3016L67.2447 61.1383L67.1819 60.9954L67.1086 60.8219L67.0458 60.6585L66.9935 60.5156L66.9621 60.3829L66.9203 60.2196L66.8889 60.0665L66.8575 59.9032L66.8261 59.7501V59.6072L66.8051 59.4643V59.3112L66.7947 59.158V58.9947L66.8993 57.2186L65.6539 58.5252L65.4027 58.76L65.183 58.9641L64.9213 59.1376L64.6597 59.2805L64.4085 59.403L64.1259 59.5153L63.8434 59.6174L63.5608 59.6684L63.2573 59.7297L62.9642 59.7603L62.6503 59.7909L62.3468 59.8113H62.0328L61.7084 59.8317H61.3944L61.0909 59.8419H60.4315V60.9852L60.4525 61.271L60.4734 61.5466L60.4943 61.8324L60.5257 62.1182L60.5571 62.3938L60.5885 62.7L60.6304 62.996L60.6618 63.2921L60.7141 63.5983L60.756 63.9045L60.7978 64.2107L60.8292 64.4047L58.9873 64.4455H58.3803L58.3384 65.0477L58.2966 65.4867L58.2128 65.9052L58.0977 66.3339L57.9512 66.7422L57.7837 67.1301L57.5849 67.5077L57.3546 67.8956L57.093 68.2427L56.8 68.5795L56.4965 68.8959L56.1511 69.192L55.7953 69.4574L55.4185 69.7227L55.0103 69.9371L54.5812 70.131L54.1312 70.2944H54.1731L54.0266 70.325L53.8591 70.3556L53.6917 70.3964L53.5242 70.4271L53.3672 70.4577L53.1998 70.4883L53.0323 70.5189L52.8544 70.5496L52.6974 70.5802L52.5509 70.6006L52.3835 70.621L52.2055 70.6414H52.0695L51.9439 70.6618H51.7974L51.6509 70.6822H51.1485L50.8659 70.6414L50.5834 70.6108L50.2799 70.5496L49.9763 70.4985L49.6728 70.4169L49.3693 70.3148L49.0449 70.2025L48.7414 70.1004L48.4274 69.9677L48.103 69.835L47.7995 69.7125L47.496 69.5798L47.2762 69.4676V67.9364L47.2971 67.9569L47.6425 68.1916L47.9983 68.3958L48.3751 68.6101L48.7519 68.7939L49.1286 68.9572L49.5473 69.1001L49.9659 69.2226L50.3845 69.3042L50.8241 69.3655H51.2636H51.7137L52.1637 69.3042H52.1846L52.3416 69.2634L52.5509 69.2124L52.7184 69.1511L52.8858 69.1001L53.0533 69.0286L53.2207 68.9572L53.4091 68.8551L53.5765 68.7428L53.7335 68.6306L53.901 68.4979L54.058 68.3652L54.1835 68.2223L54.3301 68.0691L54.4557 67.9058L54.5708 67.7323L54.6754 67.5384H54.6859L54.6964 67.5077L54.7696 67.2934L54.8115 67.0892L54.8324 66.9157L54.8638 66.7013V66.2726L54.822 66.0787L54.7801 65.8848L54.7278 65.6806L54.6754 65.4867L54.6126 65.3233L54.5289 65.1498L54.4661 64.9763L54.3615 64.7823L54.2777 64.619L54.1731 64.4659L54.1521 64.4353L54.1312 64.4149L53.9219 64.1393L53.6917 63.8943L53.4614 63.6391L53.1998 63.4146L52.9486 63.2002L52.7184 62.9858L52.4462 62.7817L52.1741 62.5775L51.9125 62.3938L51.6509 62.1999L51.3683 62.0059L51.0962 61.8222L50.8345 61.6385L50.5624 61.4547L50.3113 61.2812L50.0391 61.0873L49.788 60.9035L49.5577 60.73L49.3275 60.5258L49.0868 60.3217L48.8356 60.1278L48.6367 59.9338L48.4274 59.7297L48.2181 59.5051L48.0297 59.2907L47.8518 59.0458L47.6739 58.8008L47.496 58.5354L47.3495 58.2802L47.203 58.0046L47.0669 57.7086L46.9518 57.4024L46.4076 55.9223L46.9099 55.0342L47.1925 54.5239V54.5035L47.2134 54.483L47.3181 54.2891L47.4437 54.1054L47.5902 53.9318L47.7472 53.7685L47.9251 53.6052L48.1135 53.4623L48.3123 53.3398L48.5426 53.2071L48.7937 53.0846L49.0449 52.9621L49.2961 52.8907L49.5787 52.7886L49.8717 52.6865L50.1333 52.6253L50.4264 52.5742L50.6776 52.5232L50.9915 52.4926L51.3369 52.4722H52.0799L52.4462 52.513L52.8125 52.5538L53.1788 52.6151L53.5451 52.6865L53.9114 52.7988L54.2673 52.9213L54.6022 53.054L54.9371 53.2275L55.251 53.4011L55.5336 53.595L55.8162 53.8093L55.8999 53.891L55.9732 55.0342L55.9522 55.0036L55.7011 54.7076L55.4394 54.4524L55.1673 54.187L54.8534 53.9625L54.5498 53.7685L54.194 53.5848L53.7963 53.4317L53.4091 53.3296L52.9905 53.2684H52.8544L52.687 53.2581H52.5614L52.4253 53.2684L52.216 53.2888L52.059 53.3092L51.902 53.3296L51.7346 53.3704L51.5671 53.4011L51.3683 53.4623L51.1904 53.5337L51.0334 53.6052L50.8764 53.6971L50.7299 53.7991L50.5624 53.9318L50.4368 54.0849L50.3217 54.2789L50.2171 54.4728L50.1543 54.7076L50.1019 54.9015L50.0601 55.1567V55.4323L50.1019 55.6977L50.2066 55.9835L50.2171 56.0039L50.531 56.5347L50.8869 57.0451L51.2846 57.5453L51.7137 58.0046L52.1741 58.4639L52.6346 58.8927L53.1056 59.3112L53.587 59.7092L54.0684 60.0869L54.5289 60.4544L54.9999 60.8219L55.4394 61.1791L55.8685 61.5364L56.2662 61.863L56.622 62.1999L56.9256 62.5367L58.0872 63.8126V52.8601H58.5059L58.778 52.8498H59.0605L59.3431 52.8294H59.6152L59.8873 52.8192H60.1804L60.4525 52.7988H61.5409L61.813 52.8192H62.0642L62.3258 52.8498L62.5875 52.8703L62.8491 52.9009L63.1003 52.9213L63.3515 52.9723L63.6026 53.0132L63.8224 53.0642L64.0422 53.1357L64.2829 53.2071L64.5027 53.2786L64.7015 53.3602L64.9004 53.4623L65.0992 53.5644L65.2981 53.6869L65.476 53.8196L65.5493 53.8706L65.6539 54.0033L65.79 54.1666L65.9156 54.3503L66.0516 54.5851L66.1667 54.8199L66.3028 55.0649L66.4284 55.2996L66.8993 56.2591L67.5482 55.4119L67.8203 55.0955L68.0924 54.7995L68.3959 54.5137L68.7204 54.2585L69.0657 54.0033L69.4111 53.7685L69.7669 53.5746L70.1437 53.4011L70.5414 53.2377L70.9391 53.0846L71.3368 52.9621L71.7659 52.8601L72.195 52.7886L72.6345 52.7376L73.0531 52.6967H73.4927H73.9323L74.3718 52.7274L74.8009 52.7682L75.1986 52.8498L75.5963 52.9519L76.0045 53.0744L76.3812 53.2071L76.758 53.3806L77.1243 53.5644L77.4801 53.7685L77.8046 54.0135L78.1185 54.2687L78.422 54.5443L78.7046 54.8505L78.9558 55.1669L79.186 55.4936L79.2907 55.7079L79.4058 55.9019L79.4895 56.0958L79.5628 56.2898L79.636 56.5041L79.6988 56.6981L79.7512 56.9124L79.814 57.1268L79.8454 57.3105L79.8872 57.5249L79.9081 57.7392L79.9291 57.9536L79.95 58.1679V58.3619L79.9605 58.5762V58.7906L79.9395 58.9845V59.2193L79.9081 59.4234L79.8768 59.6684L79.8454 59.8726L79.8035 60.0767L79.7512 60.2911L79.6988 60.5054L79.636 60.7198L79.5628 60.9239L79.4895 61.1281L79.4058 61.3424L79.3116 61.5568L79.2174 61.7609L79.1023 61.9651L79.0186 62.1488L78.8511 62.3836L78.6627 62.6388L78.6209 62.7ZM85.7166 60.9239L85.6747 60.8321L85.6119 60.7096L85.5177 60.5871L85.4236 60.4952L85.3503 60.4136L85.2038 60.3013L85.1201 60.2707L85.0363 60.2094L84.5026 60.138L85.0259 60.189L84.7642 60.0461L84.4816 60.138L84.3142 60.189L83.8432 60.8219L83.9584 64.4761H81.1326V64.374L81.1745 63.9658L81.2164 63.5575L81.2478 63.1594L81.2792 62.7511L81.3106 62.3428L81.3419 61.9345L81.3629 61.516L81.3838 61.1179L81.4047 60.7096L81.4257 60.3115L81.4466 59.9032V59.4745L81.4675 59.0458V58.2394V57.8311V57.4228V57.0145V56.5756L81.4361 56.1673V55.7488L81.3943 55.3303L81.3733 54.922L81.3419 54.5035L81.3106 54.0952L81.2687 53.6767L81.2268 53.2479L81.164 52.8294V52.7376H81.2582H81.5408L81.8443 52.7172L82.1373 52.6967L82.4094 52.6763H82.692L82.9851 52.6457L83.2572 52.6253H83.5397L83.8223 52.5947H84.0735L84.3561 52.5845H84.6386L84.8898 52.5742H85.1619L85.434 52.5947H85.6852L85.9364 52.6355L86.198 52.6559L86.4283 52.6967L86.6899 52.7478L86.9411 52.7886L87.1504 52.8498L87.412 52.9417L87.6527 53.0234L87.8621 53.105L88.0923 53.2275L88.3016 53.35L88.5319 53.4929L88.7516 53.6358L89.6098 54.2176L89.7145 54.9015L89.7459 55.0751L89.7773 55.2486L89.8087 55.4017L89.8401 55.565L89.8715 55.6977L89.8924 55.861L89.9238 56.0039V56.1162L91.2425 56.0244L89.9238 56.1264V56.1571L89.9343 56.1877L89.9657 56.4327V56.6674V56.892L89.9238 57.0859L89.861 57.2901L89.7877 57.484L89.6831 57.678L89.568 57.8719L89.4319 58.0352L89.2645 58.219L89.1075 58.4027L88.9296 58.5558L88.7412 58.7293L88.5423 58.8927L88.3539 59.0254L88.1446 59.1683L87.6109 59.5153L87.9562 60.0461L90.8134 64.3945H87.9562L85.7271 60.7606L85.7585 60.8321L85.7166 60.9239ZM91.6402 55.5446V55.861L91.6506 56.1571V56.7899L91.6611 57.1064V57.4228V57.729V58.0454L91.6716 58.3619V58.6681L91.682 58.9743V60.2094L91.6611 60.5361V60.8423L91.6402 61.1485V61.4649L91.6088 61.7609L91.5878 62.0774L91.5669 62.3836L91.5355 62.6898L91.5041 63.0063L91.4832 63.19L89.3587 59.9746L89.547 59.8317L89.7773 59.6378L89.9971 59.4234L90.2168 59.1887L90.4052 58.9641L90.6041 58.6885L90.782 58.4027L90.9285 58.1169L91.0541 57.8107L91.1483 57.4942L91.2111 57.1472L91.2425 56.7899V56.4327L91.1901 56.1264L91.1692 55.9121L91.1378 55.7488L91.1169 55.5854V55.5548H91.6192L91.6402 55.5446ZM98.3487 54.0237H97.9196H97.6998H97.0614L96.8625 54.0441H96.6637L96.4544 54.0645H96.2555L96.0462 54.0849L95.4183 54.1258V54.728L95.4601 62.5367V62.5775L95.6066 64.4761H92.6239V64.4149L92.6867 64.0882L92.7286 63.7718L92.7809 63.4452L92.8123 63.1185L92.8437 62.8021L92.8751 62.4755L92.896 62.1488L92.917 61.8324L92.9379 61.516V61.1995L92.9693 60.8729V60.24L92.9902 59.9134V58.3312L92.9798 58.0148V57.6984L92.9693 57.3922V57.0757L92.9588 56.7593V56.4531L92.9484 56.1469V55.514L92.9379 55.218V54.2687H92.289L90.311 54.2279H89.7459L89.7249 53.1765V52.8498H98.6626V53.35L98.6731 53.5031V53.6562L98.6836 53.8196V53.9829L98.694 54.0237H98.3173H98.3487Z" fill="white"/>
<path d="M83.843 60.3421L83.8535 60.8423L84.314 60.1992L83.843 60.3421Z" fill="white"/>
<path d="M87.1189 55.5447L87.0666 55.3508L87.0143 55.1262L86.9201 54.9017L86.8154 54.7077L86.7003 54.5138L86.5328 54.2994L86.3549 54.1157H86.3445L86.0305 53.9115L85.706 53.7992L85.413 53.7482L85.1409 53.7074L84.9002 53.687H84.6804L84.5234 53.6768H83.8118V58.6886H84.7641L84.9211 58.6784L85.12 58.6478L85.277 58.6274L85.4339 58.607L85.5909 58.5661L85.7898 58.5253L85.9782 58.4436L86.1038 58.3824L86.2817 58.2905L86.47 58.1476L86.6061 58.0149L86.7422 57.8618L86.8677 57.6577L86.9515 57.4535L87.0038 57.2698L87.0666 57.0758L87.098 56.9023L87.1294 56.6982L87.1608 56.494V56.2694L87.1712 56.0653V55.8407L87.1294 55.6162L87.1189 55.5447ZM85.6747 57.086L85.6537 57.1065L85.6119 57.1473H85.6014L85.5595 57.1779L85.4339 57.2187L85.3816 57.2494L85.3188 57.2698L85.1828 57.2902H85.1514V54.9731H85.2246L85.3816 55.0139L85.4549 55.0343L85.5386 55.1058L85.5909 55.1875L85.6537 55.2997L85.706 55.412L85.7479 55.5141L85.7793 55.6366L85.8107 55.7897V55.9122L85.8316 56.0347V56.3205L85.8107 56.4634L85.7793 56.6267L85.7479 56.7798L85.7165 56.9329L85.6851 57.0656H85.6747L85.6642 57.1065H85.6747V57.086Z" fill="white"/>
<path d="M63.6966 55.3609L63.6339 55.116L63.5397 54.8914L63.4245 54.6872L63.2885 54.4831L63.142 54.2892L62.9536 54.1054L62.6396 53.9013L62.3256 53.789L62.0326 53.7277L61.7396 53.6869H61.4779L61.2791 53.6665H60.4209V58.6784H61.3733L61.5303 58.6681L61.7186 58.6375H61.8756L62.0431 58.5967L62.2001 58.5661L62.378 58.515L62.5559 58.464L62.7338 58.3721L62.9013 58.2701L63.0687 58.1476L63.2152 58.0149L63.3513 57.8516L63.4769 57.6678L63.5501 57.4637L63.6025 57.2595L63.6548 57.0656L63.6862 56.8921L63.7176 56.6879L63.749 56.4429V55.8101L63.7071 55.5855L63.6757 55.4018L63.6966 55.3609ZM62.3152 57.0452V57.0758L62.2942 57.086L62.2733 57.1166L62.2419 57.137L62.2105 57.1677L62.1582 57.1983L62.0954 57.2187L62.0012 57.2493L61.907 57.2799H61.7919L61.7605 57.3004V54.9628H61.8233L61.9803 55.0139L62.0745 55.0343L62.1477 55.1058L62.2315 55.218L62.2942 55.3201L62.3361 55.4222L62.378 55.5243L62.3989 55.6365L62.4303 55.7999L62.4512 55.9223V56.4736L62.4094 56.6369L62.378 56.79L62.3466 56.9431L62.3152 57.0656V57.0452Z" fill="white"/>
<path d="M29.7148 56.545L29.0869 54.9526L28.4799 56.5552L27.4228 59.3623L27.0984 60.2197H31.1381L30.8032 59.352L29.7148 56.545ZM29.2334 58.9437H28.9822L29.1078 58.6171L29.2334 58.9437Z" fill="white"/>
<path d="M77.1137 57.7801L77.0823 57.3616L77.0195 56.9329L76.9358 56.5042L76.8416 56.1265V56.1061L76.7055 55.6876L76.5067 55.2997L76.2869 54.9628L76.0043 54.6362L75.6904 54.3606L75.3764 54.136L75.0101 53.9319L74.6333 53.7686L74.2356 53.6665L73.817 53.5746L73.3879 53.5542L72.9693 53.5746L72.5402 53.6461L72.1216 53.7583L71.7239 53.9217L71.3262 54.1564L70.8761 54.4729L70.5099 54.8301L70.1854 55.2384L69.9238 55.6671L69.7145 56.1265L69.5575 56.5858L69.4319 57.0451L69.3482 57.5249L69.2958 58.0046L69.2749 58.4946V58.9641L69.3063 59.4337L69.3482 59.9032L69.411 60.3524L69.4842 60.7811L69.5679 61.1894L69.6307 61.4446L69.704 61.6691L69.8086 61.9345L69.9342 62.1795L70.0598 62.4143L70.1959 62.6184L70.3633 62.843L70.5308 63.0573L70.7087 63.2309L70.9075 63.4248L71.1169 63.6085L71.3366 63.7616L71.5669 63.8943L71.8285 64.0168L72.1006 64.1087L72.3832 64.1801H72.3727L72.6134 64.221H72.8646L73.0949 64.2414H73.3565L73.6077 64.2006L73.8589 64.1597L74.11 64.1087L74.3403 64.027L74.5915 63.9556L74.8217 63.8433L75.031 63.731L75.2613 63.5983L75.4601 63.4554L75.6694 63.2615L75.8264 63.088L75.9834 62.894L76.2136 62.4959L76.4125 62.0876L76.5799 61.6793L76.7265 61.2608L76.852 60.8219L76.9462 60.3932L77.009 59.9543L77.0614 59.5153L77.0823 59.0764V58.6375V58.1884L77.0509 57.7597L77.1137 57.7801ZM74.8531 62.2816L74.7694 62.3938L74.6856 62.4551L74.5705 62.5265L74.4449 62.6184L74.2984 62.6797L74.131 62.7409L73.974 62.7919L73.8065 62.843L73.6286 62.8736L73.4507 62.9144H73.2832L73.1367 62.9348H72.9693L72.8123 62.9144L72.6762 62.894L72.5297 62.8634L72.3937 62.8226L72.2472 62.7511L72.1006 62.6592L71.9646 62.5674L71.839 62.4653L71.7029 62.3326L71.5669 62.1795L71.4413 62.0468L71.3366 61.8835L71.2215 61.7202L71.1169 61.5466L71.0331 61.3935L70.9808 61.2404L70.9285 61.0567L70.8866 60.8933L70.8029 60.5157L70.7192 60.138L70.6773 59.7297L70.6354 59.3214L70.6145 58.8927V58.464L70.625 58.0557L70.6564 57.6576L70.7401 57.2595L70.8134 56.892L70.9494 56.545L71.0959 56.2183L71.2843 55.9223L71.4936 55.6467L71.7553 55.4222L72.0483 55.1874L72.2995 55.0445L72.5716 54.9424L72.8332 54.8505L73.1053 54.8199L73.3879 54.7995L73.66 54.8199L73.9112 54.8608L74.1728 54.9424L74.424 55.0445L74.6333 55.167L74.8531 55.3303L75.0519 55.4936L75.1985 55.6876L75.3555 55.9223L75.4706 56.1367L75.5648 56.4021V56.3817L75.6276 56.7389L75.7113 57.0962L75.7531 57.4534L75.7845 57.8413L75.8159 58.219V58.5967V58.9641L75.795 59.352L75.7636 59.7195L75.7008 60.1074L75.638 60.4646L75.5334 60.8117L75.4078 61.1485L75.2613 61.4854L75.1043 61.8018L74.9159 62.108L74.8531 62.1999V62.2816Z" fill="white"/>
<mask id="mask0_16275_5171" style="mask-type:luminance" maskUnits="userSpaceOnUse" x="15" y="44" width="89" height="31">
<path d="M104 44H15V75H104V44Z" fill="white"/>
</mask>
<g mask="url(#mask0_16275_5171)">
<path d="M99.416 54.7383C99.3951 53.9115 99.3009 53.0949 99.3846 52.217H89.0655L89.0864 53.1969C87.9561 52.411 86.7421 52.1149 85.4967 52.0435C83.8745 51.9312 82.1895 52.2068 80.5046 52.2068C80.4732 52.217 80.4418 52.217 80.3999 52.2068C80.4313 52.462 80.4627 52.707 80.5046 52.952C81.0278 56.6777 80.8709 60.4034 80.5046 64.0781C80.4732 64.4251 80.4418 64.7926 80.3999 65.1396H84.6385L84.5024 60.8219L84.6804 60.7709C84.9106 60.9138 85.0153 60.9954 85.099 61.1996L85.4757 61.8426L87.527 65.1498H96.2972L96.0984 62.5674L96.0565 54.7587C97.1764 54.6974 98.2125 54.6362 99.4055 54.7587M86.313 57.2391C86.1979 57.5861 85.8944 57.7801 85.4967 57.8924C85.1722 57.9944 84.7955 58.0148 84.4815 58.0148V54.2891C84.4815 54.2891 85.0676 54.2891 85.4967 54.4014C85.6641 54.432 85.8106 54.4831 85.9048 54.5647C86.6479 55.2588 86.5851 56.3715 86.313 57.2391ZM91.8598 64.9559L90.4155 62.7817L88.4689 59.8012C89.2538 59.2908 90.0702 58.5763 90.4155 57.6576C90.5935 57.2085 90.6458 56.7083 90.5516 56.1469C90.5307 55.9121 90.4783 55.6569 90.4155 55.412C90.3841 55.2384 90.3318 55.0547 90.3109 54.871H90.4155L92.2994 54.9016C92.2994 58.219 92.5819 61.5772 91.8598 64.9457" fill="#A15643"/>
<path d="M80.5046 57.4636C80.379 56.6878 80.1278 55.9223 79.7301 55.1771C78.3382 52.9723 75.795 51.972 73.231 52.0537C70.8239 52.1353 68.4168 53.1561 66.9934 55.024C66.6795 54.381 66.2504 53.595 65.8527 53.299C64.7852 52.5436 63.4665 52.2578 62.106 52.1864C60.5466 52.0843 58.9139 52.2374 57.4487 52.2068V62.0978C55.7324 60.1788 52.2892 58.4027 50.824 55.6569C50.6461 55.3507 50.8449 54.6464 51.0019 54.4524C51.3473 53.9727 52.4566 53.84 52.9799 53.8808C54.8847 54.0441 55.8894 55.8815 56.8417 57.3003L56.5906 53.5746C55.1254 52.0128 52.5089 51.6045 50.6251 51.8291C49.0134 52.1455 47.3075 52.758 46.6482 54.1768L46.3656 54.6872V52.1864H43.4771V58.27L37.857 52.1966H34.8743L34.8952 60.5769L31.5462 52.1864H28.1972L25.3715 59.5459L25.518 52.1864H20.8398C21.2061 58.8927 21.2061 62.2203 21.2061 65.6908C21.2061 69.1613 19.1235 68.6714 18.4746 68.753V70.9374C21.7608 71.1518 25.0052 69.2634 25.4343 65.0682H25.8634L27.1506 61.7303H31.0334L32.3835 65.0682H37.5117V58.9437L43.1422 65.0682L46.3551 65.0171V57.5759C47.6947 61.2097 51.5147 62.1692 53.6392 64.7823C54.1102 65.5275 54.4346 66.4972 54.1102 67.273C53.7334 68.0589 52.8648 68.5183 52.0799 68.6918C50.0391 69.0695 47.8936 67.7935 46.6482 66.5074V69.8759C48.218 70.6516 50.196 71.3764 51.6926 71.3151C52.488 71.2845 53.4823 71.0905 54.3509 70.866C57.0301 69.9677 58.8093 67.6404 58.9977 65.0579L61.5827 65.0069C61.342 63.3941 61.0699 61.7201 61.0699 60.4748C61.3943 60.4748 61.7397 60.4748 62.085 60.4646C63.4874 60.4136 64.9317 60.1788 66.0934 58.9335C66.041 59.9032 66.2922 60.781 66.7736 61.7201C67.7051 63.5268 69.4947 64.9763 71.546 65.3336C72.0902 65.4356 72.6449 65.5377 73.1996 65.5785C73.6496 65.5989 74.0787 65.5785 74.5496 65.4765C76.6428 65.0273 78.5161 64.0678 79.5208 62.5061C80.0022 61.5976 80.3267 60.6483 80.4732 59.6888C80.5988 58.9335 80.5988 58.1679 80.4732 57.4228M29.1077 59.5868H28.0298L29.0973 56.7797V56.841L30.1857 59.5766H29.1077V59.5868ZM62.9432 57.2391C62.8176 57.5861 62.4932 57.8005 62.1164 57.8923C61.792 57.9842 61.4152 58.0148 61.1013 58.0148V54.2891C61.1013 54.2891 61.6769 54.2789 62.1164 54.3912C62.2839 54.432 62.4304 54.4932 62.5141 54.5647C63.2781 55.2588 63.2049 56.3714 62.9432 57.2391ZM75.4811 62.5367C75.0625 63.1696 74.1101 63.5472 73.231 63.5983C72.9902 63.6085 72.76 63.5983 72.5507 63.5472C71.4204 63.3431 70.4994 62.1386 70.2587 61.0464C69.7982 59.0151 69.6308 56.0244 71.7134 54.6974C72.1844 54.3912 72.7181 54.2381 73.231 54.2176C74.5601 54.1666 75.8474 54.9526 76.2032 56.2796C76.6742 58.2496 76.6637 60.7402 75.4811 62.5469" fill="#A15643"/>
<path d="M99.6987 62.0161C97.0509 62.0059 97.1032 65.9256 99.6987 65.9256C102.294 65.9154 102.315 62.0365 99.6987 62.0161ZM99.6987 65.4458C97.7312 65.4458 97.6998 62.4857 99.6987 62.4857C101.677 62.5061 101.656 65.4356 99.6987 65.4458Z" fill="white"/>
<path d="M100.379 63.241C100.264 63.0675 100.002 63.0164 99.7092 62.996C99.4371 62.9858 99.144 63.0062 98.9766 63.0062V64.9252H99.3429V64.129C99.4894 64.129 99.615 64.1801 99.6987 64.2515C99.908 64.4149 100.034 64.7007 100.18 64.9252H100.609C100.431 64.6292 100.253 64.323 100.002 64.0882C100.389 64.0168 100.588 63.5881 100.368 63.241M99.6987 63.8126C99.5836 63.8228 99.4475 63.8126 99.3429 63.8126V63.3329C99.4057 63.3329 99.5522 63.3329 99.6987 63.3431C99.8661 63.3431 100.023 63.3737 100.044 63.4043C100.117 63.7208 99.9394 63.8024 99.6987 63.8126Z" fill="white"/>
</g>
</g>
<defs>
<clipPath id="clip0_16275_5171">
<rect width="89" height="31" fill="white" transform="translate(15 44)"/>
</clipPath>
</defs>
</svg>
