<svg width="120" height="120" viewBox="0 0 120 120" fill="none" xmlns="http://www.w3.org/2000/svg">
<rect width="120" height="120" rx="60" fill="white"/>
<rect x="0.5" y="0.5" width="119" height="119" rx="59.5" stroke="#1B497E" stroke-opacity="0.1"/>
<g clip-path="url(#clip0_16275_5152)">
<path d="M22.286 50.7927C21.8346 50.8236 21.3832 50.8338 20.9318 50.8338C20.2547 50.8338 19.5884 50.803 18.922 50.7412L13 59.8192C13.2579 60.9823 13.6879 62.0836 14.2467 63.1128L22.286 50.7927Z" fill="#DB2E28"/>
<path d="M27.6601 56.2478C27.4774 54.7657 27.6601 53.2732 28.1652 51.894L27.6493 51.1118L17.3638 66.88C18.0839 67.4769 18.8684 68.0019 19.7068 68.4341L27.6601 56.2375V56.2478Z" fill="#DB2E28"/>
<path d="M14.1824 56.299L17.8796 50.6278C16.8693 50.4837 15.8805 50.2779 14.924 50L13.688 51.8938C14.2039 53.2936 14.3758 54.7963 14.1824 56.299Z" fill="#005589"/>
<path d="M27.0903 50.2573L26.9184 50C25.8006 50.3191 24.6506 50.5455 23.4683 50.6896L14.7842 64.0081C15.3216 64.8212 15.9557 65.5726 16.6543 66.2519L27.0903 50.2573Z" fill="#005589"/>
<path d="M20.5557 68.8455C20.6739 68.897 20.7921 68.9485 20.9211 68.9999C24.8977 67.4046 27.9286 63.9978 28.8529 59.8087C28.4337 59.0779 28.1328 58.3266 27.9179 57.5649L20.5557 68.8455Z" fill="#005589"/>
<path d="M50.3269 59.4895C50.3269 60.6011 49.3811 61.5068 48.2203 61.5068C47.0596 61.5068 46.1138 60.6011 46.1138 59.4895C46.1138 58.3779 47.0596 57.4824 48.2203 57.4824C49.3811 57.4824 50.3269 58.3882 50.3269 59.4895Z" fill="#005589"/>
<path d="M43.3621 58.2033L47.1453 52.4189H43.3406L39.5359 58.2445V52.4189H36.1934V66.5609H39.5359V64.101L41.4597 61.1367L45.0065 66.5609L48.8004 66.5506L43.3621 58.2033Z" fill="#005589"/>
<path d="M73.5202 59.2738C73.4773 59.5208 73.4128 59.8399 73.3698 60.1692C73.2945 59.8399 73.2193 59.5208 73.1548 59.2635L71.4137 52.4189H68.544L66.8244 59.2635C66.7599 59.5208 66.6847 59.8399 66.6095 60.1692C66.5557 59.8501 66.502 59.5414 66.459 59.2738L65.18 52.4189H61.6978L64.7823 66.5712H67.8454L69.6833 59.3561C69.7693 59.0267 69.8553 58.6459 69.9305 58.2857C70.0057 58.6459 70.0917 59.0165 70.1777 59.3561L71.9833 66.5712H75.1646L78.2492 52.4189H74.81L73.531 59.2738H73.5202Z" fill="#005589"/>
<path d="M82.3982 52.4087H79.0557V66.5609H82.3982V52.4087Z" fill="#005589"/>
<path d="M56.2704 63.6376C54.5937 63.6788 53.347 62.9069 52.5409 62.1349L50.8213 64.7595C52.0358 66.0358 53.9596 66.7769 56.1092 66.7769C61.2036 66.7769 61.9667 63.8949 61.9667 62.1864C61.9667 58.8516 58.8606 58.1517 57.0012 57.74C54.6475 57.2151 54.3036 56.9681 54.3036 56.3196C54.3036 55.6712 54.9592 55.3213 56.0984 55.3213C56.0984 55.3213 58.1297 55.2595 59.484 56.5975L61.1606 54.0347C59.7526 52.7996 58.1297 52.2026 56.1951 52.2026C53.0461 52.2026 50.8535 53.9421 50.8535 56.4432C50.8535 59.4692 53.1535 60.2308 55.518 60.7557C58.2372 61.3424 58.5167 61.7026 58.5167 62.3922C58.5167 63.0098 58.248 63.6479 56.2704 63.6479" fill="#005589"/>
<path d="M88.7821 63.6376C87.1055 63.6788 85.8587 62.9069 85.0419 62.1349L83.3223 64.7595C84.5368 66.0358 86.4606 66.7769 88.6101 66.7769C93.7046 66.7769 94.4677 63.8949 94.4677 62.1864C94.4677 58.8516 91.3616 58.1517 89.5022 57.74C87.1485 57.2151 86.8045 56.9681 86.8045 56.3196C86.8045 55.6712 87.4601 55.3213 88.6101 55.3213C88.6101 55.3213 90.6415 55.2595 92.0064 56.5975L93.6831 54.0347C92.2751 52.7996 90.6522 52.2026 88.7176 52.2026C85.5685 52.2026 83.376 53.9421 83.376 56.4432C83.376 59.4692 85.676 60.2308 88.0405 60.7557C90.7597 61.3424 91.0391 61.7026 91.0391 62.3922C91.0391 63.0098 90.7704 63.6479 88.7929 63.6479" fill="#005589"/>
<path d="M100.314 63.6376C98.6377 63.6788 97.3909 62.9069 96.5849 62.1349L94.8652 64.7595C96.0797 66.0358 98.0036 66.7769 100.153 66.7769C105.248 66.7769 106.011 63.8949 106.011 62.1864C106.011 58.8516 102.905 58.1517 101.045 57.74C98.6914 57.2151 98.3475 56.9578 98.3475 56.3196C98.3475 55.6815 99.0031 55.3213 100.153 55.3213C100.153 55.3213 102.184 55.2492 103.549 56.5975L105.226 54.0347C103.829 52.8099 102.195 52.2026 100.261 52.2026C97.1115 52.2026 94.919 53.9421 94.919 56.4432C94.919 59.4692 97.219 60.2308 99.5727 60.7557C102.292 61.3424 102.571 61.7026 102.571 62.3922C102.571 63.0098 102.303 63.6479 100.325 63.6479" fill="#005589"/>
</g>
<defs>
<clipPath id="clip0_16275_5152">
<rect width="93" height="19" fill="white" transform="translate(13 50)"/>
</clipPath>
</defs>
</svg>
