<svg width="120" height="120" viewBox="0 0 120 120" fill="none" xmlns="http://www.w3.org/2000/svg">
<rect width="120" height="120" rx="60" fill="white"/>
<rect x="0.5" y="0.5" width="119" height="119" rx="59.5" stroke="#1B497E" stroke-opacity="0.1"/>
<g clip-path="url(#clip0_16275_5169)">
<path d="M46.7532 65.4132C49.45 65.4132 51.8306 63.3638 51.8306 59.8809C51.8306 56.398 49.45 54.3486 46.7532 54.3486C44.0565 54.3486 41.6759 56.398 41.6759 59.8809C41.6759 63.3638 44.0565 65.4132 46.7532 65.4132ZM29.3975 65.2004H31.3633L26.849 54.5614H24.9623L20.7938 65.2004H22.5323L23.4411 62.7926H28.4196L29.3975 65.2004ZM78.0765 54.5614H70.9544V65.2004H78.2148V63.4981H72.6139V60.7208H77.3752V59.0186H72.6139V56.2636H78.0666V54.5614H78.0765ZM53.1147 64.1477C53.4999 64.4948 54.6359 65.4132 56.6412 65.4132C58.6464 65.4132 60.3059 64.1701 60.3059 62.2327C60.3059 58.1786 55.1397 59.4777 55.1397 57.2603C55.1397 56.6332 55.5941 56.1292 56.7795 56.1292C58.2118 56.1292 59.1403 56.8572 59.4959 57.1819L60.1874 55.6141C59.7626 55.1549 58.4488 54.3486 56.7795 54.3486C54.2803 54.3486 53.253 55.9389 53.253 57.5067C53.253 61.18 58.4192 60.1273 58.4192 62.3111C58.4192 63.2294 57.6092 63.6325 56.6807 63.6325C55.278 63.6325 54.1519 62.927 53.6778 62.5238L53.1048 64.1477H53.1147ZM36.7764 56.23C38.1791 56.23 38.9694 57.0923 39.4237 57.5515L40.5894 56.2524C40.2041 55.7597 39.0879 54.3374 36.7567 54.3374C34.0698 54.3374 31.6794 56.3868 31.6794 59.8697C31.6794 63.3526 34.0402 65.402 36.727 65.402C38.8014 65.402 40.2041 64.1365 40.6585 63.6773L39.73 62.1879C38.9891 62.8934 37.8235 63.5093 36.7567 63.5093C34.8996 63.5093 33.4969 61.9191 33.4969 59.8585C33.4969 57.7979 34.8996 56.2188 36.7863 56.2188M46.7532 63.5317C44.8962 63.5317 43.4935 61.9415 43.4935 59.8809C43.4935 57.8203 44.8962 56.2412 46.7532 56.2412C48.6103 56.2412 50.013 57.8315 50.013 59.8809C50.013 61.9303 48.6103 63.5317 46.7532 63.5317ZM64.5238 56.2636V65.2004H66.1932V56.2636H69.4826V54.5614H61.3332V56.2636H64.5238ZM14.6694 54.5614H13V65.2004H19.6578V63.4981H14.6694V54.5614ZM25.8513 56.4204L27.7578 61.1464H24.0634L25.8513 56.4204Z" fill="#002E1A"/>
<path d="M110.803 62.9494C110.595 62.8038 110.417 62.7926 110.239 62.7254C109.993 62.6358 109.904 62.2887 109.815 62.2551C109.627 62.1767 109.459 62.5015 109.341 62.4567C109.232 62.4119 109.183 61.9863 109.084 61.9527C108.906 61.8743 108.708 62.1991 108.59 62.1543C108.471 62.1095 108.412 61.6951 108.323 61.6503C108.135 61.5719 107.938 61.9079 107.829 61.8743C107.711 61.8295 107.681 61.3928 107.592 61.3592C107.395 61.2696 107.207 61.6167 107.029 61.5831C106.911 61.5608 106.664 61.516 106.348 61.2696C106.259 61.2024 106.061 61.0232 106.041 61.012C106.012 61.0008 105.923 60.9784 105.943 61.1688C105.992 61.6167 106.664 61.9303 107.444 62.1879C108.224 62.4455 109.005 62.6918 109.479 62.927C109.765 63.0838 109.894 63.263 109.785 63.431C109.706 63.5654 109.508 63.5766 109.291 63.4646C109.054 63.3414 109.034 63.1286 108.886 63.095C108.708 63.0502 108.481 63.431 108.333 63.3974C108.155 63.3526 108.135 62.9046 107.968 62.8598C107.75 62.7926 107.513 63.1734 107.375 63.1398C107.237 63.1062 107.177 62.6358 107.049 62.5911C106.822 62.5239 106.594 62.9158 106.456 62.8822C106.318 62.8486 106.239 62.3783 106.12 62.3335C105.893 62.2327 105.597 62.6135 105.291 62.4343C104.293 61.6615 104.481 61.2696 103.71 61.012C103.315 60.8776 102.821 61.0344 102.535 61.0792C101.853 61.1576 101.883 60.4969 101.883 60.4969C102.08 60.5528 102.357 60.6872 102.861 60.4745C103.414 60.2393 103.72 60.2057 104.431 60.4745C105.034 60.7096 105.389 60.4969 105.607 60.4409C105.715 60.4073 105.794 60.3513 105.982 60.4857C106.18 60.6312 106.367 60.7768 106.466 60.732C106.614 60.6536 106.565 60.2057 106.812 60.1049C106.93 60.0601 107.246 60.4185 107.385 60.3625C107.523 60.3065 107.484 59.8361 107.74 59.7353C107.859 59.6905 108.175 60.0489 108.313 59.9929C108.452 59.9257 108.412 59.4665 108.669 59.3658C108.787 59.321 109.103 59.6793 109.242 59.6233C109.38 59.5561 109.341 59.0858 109.588 58.9962C109.706 58.9514 110.022 59.321 110.16 59.2538C110.299 59.1866 110.279 59.0746 110.388 58.7498C110.407 58.6826 110.447 58.6266 110.506 58.5706C110.664 58.425 110.891 58.1227 110.753 57.7755C110.625 57.4619 110.368 57.4731 109.795 57.6075C109.311 57.7195 106.338 58.4586 106.338 58.4586C105.873 57.4843 105.557 58.1227 104.866 58.0331C104.431 57.9771 103.72 57.4731 102.604 58.6378C102.001 58.4474 101.478 58.6154 101.083 58.8618C100.411 58.5482 99.1366 57.8091 96.7066 57.8091C96.025 57.8091 94.3852 57.9659 91.7774 58.7386C91.1057 58.9402 90.5031 58.8954 90.355 58.4474C90.1969 57.9771 90.7402 57.4843 91.7478 56.9356C94.2469 55.5805 95.9163 55.8941 99.2847 53.8783C101.092 52.792 101.201 51.5265 101.201 51.2241C101.201 51.0113 101.013 50.9442 100.905 51.1121C100.302 52.0752 100.144 51.9969 99.9564 51.7841C99.6996 51.4929 99.5317 51.9521 99.265 52.176C99.0575 52.3552 99.018 52.1424 98.8501 52.0192C98.5636 51.8065 98.3266 52.4224 98.0796 52.5456C97.7931 52.6912 97.7438 52.5344 97.645 52.4112C97.5758 52.3328 97.4573 52.3328 97.3684 52.4224C96.7955 53.0384 96.7066 52.9712 96.5386 52.7696C96.4102 52.6128 96.3411 52.512 95.9756 52.9376C95.7583 53.1839 95.4027 53.4751 95.294 53.1727C95.1853 52.8704 95.0866 52.6912 94.563 53.2287C94.2469 53.5535 94.0395 53.5759 93.9407 53.4303C93.8419 53.2735 93.8617 52.8592 93.3678 53.2959C92.9233 53.6879 92.706 53.9231 92.5578 53.5423C92.4195 53.1727 92.0935 53.4863 91.8466 53.7551C91.7182 53.8895 91.5008 54.2254 91.3329 53.8895C91.1551 53.5535 90.8884 53.8895 90.5328 54.3262C90.3352 54.5614 90.1969 54.4606 89.9994 54.3038C89.7722 54.1247 89.5351 54.7742 89.1993 55.1774C89.14 55.2445 89.0511 55.2893 88.8535 55.1326C88.5967 54.931 88.1917 55.9501 88.0732 56.2077C87.8855 56.6108 87.678 56.0957 87.4607 56.4652C86.9471 57.3164 86.3939 58.2683 86.2358 59.9369C86.0482 61.9415 86.7001 63.5766 87.3718 64.1813C87.3718 64.1813 87.2928 64.4053 87.194 64.6853C87.0063 65.2452 86.9273 65.9843 87.1742 66.4995C87.4014 66.9922 87.9447 67.821 88.1522 67.0482C88.251 66.6675 88.3399 66.6899 88.6658 66.9474C89.1499 67.3394 89.0313 66.6227 89.1301 66.4211C89.1993 66.2755 89.2882 66.2195 89.6833 66.5219C89.9105 66.6899 89.9895 66.4659 90.0586 66.1411C90.2661 65.1444 89.8512 64.898 89.4462 64.7972C89.1499 64.7301 88.8338 64.786 88.8338 64.786C89.4857 63.655 89.5746 63.0278 88.8338 62.4567C88.9424 62.3895 89.0313 62.4231 89.1301 62.4679C89.3079 62.5575 89.466 62.7142 89.5549 62.9046C89.6536 63.1062 89.8216 63.5654 89.4857 64.3717C89.624 64.3717 90.1673 64.4053 90.4143 65.0436C90.7303 65.1668 92.8146 65.346 93.7234 65.178C94.0494 65.122 94.2074 64.7748 94.5334 64.4277C94.889 64.0469 95.3138 63.6326 95.6891 63.9461C95.0569 64.2373 94.6025 64.7972 94.6025 65.514C94.6025 66.0515 94.8001 66.2643 95.136 66.5779C95.4422 66.8691 95.5311 67.317 95.6496 67.6754C95.7879 68.1233 96.0941 68.1345 96.1534 67.709C96.2423 67.1154 96.4003 67.2274 96.6078 67.485C96.8547 67.7874 97.0424 67.7426 97.0424 67.3058C97.0424 66.8914 97.1511 66.6787 97.5659 67.1602C97.7339 67.3506 97.9314 67.3506 97.9314 66.925C97.9314 66.4099 98.1389 66.4547 98.3957 66.6787C98.4846 66.7571 98.5439 66.8131 98.5933 66.8131C98.8007 66.8019 98.9291 66.3539 98.7711 66.0067C98.692 65.8275 98.5834 65.57 97.5264 65.3236C97.1807 65.2452 97.24 64.9764 97.24 64.9764C99.7984 65.1108 101.972 64.7524 103.404 63.7669C105.162 64.2485 107.73 64.2933 108.57 64.2821C109.41 64.2709 110.052 64.2261 110.585 63.9349C111.138 63.6326 111.059 63.1734 110.803 62.9942M105.498 58.4362C105.547 58.2907 105.656 58.1899 105.765 58.1899C105.962 58.1899 106.051 58.4362 106.051 58.5034L105.577 58.6266C105.449 58.6602 105.449 58.5706 105.498 58.4362ZM104.283 58.3914C104.609 58.3914 104.816 58.6826 104.846 58.8058C104.846 58.8058 104.352 58.929 104.135 58.985C103.997 59.0186 103.908 58.9514 103.888 58.8282C103.868 58.6938 103.997 58.3914 104.273 58.4026M90.7007 54.9758C90.9279 54.8526 91.165 54.763 91.4119 54.707C91.4613 54.707 91.491 54.7294 91.4811 54.7742C91.4416 54.9534 91.402 55.1438 91.3724 55.3341C91.3724 55.3789 91.323 55.4013 91.2835 55.3789C91.1057 55.2781 90.9082 55.1662 90.7007 55.0654C90.6612 55.043 90.6513 54.9982 90.7007 54.9758ZM89.624 55.5581C89.8512 55.4349 90.0883 55.3453 90.3352 55.3005C90.3846 55.3005 90.4143 55.3229 90.4044 55.3677C90.3649 55.5469 90.3253 55.7373 90.2858 55.9277C90.2858 55.9725 90.2364 55.9949 90.1969 55.9725C90.0093 55.8717 89.8216 55.7597 89.6141 55.6589C89.5746 55.6365 89.5647 55.5917 89.6141 55.5693M90.0883 56.8124C90.1377 56.8124 90.1673 56.8348 90.1574 56.8796C90.1179 57.0588 90.0784 57.2492 90.0488 57.4395C90.0488 57.4843 89.9994 57.5067 89.9697 57.4843C89.7919 57.3835 89.5944 57.2716 89.3869 57.1708C89.3474 57.1484 89.3375 57.1036 89.3869 57.0812C89.6141 56.958 89.8512 56.8684 90.0982 56.8236M89.6339 57.8763C89.5944 58.0555 89.5549 58.2459 89.5252 58.4362C89.5252 58.481 89.4758 58.5034 89.4363 58.481C89.2585 58.3802 89.061 58.2683 88.8535 58.1675C88.814 58.1451 88.814 58.1003 88.8535 58.0779C89.0807 57.9547 89.3178 57.8651 89.5647 57.8203C89.6141 57.8203 89.6438 57.8427 89.6339 57.8875M88.6658 56.286C88.893 56.1629 89.1301 56.0733 89.3771 56.0173C89.4264 56.0173 89.4561 56.0397 89.4462 56.0845C89.4067 56.2636 89.3672 56.454 89.3375 56.6444C89.3375 56.6892 89.2882 56.7116 89.2486 56.6892C89.0708 56.5884 88.8733 56.4764 88.6658 56.3756C88.6164 56.3532 88.6164 56.3084 88.6658 56.286ZM87.925 57.2492C88.1522 57.126 88.3893 57.0364 88.6362 56.9916C88.6856 56.9804 88.7152 57.014 88.7053 57.0588C88.6658 57.238 88.6263 57.4283 88.5868 57.6187C88.5868 57.6635 88.5374 57.6859 88.4979 57.6635C88.3201 57.5627 88.1225 57.4507 87.9151 57.3387C87.8756 57.3164 87.8756 57.2716 87.9151 57.2492M87.6484 58.3579C87.8756 58.2347 88.1127 58.1451 88.3596 58.1003C88.409 58.0891 88.4386 58.1227 88.4288 58.1675C88.3893 58.3467 88.3497 58.537 88.3201 58.7274C88.3201 58.7722 88.2707 58.7946 88.2312 58.7722C88.0534 58.6714 87.8558 58.5594 87.6484 58.4586C87.6089 58.4362 87.6089 58.3914 87.6484 58.3691M87.7669 59.5561C87.7669 59.5561 87.7175 59.4889 87.7669 59.4665C87.9941 59.3434 88.2312 59.2538 88.4782 59.1978C88.5275 59.1978 88.5572 59.2202 88.5473 59.265C88.5078 59.4441 88.4683 59.6345 88.4288 59.8249C88.4288 59.8697 88.3794 59.8921 88.3399 59.8697C88.1621 59.7689 87.9645 59.6569 87.7571 59.5561M89.0313 60.9C89.0313 60.9 88.9819 60.9672 88.9424 60.9448C88.7646 60.844 88.5671 60.732 88.3596 60.62C88.3201 60.5976 88.3102 60.5528 88.3596 60.5304C88.5868 60.4073 88.8239 60.3177 89.0708 60.2729C89.1202 60.2617 89.1499 60.2953 89.14 60.3401C89.1005 60.5192 89.061 60.7096 89.0313 60.9ZM88.9721 59.2538C88.9721 59.2538 88.9325 59.1866 88.9721 59.1642C89.1993 59.041 89.4363 58.9514 89.6833 58.8954C89.7327 58.8954 89.7623 58.9178 89.7524 58.9626C89.7129 59.1418 89.6734 59.3322 89.6438 59.5225C89.6438 59.5673 89.5944 59.5897 89.5549 59.5673C89.3771 59.4665 89.1795 59.3658 88.9721 59.2538ZM90.0883 61.516C90.0883 61.516 90.0389 61.5831 89.9994 61.5608C89.8216 61.46 89.624 61.348 89.4166 61.2472C89.3672 61.2248 89.3672 61.18 89.4166 61.1576C89.6438 61.0344 89.8808 60.9448 90.1278 60.9C90.1772 60.9 90.2068 60.9224 90.1969 60.9672C90.1574 61.1464 90.1179 61.3368 90.0784 61.5272M90.3155 60.3401C90.3155 60.3401 90.2661 60.4073 90.2266 60.3849C90.0488 60.2841 89.8512 60.1721 89.6438 60.0713C89.5944 60.0489 89.5944 60.0041 89.6438 59.9817C89.871 59.8585 90.108 59.7689 90.355 59.7241C90.4044 59.7241 90.434 59.7465 90.4241 59.7913C90.3846 59.9705 90.3451 60.1609 90.3155 60.3513M91.3625 60.9224C91.323 61.1016 91.2835 61.292 91.2539 61.4824C91.244 61.5272 91.2045 61.5496 91.165 61.5272C90.9872 61.4264 90.7896 61.3144 90.5822 61.2024C90.5427 61.18 90.5328 61.1352 90.5822 61.1128C90.8094 60.9896 91.0464 60.9 91.2934 60.8552C91.3428 60.8552 91.3724 60.8776 91.3625 60.9224ZM91.4119 60.2953C91.2341 60.1945 91.0366 60.0825 90.8291 59.9817C90.7896 59.9593 90.7896 59.9145 90.8291 59.8921C91.0563 59.7689 91.2934 59.6793 91.5403 59.6233C91.5897 59.6233 91.6194 59.6457 91.6095 59.6905C91.57 59.8697 91.5305 60.0601 91.5008 60.2505C91.5008 60.2953 91.4514 60.3177 91.4119 60.2953ZM92.3306 61.7959C92.2911 61.9751 92.2516 62.1655 92.2219 62.3559C92.2219 62.4007 92.1725 62.4231 92.133 62.4007C91.9552 62.2999 91.7577 62.1879 91.5502 62.0871C91.5107 62.0647 91.5008 62.0199 91.5502 61.9975C91.7774 61.8743 92.0145 61.7847 92.2614 61.7399C92.3108 61.7287 92.3405 61.7623 92.3306 61.8071M92.5578 60.5864C92.5183 60.7656 92.4788 60.956 92.4491 61.1464C92.4491 61.1912 92.3997 61.2136 92.3602 61.1912C92.1824 61.0904 91.9849 60.9784 91.7774 60.8776C91.7379 60.8552 91.7379 60.8104 91.7774 60.788C92.0046 60.6648 92.2417 60.5752 92.4886 60.5192C92.538 60.5192 92.5677 60.5416 92.5578 60.5864ZM92.706 59.8697C92.706 59.8697 92.6566 59.9369 92.6171 59.9145C92.4294 59.8137 92.2417 59.7129 92.0342 59.5897C91.9947 59.5673 91.9849 59.5225 92.0342 59.5001C92.2614 59.377 92.4985 59.2874 92.7455 59.2314C92.7949 59.2314 92.8245 59.2538 92.8146 59.2986C92.7751 59.4777 92.7356 59.6681 92.6961 59.8585M93.427 61.9527C93.427 61.9527 93.3777 62.0199 93.3382 61.9975C93.1603 61.8967 92.9628 61.7847 92.7553 61.6727C92.706 61.6503 92.706 61.6055 92.7553 61.5831C92.9825 61.46 93.2196 61.3704 93.4666 61.3256C93.516 61.3256 93.5456 61.348 93.5357 61.3928C93.4962 61.5719 93.4567 61.7623 93.4172 61.9527M93.6641 60.7768C93.6641 60.7768 93.6147 60.844 93.5752 60.8216C93.3974 60.7208 93.1999 60.6088 92.9924 60.4969C92.9529 60.4745 92.943 60.4297 92.9924 60.4073C93.2196 60.2841 93.4567 60.1945 93.7036 60.1497C93.753 60.1497 93.7827 60.1721 93.7728 60.2169C93.7333 60.3961 93.6938 60.5864 93.6641 60.7768ZM93.8222 59.6009C93.6345 59.5001 93.4468 59.3882 93.2394 59.2874C93.19 59.265 93.19 59.2202 93.2394 59.1978C93.4666 59.0746 93.7036 58.985 93.9506 58.9402C94 58.9402 94.0296 58.9626 94.0197 59.0074C93.9802 59.1866 93.9407 59.377 93.9111 59.5673C93.9111 59.6121 93.8617 59.6345 93.8222 59.6121M94.7803 61.1016C94.7408 61.2808 94.7013 61.4712 94.6717 61.6615C94.6717 61.7063 94.6223 61.7287 94.5828 61.7063C94.405 61.6055 94.2074 61.4936 94 61.3928C93.9605 61.3704 93.9605 61.3256 94 61.3032C94.2272 61.18 94.4642 61.0904 94.7112 61.0456C94.7606 61.0456 94.7902 61.068 94.7803 61.1128M95.0075 59.9257C94.968 60.1049 94.9285 60.2953 94.8989 60.4857C94.8989 60.5304 94.8495 60.5528 94.81 60.5304C94.6223 60.4297 94.4346 60.3177 94.2272 60.2169C94.1778 60.1945 94.1778 60.1497 94.2272 60.1273C94.4544 60.0041 94.6914 59.9145 94.9384 59.8697C94.9878 59.8697 95.0174 59.8921 95.0075 59.9369M95.047 59.3658C94.8594 59.265 94.6717 59.153 94.4642 59.0522C94.4247 59.0298 94.4247 58.985 94.4642 58.9626C94.6914 58.8394 94.9285 58.7498 95.1755 58.705C95.2249 58.705 95.2545 58.7274 95.2446 58.7722C95.2051 58.9514 95.1656 59.1418 95.136 59.3322C95.1261 59.377 95.0866 59.3994 95.047 59.377M95.9855 60.956C95.946 61.1352 95.9064 61.3256 95.8768 61.516C95.8768 61.5608 95.8274 61.5831 95.7879 61.5608C95.6101 61.46 95.4125 61.348 95.2051 61.2472C95.1557 61.2248 95.1557 61.18 95.2051 61.1576C95.4323 61.0344 95.6694 60.9448 95.9163 60.8888C95.9657 60.8888 95.9953 60.9112 95.9855 60.956ZM96.2127 59.7913C96.1731 59.9705 96.1336 60.1609 96.104 60.3513C96.0941 60.3961 96.0546 60.4185 96.0151 60.3961C95.8373 60.2953 95.6397 60.1833 95.4323 60.0825C95.3928 60.0601 95.3928 60.0153 95.4323 59.9929C95.6595 59.8697 95.8966 59.7801 96.1435 59.7241C96.1929 59.7241 96.2225 59.7465 96.2127 59.7913ZM96.3213 59.209C96.3213 59.209 96.2719 59.2762 96.2324 59.2538C96.0447 59.153 95.857 59.041 95.6496 58.9402C95.6002 58.9178 95.6002 58.873 95.6496 58.8506C95.8768 58.7274 96.1139 58.6378 96.3608 58.593C96.4102 58.593 96.4399 58.6154 96.43 58.6602C96.3905 58.8394 96.3509 59.0298 96.3114 59.2202M97.1708 61.012C97.1313 61.1912 97.0918 61.3816 97.0622 61.5719C97.0622 61.6167 97.0128 61.6391 96.9733 61.6167C96.7955 61.516 96.5979 61.404 96.3905 61.292C96.3509 61.2696 96.3411 61.2248 96.3905 61.2024C96.6177 61.0792 96.8547 60.9896 97.1017 60.9448C97.1511 60.9336 97.1807 60.9672 97.1708 61.012ZM97.4079 59.8361C97.3684 60.0153 97.3289 60.2057 97.2992 60.3961C97.2992 60.4409 97.2499 60.4633 97.2103 60.4409C97.0325 60.3401 96.835 60.2281 96.6275 60.1273C96.588 60.1049 96.5781 60.0601 96.6275 60.0377C96.8547 59.9145 97.0918 59.8249 97.3388 59.7801C97.3881 59.7801 97.4178 59.8025 97.4079 59.8473M97.6351 58.6826C97.5956 58.8618 97.5561 59.0522 97.5264 59.2426C97.5264 59.2874 97.477 59.3098 97.4375 59.2874C97.2597 59.1866 97.0622 59.0746 96.8547 58.9738C96.8053 58.9514 96.8053 58.9066 96.8547 58.8842C97.0819 58.761 97.319 58.6714 97.5659 58.6154C97.6153 58.6154 97.645 58.6378 97.6351 58.6826ZM98.4451 60.6424C98.4451 60.6424 98.3957 60.7096 98.3562 60.6872C98.1784 60.5864 97.9808 60.4745 97.7734 60.3737C97.7339 60.3513 97.7339 60.3065 97.7734 60.2841C98.0006 60.1609 98.2377 60.0713 98.4846 60.0153C98.534 60.0153 98.5636 60.0377 98.5538 60.0825C98.5142 60.2617 98.4747 60.4521 98.4451 60.6424ZM98.7908 58.8954C98.7513 59.0746 98.7118 59.265 98.6822 59.4553C98.6723 59.5001 98.6328 59.5225 98.5933 59.5001C98.4155 59.3994 98.2179 59.2874 98.0105 59.1866C97.9709 59.1642 97.9611 59.1194 98.0105 59.097C98.2377 58.9738 98.4747 58.8842 98.7217 58.8394C98.7711 58.8282 98.8007 58.8618 98.7908 58.9066M99.8873 59.3322C99.8478 59.5113 99.8083 59.7017 99.7786 59.8921C99.7786 59.9369 99.7292 59.9593 99.6897 59.9369C99.5119 59.8361 99.3144 59.7353 99.1069 59.6233C99.0674 59.6009 99.0575 59.5561 99.1069 59.5337C99.3341 59.4106 99.5712 59.321 99.8181 59.265C99.8675 59.265 99.8972 59.2874 99.8873 59.3322Z" fill="#00572D"/>
</g>
<defs>
<clipPath id="clip0_16275_5169">
<rect width="98" height="17" fill="white" transform="translate(13 51)"/>
</clipPath>
</defs>
</svg>
