<svg width="120" height="120" viewBox="0 0 120 120" fill="none" xmlns="http://www.w3.org/2000/svg">
<rect width="120" height="120" rx="60" fill="white"/>
<rect x="0.5" y="0.5" width="119" height="119" rx="59.5" stroke="#1B497E" stroke-opacity="0.1"/>
<g clip-path="url(#clip0_16275_5156)">
<path d="M76.7872 36.8182C76.5039 36.0519 76.1048 35.3896 75.5768 34.8312C75.0488 34.2727 74.405 33.8312 73.6452 33.4935C72.8855 33.1688 72.0227 33 71.0698 33H47.9813C47.0799 33 46.2558 33.1558 45.496 33.4805C44.7363 33.7922 44.0795 34.2338 43.5258 34.7922C42.9721 35.3506 42.5472 36.013 42.251 36.7662C41.9548 37.5195 41.8003 38.3506 41.8003 39.2468V59.5065H49.6038V42.7273C49.5394 41.4675 50.1317 40.8312 51.3551 40.8312H55.656V59.5065H63.3694V40.8182H67.49C68.7777 40.8442 69.4473 41.5065 69.5117 42.8052V59.4935H77.2251V39.2468C77.2251 38.4026 77.0834 37.5974 76.8001 36.8312" fill="#231F20"/>
<path d="M36.9458 67.1816H26.4768C23.8499 67.1816 23 69.0777 23 70.4674V81.4674H24.4294V70.4674C24.4294 70.0128 24.5839 69.5453 24.8414 69.2336C25.1762 68.831 25.7299 68.6232 26.4768 68.6232H30.9838V81.4544H32.4131V68.6232H36.933C37.6798 68.6232 38.2336 68.831 38.5684 69.2336C38.8259 69.5453 38.9804 69.9998 38.9804 70.4674V81.4674H40.4098V70.4674C40.4098 69.0777 39.5599 67.1816 36.933 67.1816" fill="#231F20"/>
<path d="M65.2884 78.1687C65.2884 78.6232 65.1339 79.0907 64.8764 79.4024C64.5416 79.805 63.9878 80.0128 63.241 80.0128H58.1545C57.4077 80.0128 56.854 79.805 56.5192 79.4024C56.2616 79.0907 56.1071 78.6362 56.1071 78.1687V75.9609C56.1071 75.5063 56.2616 75.0388 56.5192 74.7271C56.854 74.3245 57.4077 74.1167 58.1545 74.1167H65.2884V78.1687ZM63.241 67.1816H55.8495V68.6232H63.241C63.9878 68.6232 64.5416 68.831 64.8764 69.2336C65.1339 69.5453 65.2884 69.9998 65.2884 70.4674V72.6881H58.1545C55.5276 72.6881 54.6777 74.5842 54.6777 75.9738V78.1816C54.6777 79.5713 55.5276 81.4674 58.1545 81.4674H63.241C65.8679 81.4674 66.7178 79.5713 66.7178 78.1816V70.4674C66.7178 69.0777 65.8679 67.1816 63.241 67.1816Z" fill="#231F20"/>
<path d="M85.3893 70.4547C85.3893 70.0001 85.5438 69.5326 85.8014 69.2209C86.1362 68.8183 86.6899 68.6105 87.4368 68.6105H92.5232C93.2701 68.6105 93.8238 68.8183 94.1586 69.2209C94.4161 69.5326 94.5707 69.9871 94.5707 70.4547V72.6625C94.5707 73.117 94.4161 73.5845 94.1586 73.8962C93.8238 74.2988 93.2701 74.5066 92.5232 74.5066H85.3893V70.4547ZM92.5232 75.9482C95.1501 75.9482 96.0129 74.0521 96.0129 72.6625V70.4547C96.0129 69.0651 95.163 67.1689 92.5232 67.1689H87.4368C84.8098 67.1689 83.96 69.0651 83.96 70.4547V78.1689C83.96 79.5586 84.8098 81.4547 87.4368 81.4547H95.3948V80.0131H87.4368C86.6899 80.0131 86.1362 79.8053 85.8014 79.4027C85.5438 79.091 85.3893 78.6365 85.3893 78.1689V75.9482H92.5232Z" fill="#231F20"/>
<path d="M79.8394 79.0518H72.7055C71.9586 79.0518 71.4049 78.844 71.0701 78.4414C70.8126 78.1297 70.658 77.6751 70.658 77.2076V70.4414C70.658 69.9868 70.8126 69.5193 71.0701 69.2076C71.4049 68.805 71.9586 68.5972 72.7055 68.5972H77.7919C78.5388 68.5972 79.0925 68.805 79.4273 69.2076C79.6849 69.5193 79.8394 69.9738 79.8394 70.4414V79.0388V79.0518ZM77.7919 67.1816H72.7055C70.0786 67.1816 69.2158 69.0777 69.2158 70.4674V77.2336C69.2158 78.6232 70.0657 80.5193 72.7055 80.5193H79.8394V82.7401C79.8394 83.1946 79.6849 83.6622 79.4273 83.9738C79.0925 84.3764 78.5388 84.5842 77.7919 84.5842H69.8339V86.0258H77.7919C80.4189 86.0258 81.2687 84.1297 81.2687 82.7401V70.4674C81.2687 69.0777 80.4189 67.1816 77.7919 67.1816Z" fill="#231F20"/>
<path d="M44.8522 67.1689H43.4229V81.4417H44.8522V67.1689Z" fill="#231F20"/>
<path d="M47.8784 70.4547V81.4547H49.3078V70.4547C49.3078 70.0001 49.4623 69.5326 49.7198 69.2209C50.0546 68.8183 50.6084 68.6105 51.3552 68.6105H54.0336V67.1689H51.3552C48.7283 67.1689 47.8784 69.0651 47.8784 70.4547Z" fill="#231F20"/>
<path d="M89.922 61.4544C90.0636 61.4544 90.2053 61.4544 90.3341 61.4414C90.4628 61.4414 90.5787 61.4024 90.6817 61.3635C90.7848 61.3245 90.862 61.2466 90.9264 61.1557C90.9908 61.0648 91.0165 60.9349 91.0165 60.766C91.0165 60.6232 90.9908 60.5193 90.9393 60.4284C90.8878 60.3505 90.8105 60.2855 90.7332 60.2336C90.6431 60.1946 90.553 60.1557 90.4371 60.1427C90.3212 60.1297 90.2182 60.1167 90.1151 60.1167H89.2653V61.4414H89.9349L89.922 61.4544ZM90.2053 59.5972C90.6946 59.5972 91.0681 59.7011 91.2998 59.8959C91.5445 60.0907 91.6604 60.3894 91.6604 60.792C91.6604 61.1686 91.5574 61.4414 91.3513 61.6232C91.1453 61.805 90.8878 61.9089 90.5787 61.9349L91.7634 63.779H91.068L89.9349 61.9738H89.2524V63.779H88.6085V59.5972H90.2053ZM87.2822 62.8959C87.4367 63.2725 87.6428 63.5972 87.9003 63.8699C88.1578 64.1427 88.4669 64.3635 88.8274 64.5193C89.188 64.6751 89.5743 64.7531 89.9864 64.7531C90.3984 64.7531 90.7848 64.6751 91.1324 64.5193C91.493 64.3635 91.7892 64.1427 92.0596 63.8699C92.3171 63.5972 92.5232 63.2725 92.6777 62.8959C92.8322 62.5193 92.8966 62.1167 92.8966 61.6751C92.8966 61.2336 92.8193 60.844 92.6777 60.4803C92.5232 60.1167 92.3171 59.792 92.0596 59.5193C91.802 59.2466 91.493 59.0388 91.1324 58.8829C90.7848 58.7271 90.3984 58.6492 89.9864 58.6492C89.5743 58.6492 89.188 58.7271 88.8274 58.8829C88.4669 59.0388 88.1578 59.2466 87.9003 59.5193C87.6428 59.792 87.4367 60.1167 87.2822 60.4803C87.1405 60.844 87.0633 61.2466 87.0633 61.6751C87.0633 62.1037 87.1405 62.5193 87.2822 62.8959ZM86.7027 60.2725C86.8959 59.844 87.1534 59.4673 87.4754 59.1427C87.7973 58.818 88.1836 58.5712 88.6085 58.3894C89.0464 58.2076 89.497 58.1167 89.9864 58.1167C90.4757 58.1167 90.9393 58.2076 91.3642 58.3894C91.7892 58.5712 92.1755 58.818 92.4974 59.1427C92.8193 59.4673 93.0769 59.831 93.27 60.2725C93.4632 60.7011 93.5533 61.1686 93.5533 61.6751C93.5533 62.1816 93.4632 62.6622 93.27 63.1037C93.0769 63.5453 92.8193 63.9219 92.4974 64.2466C92.1755 64.5712 91.802 64.818 91.3642 64.9998C90.9393 65.1816 90.4757 65.2596 89.9864 65.2596C89.497 65.2596 89.0464 65.1686 88.6085 64.9998C88.1707 64.818 87.7973 64.5712 87.4754 64.2466C87.1534 63.9219 86.8959 63.5453 86.7027 63.1037C86.5096 62.6622 86.4194 62.1946 86.4194 61.6751C86.4194 61.1557 86.5096 60.7011 86.7027 60.2725Z" fill="#231F20"/>
</g>
<defs>
<clipPath id="clip0_16275_5156">
<rect width="73" height="53" fill="white" transform="translate(23 33)"/>
</clipPath>
</defs>
</svg>
