<svg width="120" height="120" viewBox="0 0 120 120" fill="none" xmlns="http://www.w3.org/2000/svg">
<rect width="120" height="120" rx="60" fill="white"/>
<rect x="0.5" y="0.5" width="119" height="119" rx="59.5" stroke="#1B497E" stroke-opacity="0.1"/>
<g clip-path="url(#clip0_16275_5159)">
<path d="M17.9761 39.0216H100.024V79.9784H17.9761V39.0216ZM16 37V82H102V80.9892V37H16Z" fill="white"/>
<path d="M101.012 38.0107H16.988V80.9892H101.012V38.0107Z" fill="#231F20"/>
<mask id="mask0_16275_5159" style="mask-type:luminance" maskUnits="userSpaceOnUse" x="16" y="37" width="86" height="45">
<path d="M102 37H16V82H102V37Z" fill="white"/>
</mask>
<g mask="url(#mask0_16275_5159)">
<path d="M24.0921 70.1736C24.0921 70.1736 24.0921 73.1049 27.1452 71.8414L39.6045 66.9492C39.6045 66.9492 40.7012 66.7673 41.0668 67.4243C41.0668 67.4243 41.3336 68.8394 42.954 68.7585C42.954 68.7585 44.0112 68.9506 46.1454 67.3839L54.5636 62.431C54.5636 62.431 54.6229 62.3097 54.4253 62.057L50.5027 55.861C50.5027 55.861 49.8704 54.6581 48.2203 54.4863L38.9919 52.9095C38.9919 52.9095 38.2607 50.8879 35.4349 50.0995L22.8471 46.9155C22.8471 46.9155 21.1576 46.8953 21.286 48.6238L24.0921 70.1736Z" fill="white"/>
</g>
<path d="M100.004 39.0014V79.9582H60.0869V38.9609L100.004 39.0014Z" fill="white"/>
<mask id="mask1_16275_5159" style="mask-type:luminance" maskUnits="userSpaceOnUse" x="16" y="37" width="86" height="45">
<path d="M102 37H16V82H102V37Z" fill="white"/>
</mask>
<g mask="url(#mask1_16275_5159)">
<path d="M27.8171 64.0184L28.5878 67.7583L39.9899 64.3014C39.9899 64.3014 41.2349 64.0285 42.0451 64.0285C42.0451 64.0285 42.3711 63.9476 42.796 64.6148C42.796 64.6148 43.2801 65.7165 44.8116 65.5548C44.8116 65.5548 48.5168 64.5137 52.8049 62.0777C52.8049 62.0777 53.131 61.9968 52.9235 61.6228L52.3109 60.6626L42.628 63.5534C42.628 63.5534 42.2229 63.8061 42.0549 63.0986C42.0549 63.0986 41.8475 61.2084 37.174 62.2697L27.7974 64.0184H27.8171Z" fill="#231F20"/>
<path d="M27.4514 61.9967L32.4905 61.2689L30.1093 52.9906L33.6663 53.4859C33.6663 53.4859 34.7235 53.587 35.3558 55.3356L37.243 60.6018C37.243 60.6018 40.721 60.2682 41.1656 60.9354L37.7469 53.1726C37.7469 53.1726 37.0158 51.9293 35.0594 51.5553L31.0381 50.7063C31.0381 50.7063 30.0401 50.5647 29.9018 51.6867C29.9018 51.6867 29.7437 51.8788 29.6745 51.6261L29.4671 50.4434L24.9517 49.4023L27.4317 62.0068L27.4514 61.9967Z" fill="#231F20"/>
<path d="M42.4797 56.7203L41.5806 54.8706L48.8823 55.6792C48.8823 55.6792 49.2281 55.5782 50.0185 56.8618L42.4698 56.7102L42.4797 56.7203Z" fill="#231F20"/>
</g>
<path d="M43.4678 58.8126L50.8782 58.3779L51.5698 59.4595L44.4262 60.8948L43.4678 58.8126Z" fill="#231F20"/>
<mask id="mask2_16275_5159" style="mask-type:luminance" maskUnits="userSpaceOnUse" x="16" y="37" width="86" height="45">
<path d="M102 37H16V82H102V37Z" fill="white"/>
</mask>
<g mask="url(#mask2_16275_5159)">
<path d="M65.7188 58.8329H67.8035V52.2931L71.9138 58.5903C71.9138 58.5903 72.0225 58.9946 73.139 58.8632C73.139 58.8632 73.8899 58.7217 73.8899 57.9333V47.9367H71.8644V54.5977L67.6059 48.0579C67.6059 48.0579 66.1634 47.4212 65.7385 48.4926L65.7188 58.8531V58.8329Z" fill="#231F20"/>
<path d="M77.0913 52.3844H82.5355V54.2745H77.1407V56.9329H83.0295V58.823H76.9233C76.9233 58.823 75.0757 58.7119 75.0757 56.8217V49.6451C75.0757 49.6451 75.3227 47.9875 77.032 47.8965H83.0295V49.7866H77.0814L77.1012 52.3945L77.0913 52.3844Z" fill="#231F20"/>
<path d="M67.7639 64.7358H73.2081V66.6259H67.8133V69.2843H73.7021V71.1643H67.596C67.596 71.1643 65.7483 71.0532 65.7483 69.163V61.9864C65.7483 61.9864 65.9953 60.3288 67.7046 60.2378H73.7021V62.128H67.754L67.7738 64.7459L67.7639 64.7358Z" fill="#231F20"/>
<path d="M84.136 47.8661H86.2702V57.0237H88.2957V47.957H90.3409V56.9732H92.3171V47.8661H94.4512V56.7913C94.4512 56.7913 94.5599 58.6511 92.5147 58.8128H86.1417C86.1417 58.8128 84.3336 59.0554 84.1558 56.8014V47.856L84.136 47.8661Z" fill="#231F20"/>
<path d="M75.0164 71.1647H77.1407V62.2092L77.3086 61.9565H81.8142L82.0809 62.1889V64.5441L81.8142 64.7563H78.2275L77.447 66.505H80.0357L82.2983 71.1647H84.6894L82.2785 66.5252C82.2785 66.5252 83.9286 66.2523 84.0867 64.7159V61.7644C84.0867 61.7644 83.6914 60.3999 82.3971 60.228H76.7751C76.7751 60.228 75.1744 60.4605 75.0855 62.1283L75.0262 71.1647H75.0164Z" fill="#231F20"/>
<path d="M85.4402 71.1646H87.604V62.2495L87.7028 61.9968H92.0898L92.2775 62.1484V64.6754H88.7996L87.9103 66.4442H92.2775V71.1444H94.5006V62.0676C94.5006 62.0676 94.2536 60.238 92.0107 60.1875H87.2088C87.2088 60.1875 85.5983 60.3998 85.4402 62.2495V71.1646Z" fill="#231F20"/>
</g>
<path d="M92.5048 72.3066H91.1907V72.5492H91.6847V73.7723H92.0206V72.5492H92.5048V72.3066Z" fill="#231F20"/>
<path d="M94.3129 72.3066H93.8189L93.5225 73.3073L93.2162 72.3066H92.7222V73.7723H93.0285V72.62L93.3545 73.7723H93.6806L94.0066 72.62V73.7723H94.3129V72.3066Z" fill="#231F20"/>
</g>
<defs>
<clipPath id="clip0_16275_5159">
<rect width="86" height="45" fill="white" transform="translate(16 37)"/>
</clipPath>
</defs>
</svg>
