<svg width="120" height="120" viewBox="0 0 120 120" fill="none" xmlns="http://www.w3.org/2000/svg">
<rect width="120" height="120" rx="60" fill="white"/>
<rect x="0.5" y="0.5" width="119" height="119" rx="59.5" stroke="#1B497E" stroke-opacity="0.1"/>
<g clip-path="url(#clip0_16275_5162)">
<path d="M49.1132 58.0653L48.0439 54.3768L46.994 58.0653H49.1132ZM49.7353 60.2785H46.3427L45.8761 61.9724H42.8237L46.4594 51.6992H49.7159L53.3515 61.9724H50.2213L49.7353 60.2785Z" fill="#231F20"/>
<path d="M68.0787 58.0653L67.0094 54.3768L65.9499 58.0653H68.069H68.0787ZM68.7009 60.2785H65.3083L64.8417 61.9724H61.7893L65.4249 51.6992H68.6814L72.3171 61.9724H69.1869L68.7009 60.2785Z" fill="#231F20"/>
<path d="M40.4712 47.064V47.6833H41.3947V50.7161H42.0168V47.6833H42.9403V47.064H40.4712Z" fill="#231F20"/>
<path d="M43.3389 47.064V50.7161H45.7011V50.0968H43.9707V49.104H45.5261V48.4847H43.9707V47.6833H45.6427V47.064H43.3389Z" fill="#231F20"/>
<path d="M48.1217 47.064V49.5048L46.858 47.064H46.2456V50.7161H46.8289V48.3299L48.0829 50.7161H48.705V47.064H48.1217Z" fill="#231F20"/>
<path d="M49.9881 47.064H49.3562V50.7161H49.9881V47.064Z" fill="#231F20"/>
<path d="M50.4158 49.5226L51.0282 49.4497C51.0671 49.6865 51.1351 49.8687 51.2518 49.978C51.3684 50.0873 51.5142 50.151 51.7087 50.151C51.9128 50.151 52.0586 50.0964 52.1655 49.9962C52.2725 49.896 52.3211 49.7776 52.3211 49.641C52.3211 49.559 52.3016 49.4862 52.253 49.4224C52.2141 49.3587 52.1364 49.3131 52.0294 49.2676C51.9517 49.2403 51.7864 49.1856 51.524 49.1128C51.1837 49.0126 50.9504 48.8942 50.8143 48.7485C50.6199 48.5481 50.5324 48.3022 50.5324 48.0108C50.5324 47.8286 50.5713 47.6556 50.6685 47.4916C50.756 47.3277 50.8824 47.2093 51.0574 47.1182C51.2226 47.0363 51.4267 46.9907 51.6698 46.9907C52.0586 46.9907 52.3502 47.0909 52.5544 47.2913C52.7488 47.4916 52.8557 47.7557 52.8654 48.0927L52.2336 48.12C52.2044 47.9379 52.1461 47.8013 52.0586 47.7193C51.9711 47.6374 51.835 47.5918 51.66 47.5918C51.4851 47.5918 51.3393 47.6374 51.2323 47.7193C51.1643 47.774 51.1351 47.8559 51.1351 47.947C51.1351 48.0381 51.1643 48.1109 51.2323 48.1656C51.3101 48.2476 51.5045 48.3204 51.8059 48.4115C52.1072 48.4935 52.3405 48.5845 52.4863 48.6756C52.6321 48.7667 52.7488 48.8942 52.8266 49.049C52.9043 49.2038 52.9529 49.4042 52.9529 49.6319C52.9529 49.8414 52.9043 50.0326 52.8071 50.2239C52.7099 50.406 52.5641 50.5426 52.3891 50.6337C52.2044 50.7248 51.9808 50.7703 51.7184 50.7703C51.3295 50.7703 51.0185 50.661 50.8143 50.4516C50.6005 50.2421 50.4741 49.9233 50.4352 49.5226" fill="#231F20"/>
<path d="M86.6943 51.5811H87.54V54.7687H86.9956V52.6193C86.9956 52.5556 86.9956 52.4736 86.9956 52.3552C86.9956 52.2368 86.9956 52.1548 86.9956 52.1002L86.461 54.7687H85.8874L85.3625 52.1002C85.3625 52.1639 85.3625 52.2459 85.3625 52.3552C85.3625 52.4645 85.3625 52.5556 85.3625 52.6193V54.7687H84.8181V51.5811H85.6736L86.1888 54.0856L86.6943 51.5811Z" fill="#231F20"/>
<path d="M88.6677 52.1364V52.9925H89.2995C89.4259 52.9925 89.5231 52.9743 89.5814 52.9379C89.6884 52.8741 89.7467 52.7557 89.7467 52.5827C89.7467 52.3914 89.6884 52.2639 89.5814 52.1911C89.5231 52.1547 89.4356 52.1364 89.3093 52.1364H88.658H88.6677ZM89.8731 51.6629C89.98 51.7175 90.0675 51.7904 90.1355 51.8814C90.1939 51.9634 90.2425 52.0545 90.2716 52.1455C90.3105 52.2457 90.3202 52.355 90.3202 52.4825C90.3202 52.6374 90.2911 52.7831 90.223 52.9288C90.155 53.0745 90.048 53.1747 89.8925 53.2384C90.0189 53.3022 90.1161 53.3842 90.1647 53.4935C90.223 53.6027 90.2425 53.7667 90.2425 53.9944V54.2129C90.2425 54.3587 90.2425 54.4588 90.2619 54.5044C90.2814 54.5863 90.3105 54.6501 90.3688 54.6865V54.7685H89.7175C89.6981 54.6956 89.6884 54.641 89.6787 54.5955C89.6592 54.5044 89.6592 54.4133 89.6495 54.3222V54.0217C89.6495 53.8213 89.6106 53.6847 89.5523 53.6119C89.494 53.539 89.3773 53.5117 89.2218 53.5117H88.6482V54.7594H88.0747V51.5718H89.4162C89.6106 51.5718 89.7564 51.5991 89.8634 51.6537" fill="#231F20"/>
<path d="M72.2781 51.7085H76.4775L78.1009 57.9562L79.7049 51.7085H83.9043V61.9817H81.2894V54.1493L79.2674 61.9817H76.9052L74.893 54.1493V61.9817H72.2781V51.7085Z" fill="#231F20"/>
<path d="M53.1572 51.7085H56.1707L59.2911 57.3916V51.7085H61.9838V61.9817H59.1356L55.8402 56.3351V61.9817H53.1572V51.7085Z" fill="#231F20"/>
<path d="M40.1504 56.3715H38.7214V54.2404H40.1504C40.7823 54.2404 41.2877 54.7139 41.2877 55.3059C41.2877 55.8979 40.7823 56.3715 40.1504 56.3715ZM40.7239 51.6812H35.6399V61.8269H38.7409V58.7303H40.7628C42.6195 58.7303 44.1263 57.3187 44.1263 55.5791V54.8688C44.1263 53.111 42.6001 51.6812 40.7239 51.6812Z" fill="#231F20"/>
<path d="M105.222 63.6847L103.161 53.5845H95.9389L98.058 63.3659C98.1941 64.0034 97.6789 64.5954 96.979 64.5954H13L27.2995 68.4661H101.003C103.706 68.4661 105.738 66.1619 105.232 63.6847" fill="#231F20"/>
<path d="M105.844 65.7342C105.047 69.3863 100.897 69.3134 100.897 69.3134H30.4102L40.3449 72.0001H99.7592C107.526 72.0001 105.854 65.7251 105.854 65.7251" fill="#231F20"/>
</g>
<defs>
<clipPath id="clip0_16275_5162">
<rect width="93" height="25" fill="white" transform="translate(13 47)"/>
</clipPath>
</defs>
</svg>
