<svg width="120" height="120" viewBox="0 0 120 120" fill="none" xmlns="http://www.w3.org/2000/svg">
<rect width="120" height="120" rx="60" fill="white"/>
<rect x="0.5" y="0.5" width="119" height="119" rx="59.5" stroke="#1B497E" stroke-opacity="0.1"/>
<g clip-path="url(#clip0_16275_5170)">
<path d="M16.3642 52.5967H10V53.2638H11.6299V66.1571H10V66.768H15.1577V66.1571H13.3444V53.4043H16.082C16.9216 53.4043 18.488 55.0616 18.488 56.452C18.488 58.4113 16.7241 60.0124 14.4874 60.1599V60.6795C14.939 60.827 15.4188 60.9113 15.9197 60.9113C18.3116 60.9113 20.2519 59.0503 20.2519 56.761C20.2519 54.261 18.7561 52.6037 16.3713 52.6037" fill="#231F20"/>
<path d="M28.2742 56.5225V56.9227H21.4302V57.5407H23.1235V66.1573H21.4302V66.7682H29.0362V64.8932H28.4294V66.1573H24.5699V62.0913H27.5192V63.1166H28.0766V60.3216H27.5192V61.3609H24.5699V57.5407H28.2742V58.6784H28.9233V56.5225H28.2742Z" fill="#231F20"/>
<path d="M71.7935 52V52.4565H63.0515V53.4045H64.8084V65.9607H63.0515V66.7683H72.873V64.0927H72.1886V65.9607H66.6428V59.9494H70.7704V61.5787H71.7088V57.4424H70.7704V59.1208H66.6428V53.4396H71.7935V55.2163H72.6261V52H71.7935Z" fill="#231F20"/>
<path d="M74.7993 56.8315V57.4495H76.0482V65.9608H74.7993V66.7683H82.2783V64.774H81.5939V65.9608H77.8826V57.4776H79.5619V56.8315H74.7993Z" fill="#231F20"/>
<path d="M83.9011 56.8315V57.4495H85.15V65.9608H83.9011V66.7683H91.3801V64.774H90.6957V65.9608H86.9845V57.4776H88.6637V56.8315H83.9011Z" fill="#231F20"/>
<path d="M35.8167 61.6279H33.8199V57.5479H35.8308C35.8308 57.5479 37.1008 57.6532 37.1008 59.5774C37.1008 60.399 36.5505 61.6279 35.8167 61.6279ZM36.5222 62.26C37.8487 62.0774 38.8718 60.9468 38.8718 59.5774C38.8718 58.0886 37.6582 56.8807 36.1624 56.8667H30.6025V57.5479H32.2677V66.0732H30.6025V66.7684H35.478V66.0732H33.8129V62.288H34.843L37.9193 66.7684H40.3888V66.0732H39.3163L36.5222 62.2529V62.26Z" fill="#231F20"/>
<path d="M46.6118 61.6279H44.6151V57.5479H46.626C46.626 57.5479 47.896 57.6532 47.896 59.5774C47.896 60.399 47.3456 61.6279 46.6118 61.6279ZM47.3174 62.26C48.6439 62.0774 49.667 60.9468 49.667 59.5774C49.667 58.0886 48.4534 56.8807 46.9576 56.8667H41.3977V57.5479H43.0628V66.0732H41.3977V66.7684H46.2732V66.0732H44.608V62.288H45.6382L48.7074 66.7684H51.1769V66.0732H50.1044L47.3104 62.2529L47.3174 62.26Z" fill="#231F20"/>
<path d="M57.2307 56.8315V57.5338H58.2397L55.8902 61.0661L53.4066 57.5338H54.4649V56.8315H50.7466V57.5338H51.8261L54.9306 61.9439V66.0731H53.336V66.7683H54.9306H56.5111H58.0986V66.0731H56.5111V61.9439L59.5097 57.5338H60.3776V56.8315H57.2307Z" fill="#231F20"/>
<path d="M92.6431 56.8315V57.4987H94.1742V66.1012H92.6431V66.7683H97.2645V66.1012H95.7335V57.4987H97.2645V56.8315H92.6431Z" fill="#231F20"/>
<path d="M104.2 61.9015C103.022 61.0729 101.314 60.1951 101.314 60.1951C100.835 59.9001 100.531 59.4366 100.531 58.91C100.531 58.0251 101.406 57.3018 102.493 57.3018C103.198 57.3018 103.812 57.6038 104.158 58.0602V59.0013H104.751V56.5645H104.158V57.1754C103.643 56.8383 103.001 56.6347 102.309 56.6347C100.588 56.6347 99.1907 57.8706 99.1907 59.4015C99.1907 60.4619 99.868 61.3889 100.856 61.8524C100.856 61.8524 103.361 63.0743 103.854 63.6923C104.341 64.3032 103.869 65.188 103.854 65.2161C103.551 65.9114 102.733 66.1642 101.801 66.1923C101.025 66.2204 100.171 65.6375 99.7904 65.2442V64.3805H99.1977V66.8805H99.7904V66.3819C100.397 66.7681 101.152 66.9998 101.985 66.9998C103.939 66.9998 105.52 65.7358 105.52 64.1698C105.52 63.4114 105.23 62.6248 104.2 61.9015Z" fill="#231F20"/>
<path d="M108.229 59.4998C107.312 59.4998 106.571 58.7625 106.571 57.8496C106.571 56.9366 107.312 56.1993 108.229 56.1993C109.146 56.1993 109.887 56.9366 109.887 57.8496C109.887 58.7625 109.146 59.4998 108.229 59.4998ZM108.229 56.0869C107.248 56.0869 106.458 56.8734 106.458 57.8496C106.458 58.8257 107.248 59.6122 108.229 59.6122C109.21 59.6122 110 58.8257 110 57.8496C110 56.8734 109.21 56.0869 108.229 56.0869ZM108.285 57.7231H107.806V57.1333H108.335C108.462 57.1333 108.554 57.1614 108.61 57.2175C108.666 57.2737 108.695 57.3439 108.695 57.4282C108.695 57.4844 108.681 57.5406 108.652 57.5897C108.624 57.6389 108.582 57.674 108.525 57.6951C108.469 57.7161 108.391 57.7302 108.285 57.7302M108.589 57.997C108.589 57.997 108.511 57.9408 108.455 57.9057C108.617 57.8847 108.737 57.8285 108.815 57.7372C108.892 57.6529 108.927 57.5476 108.927 57.4212C108.927 57.3229 108.906 57.2316 108.857 57.1543C108.808 57.0771 108.751 57.0209 108.673 56.9858C108.596 56.9507 108.483 56.9366 108.335 56.9366H107.587V58.7133H107.813V57.9198H108.074C108.13 57.9198 108.173 57.9198 108.201 57.9268C108.236 57.9338 108.271 57.9549 108.3 57.976C108.328 57.997 108.37 58.0392 108.412 58.0953C108.455 58.1515 108.511 58.2358 108.575 58.3411L108.8 58.7133H109.083L108.793 58.2288C108.737 58.1305 108.673 58.0532 108.61 57.99" fill="#231F20"/>
</g>
<defs>
<clipPath id="clip0_16275_5170">
<rect width="100" height="15" fill="white" transform="translate(10 52)"/>
</clipPath>
</defs>
</svg>
