<svg width="120" height="120" viewBox="0 0 120 120" fill="none" xmlns="http://www.w3.org/2000/svg">
<rect width="120" height="120" rx="60" fill="white"/>
<rect x="0.5" y="0.5" width="119" height="119" rx="59.5" stroke="#1B497E" stroke-opacity="0.1"/>
<g clip-path="url(#clip0_16275_5168)">
<path d="M108.189 53.2866C108.189 52.8205 108.603 52.4722 109.097 52.4722C109.592 52.4722 110 52.8205 110 53.2866C110 53.7528 109.586 54.106 109.097 54.106C108.608 54.106 108.189 53.7577 108.189 53.2866ZM109.097 53.9686C109.5 53.9686 109.823 53.6792 109.823 53.2866C109.823 52.8941 109.506 52.6095 109.097 52.6095C108.689 52.6095 108.367 52.899 108.367 53.2866C108.367 53.6743 108.689 53.9686 109.097 53.9686ZM108.909 53.7577H108.753V52.8156H109.146C109.393 52.8156 109.511 52.899 109.511 53.0855C109.511 53.2523 109.393 53.3259 109.242 53.3455L109.538 53.7626H109.361L109.092 53.3553H108.909V53.7626V53.7577ZM109.092 53.2278C109.226 53.2278 109.344 53.218 109.344 53.0757C109.344 52.9579 109.232 52.9383 109.119 52.9383H108.904V53.2278H109.092Z" fill="#231F20"/>
<path d="M79.572 53.0806C79.572 52.6096 79.9911 52.2661 80.4801 52.2661C80.969 52.2661 81.3828 52.6096 81.3828 53.0806C81.3828 53.5516 80.969 53.9 80.4801 53.9C79.9911 53.9 79.572 53.5565 79.572 53.0806ZM80.4801 53.7626C80.8831 53.7626 81.2055 53.4731 81.2055 53.0806C81.2055 52.6881 80.8831 52.4035 80.4801 52.4035C80.0771 52.4035 79.7493 52.693 79.7493 53.0806C79.7493 53.4682 80.0663 53.7626 80.4801 53.7626ZM80.292 53.5516H80.1362V52.6096H80.5284C80.7702 52.6096 80.8938 52.693 80.8938 52.8794C80.8938 53.0462 80.781 53.1198 80.6252 53.1395L80.9153 53.5565H80.738L80.4693 53.1493H80.2866V53.5565L80.292 53.5516ZM80.4801 53.0217C80.6144 53.0217 80.7326 53.0119 80.7326 52.8696C80.7326 52.7519 80.6198 52.7322 80.5069 52.7322H80.292V53.0217H80.4801Z" fill="#231F20"/>
<path d="M21.3433 51.7114C21.698 52.9626 22.015 54.2235 22.2675 55.509C22.3105 55.7691 22.2084 55.9506 22.0419 56.1223C21.9022 56.2794 21.7302 56.3431 21.5314 56.3677C21.2466 56.3677 20.9887 56.2892 20.7899 56.0831C20.1935 55.2784 20.0054 54.3119 19.2801 53.5857C19.092 53.4532 18.8395 53.3649 18.6084 53.4679L18.4365 53.6249L18.5654 65.268C18.6245 65.6311 18.9953 65.9304 19.3768 65.9991C19.6884 65.9206 19.9302 65.6213 19.9893 65.3465L20.0323 64.6939L19.9625 59.0221C19.8496 58.605 19.2478 58.5952 19.1672 58.2027C19.2371 57.9819 19.5111 57.8249 19.726 57.7366C20.5374 57.4127 21.3917 57.2018 22.1762 56.824C22.418 56.8092 22.7189 56.77 22.9338 56.8878L23.0735 57.0693L23.1595 65.214C23.2293 65.4888 23.3153 65.8666 23.7022 65.9304C23.858 66.0481 23.815 66.2542 23.729 66.3965C23.5463 66.6565 23.2025 66.6713 22.9338 66.6958H19.9678C19.726 66.7105 19.538 66.5633 19.3714 66.421C18.732 66.8773 17.6359 66.6958 16.8944 66.735C16.0239 66.6418 14.9439 66.9558 14.1756 66.475C14.0466 66.3867 14.0735 66.2002 14.0896 66.0972C14.2347 65.8372 14.6592 65.9304 14.7451 65.6016L14.8741 65.2386L14.8311 56.3922L14.772 53.62C14.6699 53.4925 14.5141 53.4238 14.3314 53.4385C14.0036 53.463 13.8048 53.7771 13.6329 53.9978C13.246 54.621 12.9935 55.3128 12.6496 55.9506C12.5368 56.1714 12.338 56.3137 12.0962 56.4069C11.7523 56.51 11.4245 56.3824 11.1989 56.1616C10.8013 55.7053 11.1559 55.1067 11.1989 54.6112L11.8544 51.7997C11.9404 51.6575 12.0263 51.4612 12.209 51.4219C12.7517 51.2404 12.8645 51.9273 13.375 51.7997L20.0162 51.7458C20.4138 51.7212 20.6556 51.1472 21.1284 51.4219L21.3433 51.7065V51.7114Z" fill="#231F20"/>
<path d="M62.0178 51.8636L62.1575 52.0451L62.2005 53.9685L62.3026 65.1405C62.3617 65.4545 62.4853 65.7636 62.856 65.9108C62.9688 66.0286 62.9688 66.2199 62.9259 66.3769C62.77 66.7547 62.3133 66.8038 61.9157 66.8038L59.1378 66.7891C58.9121 66.7498 58.6542 66.6713 58.5253 66.4653C58.4285 66.3083 58.4285 66.112 58.5091 65.9452C58.7939 65.7784 59.1056 65.6066 59.1378 65.2583L59.1271 60.0525C59.0841 59.6256 59.1378 59.0123 59.0841 58.61C58.8691 59.0761 59.1109 59.7434 58.5414 60.0133C58.2996 60.1016 58.0417 60.0133 57.8429 59.9102C57.585 59.6894 57.4721 59.3901 57.3862 59.0908C57.2303 58.9486 57.0154 59.0516 56.8596 59.1154C54.6942 60.5186 55.6345 63.2368 55.4518 65.3613C55.425 65.7882 56.0375 65.6361 56.0912 66.0237C56.0912 66.2052 56.0053 66.3622 55.8924 66.4898C55.6936 66.6713 55.3659 66.6615 55.1079 66.6861L52.0453 66.6615C51.8465 66.6223 51.6745 66.48 51.6047 66.3083C51.5456 66.1807 51.5456 65.9942 51.6638 65.8765C51.8518 65.7097 52.1742 65.7489 52.2602 65.4742L52.2763 64.8363L52.2172 58.9682C52.1903 58.4726 51.379 58.5119 51.4488 57.982L51.8357 57.668C52.7169 57.3147 53.6465 57.0547 54.5115 56.6916C54.8393 56.6523 55.1671 56.6523 55.3551 56.9271C55.4411 57.3589 55.3121 57.8642 55.4572 58.3303C55.4841 58.3843 55.57 58.3549 55.613 58.3451C56.1557 57.5895 56.8542 56.7063 57.9342 56.7701C58.3479 56.7946 58.8154 56.824 59.0465 57.1724L59.1056 57.0547L59.0626 54.8566L59.0357 54.8418C59.0787 54.6358 59.0196 54.361 58.9766 54.1255C59.0035 53.6447 58.1653 53.6201 58.4232 53.1C59.1915 52.2807 60.4757 52.3592 61.373 51.7213C61.6148 51.6673 61.8566 51.736 62.0285 51.8538" fill="#231F20"/>
<path d="M100.833 53.3207L101.306 53.2275C101.306 53.2275 100.592 51.7703 100.296 51.0294C100.554 51.0147 100.796 51.0294 101.021 51.0834C101.376 51.6329 102.021 52.7222 102.021 52.7222C102.021 52.7222 103.133 52.1481 103.703 51.8782C103.875 51.9028 104.047 52.0058 104.176 52.1236L102.467 53.5072L102.967 54.7976C102.967 54.7976 104.17 53.2472 104.772 52.5014C104.987 52.5259 105.159 52.6976 105.288 52.8399C105.046 53.2422 104.675 53.62 104.487 54.0126C105.213 54.0665 105.943 54.0371 106.653 54.0911C106.835 54.2873 107.05 54.5081 107.136 54.7534L105.325 54.8859L104.466 56.245L105.637 56.0095C105.637 56.0095 106.55 55.6611 107.507 55.3275C107.679 55.5336 107.776 55.7593 107.845 56.0046L105.895 56.7209L104.154 57.0595C103.896 57.3195 103.756 57.6188 103.558 57.8936C105.11 57.6335 106.62 57.1772 108.189 56.8927C108.888 59.0368 108.49 61.4606 107.222 63.2662C102.993 64.2426 98.5015 63.0061 94.1331 63.5409L92.8651 63.6832C91.9677 62.6823 91.511 61.4606 91.2692 60.1849C91.0543 58.7915 91.2263 57.2852 91.7851 56.0487C91.914 56.0291 93.843 55.8721 93.843 55.8721L92.6555 54.5621C92.6985 54.3413 92.9134 54.1696 93.0692 53.988C93.6872 54.5768 94.8477 55.7838 94.8477 55.7838L95.5033 55.7298L93.4668 53.6102C93.6657 53.3257 94.0095 53.0264 94.3104 52.8301L96.0352 53.1147C96.0352 53.1147 96.0191 52.2708 96.0513 51.7997C96.406 51.6182 96.8036 51.4612 97.1904 51.3974C97.5343 51.9568 97.7922 52.5553 98.1576 53.1147C98.5982 52.467 98.9851 51.736 99.3827 51.0343C99.4257 51.0098 99.5116 50.9804 99.5707 51.0196L100.855 53.3207H100.833ZM99.5546 52.5701L98.6412 54.1548L99.1839 55.7838L99.9845 55.2735L100.199 53.9095C99.9845 53.4532 99.7857 52.9871 99.56 52.5701M96.8895 52.6584V53.4532L97.314 53.5464C97.2173 53.2324 97.0454 52.9479 96.8895 52.6633M94.6543 53.6102V53.6642C95.111 54.0813 96.0245 55.0086 96.0245 55.0086V53.9586L94.6543 53.6053V53.6102ZM101.596 53.9782L101.199 54.2186L101.285 54.4885L101.65 54.1794L101.602 53.9733L101.596 53.9782ZM96.9325 54.3266L96.9916 55.7936L97.6042 54.5179L96.9325 54.3266ZM104.374 54.9399L103.799 55.0037L102.897 56.3088L103.482 56.2941L104.38 54.9399H104.374ZM100.823 55.8966L100.893 57.4078L102.134 55.9653C102.247 55.8574 102.284 55.666 102.284 55.666L102.048 54.984L100.823 55.9016V55.8966ZM98.1415 55.7053L97.7546 56.4069L98.4961 57.1723C98.394 56.667 98.2812 56.1861 98.1415 55.7004M99.8824 56.3382L99.4042 56.5492L99.431 57.1527L99.8233 57.2754L99.8824 56.3382ZM94.9337 56.4167L94.2674 57.3539L95.6215 57.8347L96.7445 56.9368L96.32 56.5198L94.9337 56.4167ZM92.1504 56.6032L93.3272 57.0987L93.6979 56.5394L92.1504 56.5983V56.6032ZM102.273 57.3048L101.645 58.2419L102.359 58.1831L102.999 57.2263L102.273 57.3097V57.3048ZM97.486 57.4962L95.3474 59.0957L94.3212 59.1349C94.3212 59.1349 94.7349 58.7081 94.88 58.4774C94.5092 58.3204 94.0955 58.1585 93.7086 58.0555L92.951 58.9779C92.7092 59.0024 92.4406 58.9779 92.2525 59.0564C92.1934 59.8218 92.3815 60.5382 92.5373 61.2545C92.6071 61.4361 92.6663 61.7501 92.9618 61.7206C95.068 61.7206 97.0507 62.0199 99.1301 62.2162V59.3017C99.028 59.1055 98.754 58.7571 98.6089 58.6001L97.6471 59.1202L95.8794 59.1349C95.8633 59.1104 97.3355 58.3695 98.0018 57.9623C97.8191 57.7955 97.7009 57.5992 97.4752 57.4962M92.3761 57.5354C92.2471 57.7955 92.2633 58.1732 92.2901 58.448C92.4621 58.2027 92.8704 57.7071 92.8704 57.7071L92.3761 57.5354ZM107.416 57.9279L106.663 58.1242C106.862 58.4873 107.319 59.2183 107.319 59.2183L106.405 59.2429L105.594 58.3597C105.196 58.4382 104.288 58.6246 104.288 58.6246L104.654 59.2478L103.998 59.3165L103.488 58.713C103.488 58.713 101.623 59.2085 100.71 59.4686L100.651 59.5471C100.667 60.4842 100.737 61.4066 100.85 62.3045L100.936 62.5008C102.671 62.8001 104.423 62.8786 106.26 62.9669L106.432 62.9031C106.932 62.2505 107.217 61.5244 107.485 60.7835C107.77 59.9249 107.84 58.7424 107.416 57.9328" fill="#231F20"/>
<path d="M40.2783 51.7998L40.3804 52.0353L40.4233 57.0301C40.6383 57.3932 40.8801 56.8191 41.1487 56.7946C41.9439 56.5493 42.8735 56.8191 43.443 57.4079C44.5553 58.4873 44.7272 59.866 44.9959 61.2742L45.0389 61.2349C45.2108 59.6207 45.5654 57.9182 47.1774 57.035C48.0156 56.5689 49.2568 56.6179 50.0681 57.0497C51.0675 57.8544 51.8627 58.8602 51.8198 60.0917C51.8198 60.445 51.8036 60.7443 51.6908 61.0436C50.5087 61.5637 49.2406 61.9415 48.0317 62.4076C47.7469 62.6038 47.9887 62.9277 48.0317 63.1485C48.2305 63.6048 48.4884 64.2426 49.1117 64.3309C49.4556 64.4339 49.9553 64.6302 50.2777 64.3554C50.6484 64.0414 50.3636 63.119 51.1911 63.3545C51.5189 63.4183 51.8198 63.5753 51.9917 63.8599C52.2066 64.7332 51.7768 65.5379 51.3201 66.2003C50.4818 66.8627 49.3105 66.9804 48.2305 66.8528C46.1242 66.4603 45.3666 64.4192 45.0818 62.7265C44.9099 64.2769 44.8132 66.1463 42.9433 66.7743C41.8042 67.0589 40.5201 66.8528 39.7248 66.112C39.6227 65.9844 39.5959 65.7734 39.3971 65.7096C38.9242 65.7243 38.9242 66.2052 38.6824 66.4652C38.3815 66.632 38.0699 66.897 37.683 66.7891C37.5433 66.7253 37.4574 66.5781 37.3714 66.475C36.9738 66.8774 36.3881 66.7498 35.8454 66.7743L33.6962 66.7498C33.4544 66.7105 33.1965 66.5683 33.1427 66.3328C33.0998 66.0972 33.3684 65.9942 33.5404 65.9157C33.7392 65.6017 33.8681 65.2631 33.8251 64.8608C33.7553 63.1435 33.5995 61.4017 33.2986 59.763C33.1857 59.4244 33.0836 59.0319 32.7559 58.816C32.5141 58.7375 32.3421 58.9093 32.1863 59.0123L31.9983 59.2871L32.0144 65.3122C32.1004 65.5968 32.2293 65.9255 32.5839 66.0286C32.6699 66.1316 32.686 66.2886 32.6269 66.4063C32.2293 66.9412 31.4018 66.6811 30.8484 66.7449C30.1499 66.6517 29.0377 67.0049 28.5702 66.3916C28.5111 66.2346 28.5541 66.0531 28.7421 65.9746C29.086 65.8961 29.1666 65.5428 29.2687 65.2975L29.2096 59.0025C29.0968 58.7817 28.8227 58.6541 28.5702 58.6394C28.2693 58.6541 28.0436 58.8994 27.8878 59.1055C27.5762 59.6256 27.7589 60.2095 27.7159 60.8228L27.775 65.3515C27.7589 65.744 28.1887 65.8568 28.3714 66.0923C28.4305 66.3278 28.2586 66.5241 28.0598 66.637C26.8777 66.8332 25.8675 66.6909 24.6693 66.7302C24.4006 66.6762 24.0836 66.6664 23.9278 66.4063C23.8687 66.3033 23.8257 66.1218 23.9547 66.0286C24.2126 65.9108 24.4705 65.7293 24.5242 65.4545L24.5941 65.1159L24.5242 59.0663C24.4544 58.5854 23.643 58.6345 23.7827 58.1193C24.1696 57.6876 24.7929 57.614 25.3195 57.3883C25.803 57.246 26.2759 57.0644 26.7272 56.8436C27.0711 56.8289 27.4956 56.7799 27.6514 57.1037C27.6514 57.3392 27.5493 57.663 27.8233 57.7808C28.2209 57.7562 28.2962 57.3147 28.6186 57.1282C29.258 56.6327 30.3595 56.7357 31.0526 57.035C31.3965 57.2165 31.5254 57.5305 31.778 57.7759C32.2347 57.7759 32.2884 57.2558 32.6162 57.0595C33.2448 56.6964 34.255 56.7995 34.8514 57.1527C35.9314 57.9574 35.9314 59.2576 36.2484 60.391C36.5063 61.912 36.732 63.4477 36.7051 65.0767C36.7642 65.3907 36.7481 65.8961 37.1887 65.9991L37.2908 66.0923L37.3607 65.9648L37.2317 54.3757C37.2156 53.9341 36.9039 53.5808 36.5923 53.2963C36.5332 53.154 36.5923 53.0117 36.689 52.9037C37.3875 52.2953 38.3439 52.2561 39.1553 51.8489C39.4132 51.5643 40.0096 51.5103 40.2675 51.8096M47.3869 58.4726C47.172 59.395 47.2311 60.2144 47.4299 61.1123C47.4998 61.23 47.5427 61.4361 47.7415 61.4263C48.1284 61.2202 48.5959 61.1417 48.9075 60.7884C49.5469 59.866 48.7947 58.8651 48.3111 58.0555C47.9404 57.8347 47.5105 58.1439 47.3869 58.4726ZM41.4174 58.1635C41.2186 58.2174 41.0735 58.3843 40.9768 58.5413C40.3051 59.8415 40.2514 61.2496 40.4233 62.7412C40.5792 63.3643 40.6221 64.0414 41.1487 64.5125C41.3045 64.6008 41.5033 64.4732 41.6484 64.38C42.8305 62.7265 42.4759 60.2585 41.8204 58.4726C41.7075 58.3696 41.6484 58.1193 41.4227 58.1586" fill="#231F20"/>
<path d="M86.874 51.8781L86.917 52.4619L87.046 64.6251C87.046 64.7674 87.1588 64.8998 87.3039 64.9489C87.4436 65.0029 87.6854 65.0127 87.7176 65.209C87.7606 65.415 87.7015 65.626 87.5779 65.783C86.8095 66.1755 85.9821 66.4061 85.1707 66.6662C84.7839 66.7201 84.3863 66.9802 84.0155 66.7447C83.8006 66.5877 84.1713 66.2884 83.8328 66.2001C83.4889 66.3963 83.2471 66.7987 82.8495 66.887C81.9683 67.044 81.0818 66.7054 80.4263 66.1608C79.0185 64.6889 79.1152 62.3877 79.4268 60.4889C79.5827 59.2034 80.1254 58.0063 81.0818 57.0544C81.5385 56.6521 82.1779 56.5343 82.8227 56.6226C83.1665 56.6766 83.3654 56.9219 83.6501 57.0887C83.72 57.074 83.7898 57.0348 83.806 56.971L83.7898 54.1203C83.6931 53.5855 82.4089 53.458 83.0806 52.7563C83.3385 52.614 83.7092 52.7318 83.9779 52.5993C84.7892 52.1823 85.6866 51.9222 86.5301 51.5444C86.686 51.5984 86.8418 51.7014 86.8848 51.8683M82.7851 58.1878C82.5271 58.2516 82.4734 58.5018 82.3713 58.6833C82.0274 59.856 81.7427 61.166 81.9468 62.4417C82.1295 63.1728 82.1725 63.9627 82.8442 64.5122C83 64.576 83.2149 64.5907 83.3277 64.4337C84.166 62.9765 84.0692 61.0924 83.6663 59.4782C83.4674 59.0121 83.3815 58.3841 82.7851 58.1927" fill="#231F20"/>
<path d="M77.7719 57.8496C78.1158 58.3452 78.2985 58.8751 78.4275 59.4491C78.7713 61.2841 79.0669 63.1682 79.1851 65.0572C79.2012 65.2927 79.2549 65.5233 79.4 65.7196C79.5719 65.8521 79.8245 65.8766 79.8245 66.1121C79.8245 66.3329 79.6848 66.4899 79.4806 66.5782C78.4543 66.7499 77.2722 66.6567 76.1922 66.6567C75.9666 66.6175 75.7086 66.4997 75.6227 66.2789C75.5797 66.1219 75.6066 65.9158 75.8107 65.8472C76.2352 65.6901 76.2084 65.2486 76.2943 64.91C76.3212 63.0357 75.8645 61.1517 75.2949 59.3951C75.209 59.1842 75.0531 58.9536 74.8113 58.8358C74.6233 58.7818 74.4137 58.8603 74.3546 59.0026L74.2955 59.2381L74.3815 65.3025C74.3654 65.7196 74.8382 65.7981 74.994 66.1072C75.037 66.328 74.8113 66.4997 74.6394 66.588C73.6292 66.7548 72.3612 66.6763 71.3188 66.6518C71.0878 66.6126 70.8352 66.4703 70.7654 66.2495C70.6633 66.3133 70.5075 66.485 70.3785 66.588C69.9916 66.8726 69.5081 66.902 69.0513 66.8726C68.5248 66.7696 68.154 66.431 67.7295 66.1023H67.4716C66.671 66.8039 65.4943 67.2111 64.4358 66.7794C63.5546 66.5341 62.7379 65.7637 62.6251 64.9051C62.3994 63.7619 62.4854 62.4617 63.5385 61.7159C64.366 60.8965 65.4352 60.5825 66.4884 60.2587C66.714 59.8416 66.671 59.2725 66.5313 58.826C66.3916 58.5512 66.2895 58.2519 65.9457 58.1096L64.9785 58.0311C64.8818 58.0459 64.7636 58.0802 64.7367 58.1881C64.8334 58.4237 65.1773 58.4482 65.2472 58.723C65.3331 59.1155 65.3331 59.6356 64.9892 59.9349C64.4895 60.2194 63.6943 60.3519 63.1785 59.9986C62.7379 59.6748 62.6251 59.2185 62.6251 58.723C62.609 57.9281 63.3773 57.359 64.0919 57.0989C65.1182 56.7849 66.2143 56.8242 67.3266 56.9419C68.0519 57.0204 68.7075 57.4473 69.0191 58.0753C69.406 59.0124 69.5188 60.0673 69.6478 61.0928C69.7498 62.2654 69.8036 63.5117 69.8734 64.6941C69.9003 64.8217 69.9755 64.9444 70.1152 64.9934C70.3409 64.9689 70.6418 64.9934 70.6687 65.2387C70.7707 65.4448 70.8245 65.6951 70.8245 65.9011C71.0394 65.8766 71.2812 65.7196 71.351 65.5135L71.48 65.121L71.4101 58.9928C71.3672 58.4874 69.9701 58.2617 70.9534 57.7564C71.7487 57.4031 72.5922 57.1333 73.3767 56.7407C73.6346 56.7162 73.9463 56.7162 74.1612 56.8683C74.317 57.0498 74.2042 57.3099 74.3869 57.4816C74.6448 57.3884 74.6448 57.1284 74.8436 56.9763C75.1982 56.6917 75.6549 56.5101 76.1654 56.6377C76.8048 56.8438 77.3904 57.2903 77.7612 57.8349M66.1176 61.6472C65.0913 62.182 65.3761 63.3645 65.3492 64.2476C65.446 64.6009 65.5642 65.0523 66.0209 65.1848C66.3755 65.2878 66.7463 65.1848 66.9612 64.9247C67.0042 63.8551 66.8913 62.7119 66.7892 61.5932C66.6603 61.3332 66.2895 61.4902 66.1176 61.6472Z" fill="#231F20"/>
<path d="M106.889 63.7423C106.362 64.39 105.675 65.0573 104.906 65.5234C100.919 65.4694 97.255 64.4832 93.3702 64.3115C93.2413 64.2085 93.1123 64.0907 93.0693 63.9337C96.1052 63.4529 99.1786 63.7276 102.188 63.8944C103.757 63.9582 105.406 63.8699 106.905 63.6099L106.894 63.7374L106.889 63.7423Z" fill="#231F20"/>
<path d="M100.919 65.474C102.075 65.5918 103.241 65.6801 104.396 65.8126C101.989 67.3483 98.1577 67.3728 95.6646 66.0333C94.9822 65.6457 94.2568 65.2287 93.7141 64.6399C93.741 64.5614 93.886 64.6252 93.972 64.5859L95.6216 64.7135L100.919 65.4691V65.474Z" fill="#231F20"/>
</g>
<defs>
<clipPath id="clip0_16275_5168">
<rect width="99" height="16" fill="white" transform="translate(11 51)"/>
</clipPath>
</defs>
</svg>
