<?xml version="1.0" encoding="UTF-8" standalone="no"?>
<svg
   xmlns:dc="http://purl.org/dc/elements/1.1/"
   xmlns:cc="http://creativecommons.org/ns#"
   xmlns:rdf="http://www.w3.org/1999/02/22-rdf-syntax-ns#"
   xmlns:svg="http://www.w3.org/2000/svg"
   xmlns="http://www.w3.org/2000/svg"
   height="512pt"
   viewBox="0 0 512 512"
   width="512pt"
   version="1.1"
   id="svg6">
  <metadata
     id="metadata12">
    <rdf:RDF>
      <cc:Work
         rdf:about="">
        <dc:format>image/svg+xml</dc:format>
        <dc:type
           rdf:resource="http://purl.org/dc/dcmitype/StillImage" />
        <dc:title></dc:title>
      </cc:Work>
    </rdf:RDF>
  </metadata>
  <defs
     id="defs10" />
  <ellipse
     style="fill:#ffffff;stroke:none;stroke-width:2.66572;stroke-linejoin:round;fill-opacity:1"
     id="path11"
     cx="257.65063"
     cy="257.38486"
     rx="225.9976"
     ry="207.24442" />
  <path
     style="mix-blend-mode:normal;fill:#6fcb5a;fill-opacity:1;stroke:none;stroke-width:0.777525"
     d="M 326.1716,681.81938 C 249.7223,678.68335 174.98695,648.68354 117.16875,597.92269 106.42273,588.48834 88.62133,570.4212 80.384606,560.58945 31.892183,502.70647 3.6247314,429.97042 0.91621541,356.1063 -1.3383527,294.62183 10.683135,239.53807 37.992848,186.21716 57.931081,147.28871 84.073642,113.79848 117.27686,84.649462 175.28823,33.721444 250.42115,3.6838891 326.75475,0.90185274 386.7438,-1.2844945 441.14893,10.296212 493.33941,36.361155 c 35.55963,17.759174 63.72317,38.406001 92.13667,67.545835 26.24522,26.91612 44.35429,52.44524 61.38693,86.53977 17.17389,34.37727 27.58043,69.32671 33.23643,111.62158 1.94916,14.57567 1.94916,63.95432 0,78.52999 -5.61889,42.01735 -15.62514,75.81341 -32.70593,110.46411 -18.17754,36.87562 -39.34084,65.9594 -68.99216,94.81286 -26.1659,25.46182 -52.70961,44.26916 -85.54288,60.61074 -42.21587,21.01144 -89.51101,33.48405 -132.86454,35.03888 -6.20076,0.22238 -13.19849,0.50879 -15.5505,0.63645 -2.35201,0.12766 -10.57433,-0.0262 -18.27183,-0.34199 z M 209.48001,526.5121 l 41.1459,-10.78214 10.17073,4.88287 c 43.01439,20.65079 94.02511,25.28352 140.83711,12.79066 20.83732,-5.56093 41.67895,-14.96318 59.41616,-26.80432 13.51721,-9.02392 20.74992,-14.92313 31.96893,-26.0748 33.16271,-32.96366 53.92568,-76.16948 59.043,-122.86302 1.28045,-11.68363 1.09155,-35.07962 -0.37922,-46.96644 -3.93869,-31.83267 -14.9487,-61.77884 -32.22438,-87.64714 -8.96074,-13.41767 -16.86641,-22.81401 -29.43611,-34.98652 -32.73132,-31.69702 -75.27573,-51.36593 -120.98677,-55.93398 -13.39682,-1.33878 -41.04411,-0.54724 -52.97158,1.51659 -44.16954,7.6427 -80.72837,26.37278 -111.99901,57.38011 -31.16327,30.90088 -51.12592,70.43735 -58.03117,114.93199 -2.19554,14.14715 -2.39893,44.19939 -0.38838,57.38536 3.76402,24.68594 10.96828,47.19592 21.5193,67.2378 l 3.88927,7.38773 -14.38339,52.48485 c -7.91086,28.86666 -14.38338,52.75072 -14.38338,53.0757 0,0.32496 5.86059,-0.94455 13.02353,-2.82116 7.16295,-1.8766 31.5392,-8.26396 54.16946,-14.19414 z"
     id="path16"
     transform="scale(0.74999998)" />
  <path
     style="mix-blend-mode:normal;fill:#6fcb5a;fill-opacity:1;stroke-width:0.777525"
     d="m 329.67046,503.79272 c -22.10816,-3.00974 -41.1208,-9.14553 -61.96305,-19.99682 l -11.42393,-5.94775 -4.82259,0.99608 c -2.65242,0.54785 -16.75109,4.096 -31.33037,7.88477 -14.57928,3.78877 -26.63187,6.76458 -26.78354,6.61292 -0.15167,-0.15167 3.46547,-13.96716 8.03808,-30.70108 l 8.31384,-30.42533 -3.92051,-6.39304 c -11.38825,-18.57043 -20.0307,-41.08874 -23.9219,-62.32968 -1.69257,-9.23925 -2.33566,-35.73994 -1.12604,-46.40252 4.01516,-35.39296 20.35388,-70.66462 44.36294,-95.76973 16.6151,-17.3736 29.08394,-26.67916 49.01814,-36.58249 17.97573,-8.93037 36.99635,-14.57921 56.70483,-16.84047 11.62438,-1.33373 36.06433,-0.5482 47.06063,1.51258 28.96187,5.42766 54.27285,16.95798 76.24327,34.73234 8.73503,7.06675 22.50049,21.2129 28.8193,29.61631 30.95608,41.16861 41.8081,93.44018 29.49998,142.09429 -8.7249,34.48961 -27.33295,64.77365 -53.69998,87.3951 -24.15317,20.72209 -53.22877,34.3074 -84.36143,39.41711 -8.90748,1.46196 -37.03921,2.17137 -44.70767,1.12741 z m 87.86029,-71.0931 c 9.97779,-2.53847 22.8063,-10.90271 28.82539,-18.79427 3.89873,-5.11157 7.74917,-22.59976 6.27185,-28.48587 -0.58999,-2.35069 -3.06156,-3.85271 -21.36191,-12.98207 -24.21733,-12.08111 -30.33945,-14.07015 -34.05891,-11.06552 -0.91464,0.73885 -4.46997,4.84223 -7.90074,9.11862 -3.43077,4.27638 -7.99632,9.66026 -10.14566,11.96416 -3.58876,3.84683 -4.11824,4.14867 -6.48347,3.6961 -3.80592,-0.72823 -20.89763,-9.2568 -28.5595,-14.25087 -3.66966,-2.3919 -9.18475,-6.40199 -12.25579,-8.91131 -11.07097,-9.04602 -25.18847,-25.87248 -31.36461,-37.38306 -2.83888,-5.29087 -3.18442,-4.32754 5.96593,-16.63226 7.36286,-9.90105 9.17615,-13.49721 8.50293,-16.8633 -0.62759,-3.13796 -11.51464,-30.25431 -15.99758,-39.84513 -5.12063,-10.9551 -5.56299,-11.234 -17.80398,-11.22489 -9.42452,0.007 -9.96458,0.0968 -13.79247,2.29226 -4.81136,2.75957 -10.96952,9.45396 -15.18934,16.51199 -14.11502,23.60864 -9.55379,52.53958 13.33787,84.59923 23.86742,33.42622 50.75364,58.16351 78.52907,72.25249 14.90898,7.56252 41.79779,17.22263 44.76725,16.08315 0.61135,-0.2346 1.11155,-0.10681 1.11155,0.28397 0,1.82031 20.05667,1.55623 27.60212,-0.36342 z"
     id="path841"
     transform="scale(0.74999998)" />
</svg>
