<svg width="120" height="120" viewBox="0 0 120 120" fill="none" xmlns="http://www.w3.org/2000/svg">
<rect width="120" height="120" rx="60" fill="white"/>
<rect x="0.5" y="0.5" width="119" height="119" rx="59.5" stroke="#1B497E" stroke-opacity="0.1"/>
<g clip-path="url(#clip0_16275_5144)">
<path d="M25.7492 73.3546C26.7525 73.3546 27.322 72.9097 27.322 72.1278V72.0873C27.322 71.3593 26.8068 70.8875 25.7085 70.8875H23.2V73.3546H25.7492ZM25.2746 68.2856C26.278 68.2856 26.8339 67.9081 26.8339 67.1127V67.0723C26.8339 66.3443 26.3186 65.9264 25.3424 65.9264H23.2V68.2721H25.2746V68.2856ZM20 62.9604H26.0881C27.5797 62.9604 28.6373 63.3784 29.3288 64.1603C29.8034 64.6995 30.0881 65.4006 30.0881 66.3173V66.3578C30.0881 67.9081 29.3017 68.8248 28.2576 69.3371C29.6949 69.8764 30.6169 70.7931 30.6169 72.5996V72.6401C30.6169 74.9319 28.9492 76.334 26.1153 76.334H20V62.9604Z" fill="#231F20"/>
<path d="M32.5562 62.9604H42.1019L40.3663 66.1151H35.8104V68.1373H41.5189L39.7697 71.0627H35.8104V73.1793H42.1968L40.4477 76.334H32.5562V62.9604Z" fill="#231F20"/>
<path d="M44.2983 62.9604H47.5797V73.085H53.3424V76.334H44.2983V62.9604Z" fill="#231F20"/>
<path d="M55.2407 64.6995L58.5492 62.9604V76.334H55.2407V64.6995Z" fill="#231F20"/>
<path d="M61.5186 62.9604H64.583L69.4779 70.0247V62.9604H72.7321V76.334H69.844L64.7728 69.0001V76.334H61.5186V62.9604Z" fill="#231F20"/>
<path d="M80.2575 73.0445C82.2236 73.0445 83.5389 71.8177 83.5389 69.6607V69.6202C83.5389 67.4767 82.2372 66.2364 80.2575 66.2364H78.9151V73.0445H80.2575ZM75.6338 62.9604H80.2168C84.4609 62.9604 86.9151 65.7106 86.9151 69.5663V69.6068C86.9151 73.4624 84.4202 76.334 80.149 76.334H75.6338V62.9604Z" fill="#231F20"/>
<path d="M93.3289 67.2611L94.6577 71.0629H91.9865L93.3289 67.2611ZM91.7695 62.8662L86.7119 76.3341H90.1695L91.0238 73.9479H95.6068L96.4746 76.3341H100L94.9424 62.8662H91.7695Z" fill="#231F20"/>
<path d="M37.7899 83.7619C38.2509 83.7619 38.5221 83.4788 38.5221 83.1013C38.5221 82.6564 38.2373 82.4273 37.7763 82.4273H37.0577V83.7619H37.7899ZM36.1221 81.5645H37.8441C38.8475 81.5645 39.4577 82.1846 39.4577 83.0744C39.4577 84.0989 38.6983 84.6247 37.7492 84.6247H37.0441V85.9324H36.1221V81.5645Z" fill="#231F20"/>
<path d="M42.1831 81.5645V85.9324H45.3967V85.0696H43.1051V84.1529H45.0848V83.3036H43.1051V82.4138H45.356V81.5645H42.1831Z" fill="#231F20"/>
<path d="M50.4812 83.681C50.9286 83.681 51.1862 83.4384 51.1862 83.0609C51.1862 82.6295 50.9151 82.4273 50.454 82.4273H49.532V83.681H50.4676H50.4812ZM48.6235 81.5645H50.549C51.0913 81.5645 51.4981 81.7262 51.7829 82.0093C52.0134 82.252 52.149 82.589 52.149 83.007C52.149 83.7215 51.7829 84.1664 51.2405 84.3686L52.271 85.9324H51.1862L50.2778 84.5304H49.5456V85.9324H48.6235V81.5645Z" fill="#231F20"/>
<path d="M55.3765 81.5645V85.9324H58.59V85.0696H56.2985V84.1529H58.2917V83.3036H56.2985V82.4138H58.5629V81.5645H55.3765Z" fill="#231F20"/>
<path d="M61.627 83.7622C61.627 82.5085 62.5625 81.4839 63.8371 81.4839C64.5964 81.4839 65.0575 81.6996 65.4914 82.0771L64.9083 82.8051C64.5829 82.522 64.2981 82.3602 63.81 82.3602C63.132 82.3602 62.6032 82.9803 62.6032 83.7218C62.6032 84.5307 63.132 85.1239 63.8778 85.1239C64.2168 85.1239 64.5151 85.0295 64.7456 84.8542V84.2341H63.81V83.3982H65.6405V85.2991C65.2066 85.6766 64.61 85.9867 63.8371 85.9867C62.5219 85.9867 61.627 85.0295 61.627 83.7353" fill="#231F20"/>
<path d="M70.8066 83.681C71.2541 83.681 71.5117 83.4384 71.5117 83.0609C71.5117 82.6295 71.2405 82.4273 70.7795 82.4273H69.8575V83.681H70.7931H70.8066ZM68.9354 81.5645H70.8609C71.3897 81.5645 71.81 81.7262 72.0812 82.0093C72.3117 82.252 72.4473 82.589 72.4473 83.007C72.4473 83.7215 72.0812 84.1664 71.5388 84.3686L72.5693 85.9324H71.4846L70.5761 84.5304H69.8439V85.9324H68.9219V81.5645H68.9354Z" fill="#231F20"/>
<path d="M75.7422 85.9324H76.6642V81.5644H75.7422V85.9324ZM76.271 80.5938L75.81 81.2139H76.7049L77.193 80.5938H76.271Z" fill="#231F20"/>
<path d="M82.9561 81.5645V84.2472L80.9764 81.5645H80.1357V85.9324H81.0442V83.1553L83.0917 85.9324H83.8646V81.5645H82.9561Z" fill="#231F20"/>
<path d="M55.6608 47.2008H51.0913V45.3H55.6608V43.1969H48.9761V49.2904H55.6608V47.1873V47.2008ZM58.549 38.8154H56.4066V57.6893H63.2947C67.2812 57.6893 70.5218 54.4808 70.5625 50.5172C70.5625 50.4903 70.5625 50.4633 70.5625 50.4364C70.5625 50.3015 70.5625 50.1532 70.5625 50.0184C70.5625 49.978 70.5625 49.9375 70.5625 49.9106C70.5625 49.8027 70.549 49.6949 70.5354 49.587C70.5354 49.5466 70.5354 49.5196 70.5354 49.4792C70.4947 49.1961 70.4405 48.913 70.3727 48.6433C70.3727 48.6298 70.3727 48.6164 70.3727 48.6029C70.332 48.4681 70.3049 48.3467 70.2642 48.2119C70.2642 48.2119 70.2642 48.185 70.2642 48.1715C70.21 48.0232 70.1557 47.8749 70.1015 47.7266C70.1015 47.7131 70.0879 47.6862 70.0744 47.6862C69.9659 47.43 69.8439 47.1739 69.7083 46.9312C69.2608 47.5109 68.7184 48.0367 68.1218 48.4816C68.2439 48.7916 68.3388 49.1017 68.4066 49.4118V49.4253C68.4337 49.5735 68.4608 49.7084 68.4744 49.8567C68.4744 49.8836 68.4744 49.9106 68.4744 49.9375C68.4879 50.0993 68.5015 50.2611 68.5015 50.4094C68.5015 53.2405 66.1829 55.5458 63.3354 55.5458H58.5896V38.8154H58.549ZM59.2405 49.3039H63.3761C67.3354 49.3039 70.5625 46.0954 70.5625 42.1588C70.5625 38.2222 67.3354 35.0137 63.3761 35.0137H52.5693V42.4823H54.671V37.0898H63.3625C66.1693 37.0898 68.4473 39.3547 68.4473 42.1453C68.4473 44.936 66.1693 47.2008 63.3625 47.2008H59.2269V49.2904L59.2405 49.3039ZM59.2405 45.3134H63.2947C64.1083 45.3134 64.9083 45.5022 65.6269 45.8527C66.2507 45.4752 66.7795 44.9494 67.1456 44.3158C66.8473 44.1271 66.5218 43.9653 66.1964 43.817C66.1829 43.817 66.1557 43.79 66.1286 43.79C65.5591 43.5474 64.949 43.3856 64.3252 43.2912C64.3117 43.2912 64.2845 43.2912 64.2574 43.2912C64.1218 43.2777 63.9998 43.2643 63.8642 43.2508C63.8235 43.2508 63.7829 43.2508 63.7557 43.2508C63.6066 43.2508 63.4439 43.2373 63.2947 43.2373H59.2405V45.3404V45.3134ZM52.61 57.7298H54.6981V50.0319H52.61V57.7298Z" fill="#231F20"/>
</g>
<defs>
<clipPath id="clip0_16275_5144">
<rect width="80" height="51" fill="white" transform="translate(20 35)"/>
</clipPath>
</defs>
</svg>
