<svg width="120" height="120" viewBox="0 0 120 120" fill="none" xmlns="http://www.w3.org/2000/svg">
<rect width="120" height="120" rx="60" fill="white"/>
<rect x="0.5" y="0.5" width="119" height="119" rx="59.5" stroke="#1B497E" stroke-opacity="0.1"/>
<g clip-path="url(#clip0_16275_5151)">
<path d="M37.1996 52.042V51.3948C37.1996 49.5171 35.6436 48 33.7177 48H23.9138C21.9987 48 20.4427 49.5171 20.4427 51.3948V51.8086C20.4427 53.8879 18.8105 55.5959 16.7213 55.7763L16.4711 55.7975C14.556 55.7975 13 57.3146 13 59.1817V59.8289C13 61.696 14.556 63.2237 16.4711 63.2237H16.7758C18.8323 63.4253 20.4427 65.1227 20.4427 67.1808V67.6158C20.4427 69.4829 21.9987 71 23.9247 71H33.7286C35.6436 71 37.1996 69.4829 37.1996 67.6158V66.958C37.1996 65.0909 35.6436 63.5738 33.7286 63.5738L24.1749 63.5526C21.9443 63.5101 20.4536 61.6642 20.4536 59.5849V59.4151C20.4536 57.3358 22.0857 55.6278 24.1749 55.4474H33.7286C35.6436 55.4368 37.1996 53.9091 37.1996 52.042Z" fill="#1D1D1B"/>
<path d="M37.1996 52.042V51.3948C37.1996 49.5171 35.6436 48 33.7177 48H23.9138C21.9987 48 20.4427 49.5171 20.4427 51.3948V51.8086C20.4427 53.8879 18.8105 55.5959 16.7213 55.7763L16.4711 55.7975C14.556 55.7975 13 57.3146 13 59.1817V59.8289C13 61.696 14.556 63.2237 16.4711 63.2237H16.7758C18.8323 63.4253 20.4427 65.1227 20.4427 67.1808V67.6158C20.4427 69.4829 21.9987 71 23.9247 71H33.7286C35.6436 71 37.1996 69.4829 37.1996 67.6158V66.958C37.1996 65.0909 35.6436 63.5738 33.7286 63.5738L24.1749 63.5526C21.9443 63.5101 20.4536 61.6642 20.4536 59.5849V59.4151C20.4536 57.3358 22.0857 55.6278 24.1749 55.4474H33.7286C35.6436 55.4368 37.1996 53.9091 37.1996 52.042Z" fill="#E75025"/>
<path d="M48.4834 63.3829L46.5683 62.8843C46.5683 62.8843 45.9263 63.6482 45.6978 63.7543H43.3802C43.119 63.6057 42.4879 63.1283 42.4879 62.9055V57.3995C42.4879 57.3995 42.4661 57.3041 42.5097 57.2086C42.6946 56.9115 43.119 56.5402 43.3475 56.4129C43.3475 56.4129 43.4019 56.3917 43.4237 56.3917H45.6978C45.9481 56.5402 46.5683 57.2404 46.5683 57.2404L48.4834 56.6994C48.3093 56.4235 48.2331 56.2538 48.0808 56.0522C47.5912 55.4263 46.7533 54.5352 45.6978 54.5352H43.3475C42.9449 54.5352 42.4988 54.7049 42.1941 54.864C41.7915 55.0868 41.0516 55.8613 40.834 56.1795C40.6055 56.5084 40.5293 56.8691 40.5293 57.2192V62.9162C40.5293 63.2662 40.6055 63.6376 40.834 63.9664C41.0625 64.2953 41.8024 65.0379 42.1941 65.2607C42.4988 65.4411 42.9558 65.5896 43.3475 65.5896H45.6978C46.7642 65.5896 47.5912 64.6984 48.0808 64.0725C48.2331 63.8709 48.342 63.68 48.4834 63.3723" fill="#231F20"/>
<path d="M60.1915 65.4942V54.5459H58.2112V59.1183H54.1199V54.5459H52.1504V65.4942H54.1199V60.9643H58.2112V65.4942H60.1915Z" fill="#231F20"/>
<path d="M69.6145 61.3352H66.6005L68.113 57.028L69.6145 61.3352ZM73.1618 65.4938L69.2555 54.5137H66.9596L63.0532 65.4938H65.1424L65.9802 63.1599H70.2457L71.0617 65.4938H73.1618Z" fill="#231F20"/>
<path d="M81.9103 58.6302L81.8885 58.7045C81.7362 58.9591 81.3553 59.3198 81.1812 59.3198H77.8842V56.413H81.1812C81.1812 56.413 81.2356 56.4342 81.2792 56.4342C81.4641 56.4554 81.7906 56.8161 81.8994 57.0283V58.6408L81.9103 58.6302ZM84.5435 65.4941L81.8667 61.0172C82.0952 60.9854 82.3999 60.8687 82.5523 60.7626C82.8134 60.5822 83.3901 60.02 83.5533 59.7866C83.7818 59.4577 83.8906 59.0652 83.8906 58.6727V57.1025C83.8906 56.71 83.7818 56.3069 83.5533 55.978C83.3792 55.734 82.8134 55.1611 82.5523 54.9808C82.1932 54.7262 81.66 54.5776 81.203 54.5776H75.9365V65.5048H77.906V61.1657H79.7014L82.2258 65.5048H84.5435V65.4941Z" fill="#231F20"/>
<path d="M94.7498 65.494V63.6481H89.7662V54.5669H87.8076V65.494H94.7498Z" fill="#231F20"/>
<path d="M102.813 54.5669L100.463 58.5452L98.1123 54.5669H95.936L99.4833 60.5503V65.494H101.431V60.5503L105 54.5669H102.813Z" fill="#231F20"/>
</g>
<defs>
<clipPath id="clip0_16275_5151">
<rect width="92" height="23" fill="white" transform="translate(13 48)"/>
</clipPath>
</defs>
</svg>
