<svg width="120" height="120" viewBox="0 0 120 120" fill="none" xmlns="http://www.w3.org/2000/svg">
<rect width="120" height="120" rx="60" fill="white"/>
<rect x="0.5" y="0.5" width="119" height="119" rx="59.5" stroke="#1B497E" stroke-opacity="0.1"/>
<g clip-path="url(#clip0_16275_5155)">
<path d="M102.732 59.5037L97.7509 65.0074H102.011L106.993 59.5037L102.011 54H97.7509L102.732 59.5037ZM97.7509 56.3429L96.3527 58.2954L94.0805 57.5512L95.486 59.5037L94.0805 61.4561L96.3527 60.712L97.7509 62.6644V60.2478L100.016 59.5037L97.7509 58.7595V56.3429ZM56.4144 55.1125H63.3548V57.4555H58.723V58.3912H62.8887V60.4983H58.723V61.5519H63.3548V63.8948H56.4144V55.1125ZM30.6409 59.5184C30.6409 58.288 29.6578 57.2934 28.4415 57.2934C27.2253 57.2934 26.2422 58.288 26.2422 59.5184C26.2422 60.7488 27.2253 61.7435 28.4415 61.7435C29.6578 61.7435 30.6409 60.7488 30.6409 59.5184ZM33.1389 59.5184C33.1389 62.0898 31.0342 64.1822 28.4488 64.1822C25.8635 64.1822 23.7588 62.0898 23.7588 59.5184C23.7588 56.9471 25.8635 54.8547 28.4488 54.8547C31.0342 54.8547 33.1389 56.9471 33.1389 59.5184ZM82.4864 61.2425V61.2646C82.4864 63.1139 80.957 64.2117 78.7795 64.2117C77.1919 64.2117 75.597 63.7107 74.4973 62.7086L75.8956 61.0362C76.7768 61.7508 77.8036 62.1266 78.8378 62.1266C79.5005 62.1266 79.9375 61.8908 79.9375 61.5077V61.4782C79.9375 61.1025 79.5952 60.8962 78.3863 60.6088C76.4782 60.1668 74.9634 59.6216 74.9634 57.7649V57.7428C74.9634 56.063 76.2524 54.8473 78.4008 54.8473C79.9229 54.8473 81.0881 55.2599 82.064 56.0482L80.673 57.706C79.7918 57.1829 79.1437 56.925 78.3571 56.925C77.7527 56.925 77.5123 57.1829 77.5123 57.507V57.5291C77.5123 57.9417 77.8619 58.1259 79.1072 58.4059C81.1683 58.8553 82.4864 59.5332 82.4864 61.2277M84.4236 55.1125H91.364V57.4555H86.7322V58.3912H90.8979V60.4983H86.7322V61.5519H91.364V63.8948H84.4236V55.1125ZM70.5282 57.9196C70.5282 57.6397 70.2952 57.4481 70.0184 57.4481H67.9793V58.3838H70.0184C70.3025 58.3838 70.5282 58.1996 70.5282 57.9123M73.3758 63.8875H70.7686L69.2756 60.8299C69.2173 60.7415 69.1227 60.7267 69.0134 60.7267H67.972V63.8875H65.6561V55.1125H70.084C71.5842 55.1125 72.8441 56.2472 72.9534 57.706C73.0335 58.789 72.4946 59.7689 71.5769 60.3068L73.3758 63.8875ZM51.9574 55.1125H54.6155L51.7826 63.8948H47.9956L45.1699 55.1125H47.8281L49.758 61.3456C49.7871 61.434 49.8527 61.434 49.8964 61.434C49.9401 61.434 50.0347 61.434 50.0347 61.3456V61.3603L51.9646 55.1125H51.9574ZM41.0697 55.1125H43.3856V63.8948H40.742L37.2536 58.9806V63.8948H34.9377V55.1125H37.3119L41.0697 60.071V55.1125ZM16.5489 59.5184C16.5489 60.7341 17.5903 61.7656 18.8138 61.7656C19.4765 61.7656 20.1174 61.4488 20.5689 60.9036L20.7292 60.7046L22.7975 62.1413L22.6081 62.3771C21.6905 63.5191 20.3068 64.1748 18.8065 64.1748C16.1484 64.1748 13.9927 62.0824 13.9927 59.5111C13.9927 56.9397 16.1629 54.862 18.8138 54.862C20.3213 54.862 21.7196 55.5251 22.63 56.6818L22.8193 56.9176L20.751 58.3543L20.5908 58.1554C20.1466 57.6028 19.4838 57.2713 18.8138 57.2713C17.583 57.2713 16.5489 58.3027 16.5489 59.5184Z" fill="#231F20"/>
</g>
<defs>
<clipPath id="clip0_16275_5155">
<rect width="93" height="11" fill="white" transform="translate(14 54)"/>
</clipPath>
</defs>
</svg>
