<svg width="120" height="120" viewBox="0 0 120 120" fill="none" xmlns="http://www.w3.org/2000/svg">
<rect width="120" height="120" rx="60" fill="white"/>
<rect x="0.5" y="0.5" width="119" height="119" rx="59.5" stroke="#1B497E" stroke-opacity="0.1"/>
<g clip-path="url(#clip0_16275_5165)">
<mask id="mask0_16275_5165" style="mask-type:luminance" maskUnits="userSpaceOnUse" x="27" y="31" width="66" height="57">
<path d="M93 31H27V88H93V31Z" fill="white"/>
</mask>
<g mask="url(#mask0_16275_5165)">
<path d="M58.2844 53.0534C56.7885 55.3193 55.9336 57.9246 55.9336 60.6873C55.9336 63.5955 56.8834 66.3582 58.5219 68.7453L58.6287 68.6121C60.0653 66.3825 60.8845 63.8257 60.8845 61.1235C60.8845 58.2881 59.9822 55.598 58.415 53.2473L58.2844 53.0534ZM67.2245 75.4341C69.7415 76.4277 72.5434 76.9851 75.4997 76.9851H78.3492L78.5154 69.8723H89.8063V87.9877H77.0194C70.0502 87.9877 63.5915 86.1337 58.2963 82.9953L58.1182 83.0923C52.8942 86.0126 46.578 87.7332 39.775 87.7332H27V69.7996H38.2909V77.1669H41.3184C44.2747 77.1669 47.0648 76.6337 49.5699 75.6765L49.7598 75.6159C46.388 71.3263 44.429 66.2371 44.429 60.8085C44.429 55.3799 46.3168 50.533 49.5818 46.3646L49.3206 46.2434C46.8748 45.3225 44.1797 44.8015 41.3303 44.8015H38.4808L38.3146 63.438H27V33.811H39.7868C46.6373 33.811 52.9892 35.6044 58.2369 38.6459L58.4981 38.8034C63.7577 35.8104 70.1452 34.0655 77.0313 34.0655H89.8181V50.0725H78.5273V44.6318H75.4997C72.4722 44.6318 69.599 45.2013 67.0464 46.2071L67.2245 46.401C70.5014 50.642 72.401 55.6707 72.401 61.0024C72.401 66.334 70.5607 71.1446 67.3788 75.2645L67.2364 75.4462L67.2245 75.4341Z" fill="#231F20"/>
</g>
<path d="M84.1668 52.5083L85.6271 57.0402L90.0081 55.3801L87.4436 59.3788L91.4447 61.8387L86.7906 62.2749L87.408 67.0128L84.1668 63.5714L80.9255 67.0128L81.5429 62.2749L76.877 61.8387L80.8899 59.3788L78.3254 55.3801L82.7064 57.0523L84.1668 52.5083Z" fill="#231F20"/>
<mask id="mask1_16275_5165" style="mask-type:luminance" maskUnits="userSpaceOnUse" x="27" y="31" width="66" height="57">
<path d="M93 31H27V88H93V31Z" fill="white"/>
</mask>
<g mask="url(#mask1_16275_5165)">
<path d="M91.409 31C90.5186 31 89.8181 31.727 89.8181 32.6237C89.8181 33.5204 90.5186 34.2474 91.409 34.2474C92.2995 34.2474 93 33.5204 93 32.6237C93 31.727 92.2876 31 91.409 31ZM91.409 33.8597C90.7204 33.8597 90.2337 33.3386 90.2337 32.6237C90.2337 31.9088 90.7086 31.3878 91.409 31.3878C92.1095 31.3878 92.5844 31.8967 92.5844 32.6237C92.5844 33.3508 92.0977 33.8597 91.409 33.8597ZM91.1122 32.5026V32.0179H91.5753C91.7296 32.0179 91.9196 32.03 91.9196 32.236C91.9196 32.442 91.8008 32.5026 91.6109 32.5026H91.1122ZM91.5871 31.7513H90.7561V33.5083H91.1241V32.7691H91.409L91.789 33.5083H92.2045L91.789 32.7691C92.0858 32.7449 92.2639 32.6237 92.2639 32.2966C92.2639 31.8846 92.0502 31.7634 91.599 31.7634" fill="#231F20"/>
</g>
</g>
<defs>
<clipPath id="clip0_16275_5165">
<rect width="66" height="57" fill="white" transform="translate(27 31)"/>
</clipPath>
</defs>
</svg>
