<svg width="120" height="120" viewBox="0 0 120 120" fill="none" xmlns="http://www.w3.org/2000/svg">
<rect width="120" height="120" rx="60" fill="white"/>
<rect x="0.5" y="0.5" width="119" height="119" rx="59.5" stroke="#1B497E" stroke-opacity="0.1"/>
<g clip-path="url(#clip0_16275_5146)">
<path d="M14.0426 56.0286C15.8799 55.131 18.4482 54.9112 20.2954 55.937L20.4238 55.992L19.6335 57.2652C19.4557 57.0911 18.4087 56.624 17.5987 56.6515C17.1146 56.6973 16.601 56.8896 16.3935 57.3476C16.4133 57.3659 14.9612 62.4952 14.981 62.4861C14.9711 62.6418 15.0106 62.944 15.2872 62.9898C15.6922 62.999 16.3837 62.9898 16.3837 62.9898L17.411 59.5734H21.6783L20.3744 64.1989H13.44C12.8374 64.0798 12.2448 63.8783 11.8002 63.3837C10.6149 61.7533 10.8124 59.4543 11.9682 57.8331C12.4818 57.082 13.3017 56.4408 14.0327 56.0286" fill="#12284B"/>
<path d="M49.9193 62.761C50.2156 62.9167 50.4626 62.8434 50.8281 62.8068C51.1244 62.7244 51.3714 62.5137 51.4899 62.2481C51.4998 62.2481 52.7741 57.1554 52.7642 57.1554C52.8827 56.8898 52.6061 56.6425 52.4086 56.6425C52.1715 56.6242 51.6578 56.6608 51.5887 56.6425C51.5986 56.6608 49.9193 62.7702 49.9193 62.761ZM47.6177 55.2686H54.1866C55.1349 55.2686 56.2412 56.2944 56.5475 57.3478C57.2291 59.7933 55.9844 62.1656 53.7619 63.5762C53.1494 63.8876 52.4678 64.2082 51.7369 64.1991C51.7369 64.2357 45.168 64.1991 45.168 64.1991L47.6078 55.2686H47.6177Z" fill="#12284B"/>
<path d="M57.2787 64.5558C57.9899 63.1178 58.3653 61.5423 59.1358 60.1134C59.2938 59.8295 59.3728 59.6097 59.5408 59.4814C59.521 59.4998 61.5164 62.8888 61.5164 62.8888C61.3682 63.3559 60.8249 63.5757 60.4891 63.9788C59.2938 65.197 57.8022 66.5709 56.0637 67.0655C55.8859 67.1021 55.6686 67.0105 55.6587 66.809C55.6587 65.8015 56.765 65.371 57.2787 64.5466" fill="#12284B"/>
<path d="M57.6933 66.7816C60.7358 64.8948 62.8892 61.7348 66.1588 60.2143C66.3465 60.1593 66.465 60.4524 66.5638 60.6081C66.386 60.8555 66.0205 60.9012 65.7835 61.1028C63.5115 62.4675 61.6544 64.4276 59.5702 66.2412C58.6021 66.974 57.5155 67.5877 56.3598 67.9907C56.2512 67.8258 55.8955 67.5144 56.3302 67.3678L57.6933 66.7725V66.7816Z" fill="#12284B"/>
<path d="M58.543 55.1859C59.7876 54.444 61.1014 53.8211 62.3756 53.125H62.5139C62.3361 53.7936 62.267 54.3524 62.4547 55.076C62.4547 55.0668 59.5703 56.6606 59.5505 56.6422C59.1159 56.2575 58.78 55.708 58.543 55.1859Z" fill="#12284B"/>
<path d="M59.8665 57.2378C60.6074 57.2561 61.4766 57.2836 62.1681 57.4485L62.1385 57.5309L59.9258 58.63L59.7974 58.5659C59.8665 58.0621 59.9357 57.7141 59.8566 57.2378" fill="#12284B"/>
<path d="M59.9951 59.2345C60.8644 58.7216 61.8621 58.2361 62.8104 57.8423C63.1462 58.4285 63.403 59.1155 64.0155 59.5002C64.5193 59.3536 64.7069 58.8132 65.0823 58.4743L65.1317 58.3919C65.4182 58.7674 65.833 59.3536 66.001 59.8391C64.5884 60.5535 63.2845 61.6252 62.03 62.5777L61.9608 62.6327L60.005 59.2254" fill="#12284B"/>
<path d="M62.6917 55.5796L62.8201 55.6071C62.7213 56.0467 62.7411 56.5413 62.7312 56.9993L62.4645 56.9444C61.852 56.8344 61.0717 56.8253 60.479 56.752C60.479 56.752 62.7114 55.5979 62.6917 55.5887" fill="#12284B"/>
<path d="M72.3424 55.2593L73.4981 58.172L76.2442 55.2684L78.4569 55.2776L74.1106 60.297L73.0042 64.1898L68.3912 64.1989L69.4284 60.2329L67.8281 55.2776L72.3424 55.2593Z" fill="#12284B"/>
<path d="M79.1981 55.2686L87.0709 55.2777L86.6264 56.8898L83.1691 56.9081L82.7048 58.7858L84.9867 58.7766L84.552 60.4711L82.2504 60.462L81.7072 62.5137L85.0854 62.5045L84.6903 64.2082L76.8472 64.1899L79.1981 55.2686Z" fill="#12284B"/>
<path d="M89.1651 61.1856H91.279L90.953 58.566L89.1651 61.1856ZM91.0518 55.2686H94.8944L95.813 64.1991H91.6149L91.4173 62.7793H88.1773L87.2488 64.1991H85.2534L91.0518 55.2777V55.2686Z" fill="#12284B"/>
<path d="M102.411 59.9853C102.411 59.9853 103.35 59.9945 103.36 59.9853C103.775 59.9853 104.012 59.6281 104.16 59.1701C104.16 59.1701 104.693 57.2741 104.693 57.265C104.753 57.0268 104.772 56.6879 104.476 56.6513C104.259 56.6329 103.379 56.6513 103.379 56.6513C103.379 56.6421 102.421 60.0036 102.421 60.0036M99.1813 55.2773H106.639C107.271 55.2773 108.002 55.6346 108.437 56.2299C109.119 57.1276 109.158 58.1901 108.684 59.1426C108.239 59.9029 107.538 60.4891 106.787 60.9837L107.617 64.1987H103.073C103.073 64.1987 102.352 61.7531 102.342 61.7439C102.313 61.6249 102.244 61.4966 102.125 61.4966C101.987 61.4966 101.878 61.6707 101.839 61.7989L101.117 64.2078H96.7217L99.1714 55.2865L99.1813 55.2773Z" fill="#12284B"/>
<path d="M26.6764 62.6236C26.6764 62.6236 26.4986 63.1365 27.2296 63.1365C27.9606 63.1365 28.2273 62.3396 28.2273 62.3396L29.3732 57.3385C29.3732 57.3385 29.6892 56.5875 28.9286 56.5875C28.168 56.5875 27.9606 57.3385 27.9606 57.3385L26.6764 62.6327V62.6236ZM33.1762 59.7841C32.5638 62.5961 30.2622 64.4096 27.121 64.4188C23.9304 64.4188 22.3894 62.3304 22.8932 59.7841C23.4463 57.0088 25.9455 55.1494 28.82 55.1494C31.8822 55.1494 33.7689 57.0821 33.1762 59.7841Z" fill="#12284B"/>
<path d="M38.4313 62.6236C38.4313 62.6236 38.2535 63.1365 38.9845 63.1365C39.7155 63.1365 39.9822 62.3396 39.9822 62.3396L41.1379 57.3385C41.1379 57.3385 41.454 56.5875 40.6934 56.5875C39.9328 56.5875 39.7254 57.3385 39.7254 57.3385L38.4412 62.6327L38.4313 62.6236ZM44.9311 59.7841C44.3088 62.5961 42.0072 64.4096 38.8758 64.4188C35.6852 64.4188 34.1443 62.3304 34.648 59.7841C35.2012 57.0088 37.7004 55.1494 40.5749 55.1494C43.6371 55.1494 45.5238 57.0821 44.9311 59.7841Z" fill="#12284B"/>
<path d="M64.8252 53.5097C65.0129 53.6746 65.329 53.6105 65.5562 53.5738C65.813 52.896 66.7317 53.528 66.9786 52.8411C67.1762 52.8319 67.433 52.7586 67.6405 52.6304C67.6405 52.6029 67.6503 52.5571 67.6108 52.5296C67.5516 52.548 67.4725 52.5022 67.4429 52.5754C66.6526 52.0259 66.4452 53.1708 65.655 52.8777C65.5266 53.2166 65.1611 53.4181 64.8252 53.5097ZM64.4992 54.9752C64.6869 54.9203 64.44 54.6272 64.5684 54.4531C64.5289 54.16 64.1239 54.3066 63.9559 54.2883C64.1733 54.4989 64.4005 54.6821 64.4992 54.9752ZM63.6201 52.09C65.0623 50.9084 67.0478 51.2748 68.7172 51.2381C71.2953 51.3481 74.1995 51.5679 76.5504 51C76.6492 51.4213 76.4121 51.861 76.0961 52.1999C74.4464 53.6837 71.8979 53.2349 69.7247 53.1525L69.6556 53.2166C69.8136 53.5372 70.4458 53.3723 70.4162 53.7387C70.0705 54.0867 69.5765 54.1875 69.1222 54.1692L69.0234 54.2791C69.0629 54.3798 69.3395 54.3341 69.3 54.5356C68.7172 54.9661 67.7886 55.1034 67.0972 54.8103L66.9984 54.9019C67.0972 55.5065 66.9292 56.0469 66.6922 56.5964C66.4748 56.6789 66.3168 56.4774 66.1489 56.3675C65.892 56.688 65.9513 57.1827 65.7142 57.5216C65.4278 57.5399 65.2796 57.2468 65.0524 57.1552C64.7857 57.7505 64.5585 58.4283 64.0745 58.8863C62.9583 58.1994 63.0768 56.8529 63.2348 55.6805C63.1756 55.3141 62.7508 54.9477 62.7113 54.4989C62.6619 53.5921 62.82 52.6762 63.63 52.09" fill="#12284B"/>
</g>
<defs>
<clipPath id="clip0_16275_5146">
<rect width="98" height="17" fill="white" transform="translate(11 51)"/>
</clipPath>
</defs>
</svg>
