<svg width="120" height="120" viewBox="0 0 120 120" fill="none" xmlns="http://www.w3.org/2000/svg">
<rect width="120" height="120" rx="60" fill="white"/>
<rect x="0.5" y="0.5" width="119" height="119" rx="59.5" stroke="#1B497E" stroke-opacity="0.1"/>
<path d="M83.5677 65.1104C78.9389 65.1104 78.0989 62.4515 78.0989 61.7935H81.4499C81.4499 62.1758 81.9771 62.6472 82.4239 62.8339C82.7902 62.9851 83.2013 63.0207 83.5766 63.0207C84.5238 63.0207 85.2923 62.7894 85.2923 62.247C85.2923 61.58 84.497 61.4378 83.6213 61.3133C81.2443 60.9753 77.9023 60.5752 77.9023 57.9251C77.9023 55.453 80.6099 54.1991 83.4962 54.1991C88.1071 54.1991 89.3224 56.7424 89.3224 57.4716H85.9178C85.9178 57.2493 85.748 56.8313 85.2834 56.5912C84.9349 56.4134 84.4344 56.2622 83.943 56.2622C82.6741 56.2622 81.9503 56.529 81.9503 57.107C81.9503 57.5783 82.5937 57.8184 83.523 57.9785C85.9446 58.3876 89.653 58.5298 89.653 61.4644C89.653 62.9495 88.3573 65.1193 83.5498 65.1193M77.8844 55.7375L76.5798 57.1515H76.0347L76.6334 55.613H75.436V53.5588H77.8844V55.7375ZM74.6317 64.817H70.2978V54.4392H74.6317V64.817ZM64.6503 64.8348H60.8615L55.214 54.457H60.3164L63.5601 60.7619L63.6495 60.9487L63.7299 60.7619L66.7592 54.457H69.8242L64.6503 64.8348ZM56.5186 60.5218H47.7525C47.7525 61.8735 48.8963 62.8873 50.4243 62.8873C51.3358 62.8873 52.1579 62.5849 52.7477 61.7757H56.2416C55.0978 64.3901 52.8817 65.1282 49.8614 65.1282C45.9296 65.1282 43.1594 63.0118 43.1594 59.6592C43.1594 56.0754 45.8938 54.1902 49.8614 54.1902C54.3025 54.1902 56.5276 57.0536 56.5276 59.8104C56.5276 60.0416 56.5454 60.2728 56.5097 60.5218M43.079 64.8259H33.0887V54.4748H37.5834V62.0158H43.079V64.8348V64.8259ZM94.255 46C94.2908 46.0622 94.3265 46.1245 94.3533 46.1956C94.6303 46.827 94.7733 47.5029 94.7733 48.2321C94.7733 48.9613 94.6303 49.6727 94.3533 50.3041C94.0763 50.9355 93.701 51.4868 93.2274 51.9492C92.7538 52.4116 92.1998 52.7762 91.5742 53.0341C90.9398 53.292 90.2696 53.4254 89.5547 53.4254C88.8399 53.4254 88.1607 53.292 87.5263 53.0341C86.8918 52.7762 86.3378 52.4116 85.8553 51.9492C85.3817 51.4868 84.9974 50.9355 84.7204 50.3041C84.4434 49.6727 84.3004 48.9791 84.3004 48.2321C84.3004 47.4851 84.4434 46.827 84.7204 46.1956C84.7472 46.1245 84.783 46.0622 84.8187 46H23L30.3096 77C45.6526 67.1824 60.3968 76.6176 60.9955 76.9733C61.5853 76.6087 76.3385 67.1736 91.6725 77L99 46H94.255ZM49.781 56.3689C48.4584 56.3689 47.7614 57.3916 47.7436 58.4409H51.9881C51.9881 57.2048 51.2018 56.3689 49.781 56.3689ZM86.4718 51.4068C86.8561 51.8069 87.3118 52.1182 87.839 52.3405C88.3662 52.5628 88.9292 52.6784 89.5458 52.6784C90.1624 52.6784 90.7075 52.5628 91.2347 52.3405C91.753 52.1182 92.2087 51.798 92.5929 51.4068C92.9772 51.0066 93.281 50.5442 93.4955 50.0017C93.7099 49.4593 93.8261 48.8723 93.8261 48.2321C93.8261 47.5918 93.7189 47.0316 93.4955 46.498C93.424 46.3201 93.3436 46.1601 93.2542 46H91.7708C91.9228 46.2579 92.0032 46.578 92.0032 46.9604C92.0032 47.5029 91.8513 47.903 91.5385 48.1609C91.2347 48.4188 90.8504 48.57 90.3947 48.6145L92.1372 51.2912H91.1185L89.4654 48.6856H88.4646V51.2912H87.5173V46H85.8195C85.7302 46.1601 85.6497 46.329 85.5782 46.498C85.3638 47.0316 85.2476 47.6096 85.2476 48.2321C85.2476 48.8546 85.3548 49.4593 85.5782 50.0017C85.7927 50.5442 86.0965 51.0155 86.4808 51.4068M90.0551 47.8941C90.2428 47.8853 90.4126 47.8408 90.5645 47.7785C90.7164 47.7163 90.8326 47.6185 90.9219 47.4851C91.0113 47.3517 91.056 47.1649 91.056 46.9248C91.056 46.7203 91.0202 46.5602 90.9398 46.4357C90.8594 46.3201 90.7611 46.2223 90.636 46.1601C90.5109 46.0978 90.3679 46.0534 90.2071 46.0267C90.1356 46.0178 90.073 46.0089 90.0015 46H88.4735V47.9119H89.4654C89.6798 47.9119 89.8854 47.9119 90.073 47.8941" fill="#C41230"/>
</svg>
