<svg width="120" height="120" viewBox="0 0 120 120" fill="none" xmlns="http://www.w3.org/2000/svg">
<rect width="120" height="120" rx="60" fill="white"/>
<rect x="0.5" y="0.5" width="119" height="119" rx="59.5" stroke="#1B497E" stroke-opacity="0.1"/>
<g clip-path="url(#clip0_16275_5167)">
<path d="M35.2938 49H13V72H35.2938V49Z" fill="#DF1E26"/>
<path d="M108 49H35.2937V72H108V49Z" fill="#231F20"/>
<path d="M27.9676 52.0173L15.9225 57.9615L18.7444 60.4724L13.677 62.9901L20.4 68.9968L32.3915 62.9901L29.583 60.4724L34.657 57.9476L27.9676 52.0034V52.0173ZM23.0812 62.9971L20.2592 60.4793L25.3199 57.9615L28.1418 60.4793L23.0812 62.9971Z" fill="white"/>
<mask id="mask0_16275_5167" style="mask-type:luminance" maskUnits="userSpaceOnUse" x="13" y="49" width="95" height="23">
<path d="M108 49H13V72H108V49Z" fill="white"/>
</mask>
<g mask="url(#mask0_16275_5167)">
<path d="M89.3862 58.856L86.5441 63.3852C86.4838 63.4823 86.4369 63.5794 86.39 63.6904H81.3561L83.6954 59.9657H87.0334L88.8499 57.0595H85.5052L87.1474 54.4654H82.1336L80.4981 57.0595H75.4911L77.1199 54.4654H72.0994L70.4773 57.0595H67.1862L65.6579 59.4802C65.6714 59.3762 65.6848 59.2652 65.6848 59.1542C65.6848 58.0028 64.7799 57.0595 63.6672 57.0595H54.444C53.0967 57.0873 51.917 57.7947 51.2199 58.856L48.3779 63.3852C48.3176 63.4823 48.264 63.5864 48.2237 63.6904H44.4768L50.2748 54.4585H43.7395L42.0973 57.0595H43.6055L39.6373 63.413C39.4564 63.7251 39.3491 64.0996 39.3491 64.495C39.3491 65.6464 40.254 66.5689 41.3734 66.5689H44.5372C46.1123 66.5689 47.473 65.6464 48.1031 64.3008C48.1031 64.3563 48.083 64.4256 48.083 64.488C48.083 65.6464 48.9879 66.5758 50.1073 66.5758H59.2433C60.6174 66.5758 61.8306 65.8891 62.5411 64.814L65.3563 60.3333C65.43 60.2224 65.4904 60.0975 65.5373 59.9727H68.6541L66.5092 63.3783C66.3081 63.7043 66.1942 64.0927 66.1942 64.5019C66.1942 65.6533 67.0991 66.5689 68.2117 66.5689H71.3085C73.1049 66.5689 74.5929 65.3551 75.0822 63.6904H71.3286L73.6679 59.9657H78.7018L76.5501 63.3575C76.349 63.6835 76.2284 64.0719 76.2284 64.4811C76.2284 65.6325 77.1333 66.5689 78.2527 66.5689H82.6297C84.2719 66.5689 85.6728 65.5701 86.276 64.1274C86.2559 64.2384 86.2492 64.3632 86.2492 64.4811C86.2492 65.6325 87.1541 66.5689 88.2668 66.5689H97.4028C98.7769 66.5689 99.9901 65.8891 100.701 64.8071L103.516 60.3056C103.737 59.9796 103.864 59.5773 103.864 59.1473C103.864 57.989 102.96 57.0526 101.847 57.0526H92.6237C91.2764 57.0803 90.0967 57.7878 89.3996 58.849L89.3862 58.856ZM93.7095 59.9657H98.7166L96.3773 63.6904H91.3635L93.7095 59.9657ZM55.5567 59.9657H60.5638L58.2244 63.6904H53.2107L55.55 59.9657H55.5567Z" fill="white"/>
</g>
</g>
<defs>
<clipPath id="clip0_16275_5167">
<rect width="95" height="23" fill="white" transform="translate(13 49)"/>
</clipPath>
</defs>
</svg>
