<svg width="120" height="120" viewBox="0 0 120 120" fill="none" xmlns="http://www.w3.org/2000/svg">
<rect width="120" height="120" rx="60" fill="white"/>
<rect x="0.5" y="0.5" width="119" height="119" rx="59.5" stroke="#1B497E" stroke-opacity="0.1"/>
<mask id="mask0_16275_5172" style="mask-type:luminance" maskUnits="userSpaceOnUse" x="11" y="45" width="96" height="28">
<path d="M106.444 45.8462H11.5793V72.7693H106.444V45.8462Z" fill="white"/>
</mask>
<g mask="url(#mask0_16275_5172)">
<path d="M38.2985 62.1683C38.4932 62.2458 38.7549 62.1981 38.907 62.1265C39.2599 61.9535 39.5702 61.6433 39.698 61.2555C39.8684 60.7305 39.3999 60.48 38.9191 60.4919C38.8644 60.5038 38.8096 60.5217 38.7488 60.5337L38.4932 60.6769C38.3046 60.8081 38.0733 61.0348 37.9821 61.2555C37.7995 61.6731 37.9577 62.043 38.2924 62.1742M56.3709 61.5896C56.2674 61.6672 56.2005 61.7865 56.018 61.7865C55.8902 61.6552 55.7746 61.5419 55.6954 61.3629C55.4338 60.7604 55.732 60.0385 56.1092 59.7581C56.1823 59.7044 56.2796 59.6448 56.3648 59.615C56.4013 59.609 56.4378 59.603 56.4743 59.5911C56.9246 59.5911 57.1741 60.1101 57.0524 60.5933C56.9429 61.0229 56.6873 61.3569 56.3709 61.5836M62.1029 52.2295C61.9691 52.307 61.8352 52.313 61.75 52.4263C61.5735 52.653 61.531 52.9274 61.4275 53.2436C61.2693 53.7388 61.1659 54.2578 61.0016 54.7708C60.8373 55.2779 60.7338 55.8029 60.5695 56.3219C60.0888 57.8193 59.7055 59.3644 59.1213 60.7604C58.8231 61.4763 58.5736 62.1802 58.166 62.7768C58.0808 62.902 57.8678 63.2779 57.6305 63.2242C57.3627 63.1645 57.1558 62.8185 56.9429 62.6813C56.955 62.5441 57.1193 62.4845 57.1863 62.395C57.3506 62.1862 57.5088 61.9654 57.6548 61.7387C57.8435 61.4405 57.9834 61.1422 58.0868 60.7544C58.1355 60.5754 58.172 60.2891 58.1294 60.0863C58.0929 59.9073 58.1112 59.7581 58.0625 59.609C57.8739 59.0423 57.5209 58.6247 56.9246 58.4636C56.3891 58.3204 55.8658 58.5471 55.5555 58.738C54.9774 59.09 54.6306 59.6687 54.4298 60.3845C54.1803 61.2794 54.6002 62.3592 55.0444 62.7947C55.0383 62.9259 54.7827 63.0631 54.6914 63.1347C54.448 63.3137 54.2046 63.6299 53.9126 63.7432C53.7787 63.7969 53.584 63.7551 53.4927 63.7014C53.2615 63.5642 53.1032 63.2958 52.945 63.081C52.586 62.5799 52.2818 62.0191 51.941 61.4882C51.8254 61.3092 51.5637 60.7723 51.2412 60.8439C50.8396 60.9334 50.6206 61.2854 50.4076 61.5657C50.2068 61.8282 49.9634 62.0728 49.7626 62.3413C49.5253 62.6575 49.2819 62.9915 48.9959 63.26C48.8377 63.2361 48.8742 62.8603 48.9046 62.7052C48.935 62.2697 48.9655 61.8342 48.9959 61.3987L49.0081 61.0408C49.0324 60.7484 49.0506 60.4502 49.075 60.1578V59.961C49.0993 59.6746 49.1176 59.3883 49.1419 59.1019V58.8931C49.1845 58.6843 49.1419 58.4457 49.1845 58.2309C49.221 58.0639 49.1845 57.8849 49.221 57.7059C49.2454 57.5986 49.221 57.4733 49.2454 57.354C49.3427 56.8946 49.2636 56.3696 49.3549 55.9162C49.361 55.7611 49.3671 55.612 49.3792 55.4569C49.4827 54.9617 49.4583 54.4845 49.0446 54.3532C48.716 54.2518 48.5334 54.5083 48.43 54.6992C48.144 55.2362 48.1927 55.952 48.0405 56.6202C47.9249 57.3301 47.8093 58.04 47.6937 58.7499C47.6024 59.2093 47.5051 59.6687 47.4138 60.128C47.3043 60.5635 47.1886 60.993 47.0791 61.4285C46.7444 62.4606 46.3854 63.433 45.8134 64.2324C45.6005 64.5307 45.2901 64.8767 44.9372 65.0258C44.5782 65.175 44.3835 65.0199 44.3044 64.7216C44.207 64.3577 44.353 63.9639 44.4626 63.7193C44.6451 63.3017 44.8581 62.9557 45.1076 62.6097C45.2475 62.4427 45.3814 62.2757 45.5214 62.1086C45.7526 61.7328 45.424 61.4345 45.1076 61.3689C44.9615 61.339 44.7912 61.3868 44.6938 61.4226C44.42 61.5359 44.0488 61.9774 43.8723 62.21C43.7445 62.3711 43.5742 62.5143 43.4525 62.6813C43.0326 63.2242 42.5701 63.7313 42.1624 64.2742C42.0042 64.4889 41.8278 64.6917 41.6696 64.9065C41.5296 65.0974 41.4262 65.2824 41.2375 65.4315C41.0124 65.4196 40.8481 64.9841 40.7446 64.823C40.483 64.4114 40.2213 63.9938 39.9414 63.6C39.8319 63.4509 39.7345 63.2302 39.552 63.1526C39.0834 62.9557 38.8157 63.5941 38.6757 63.8267C38.3106 64.4173 37.9942 65.0437 37.6291 65.6343C37.4527 65.9207 37.3553 66.2786 37.118 66.5053C36.7894 66.5053 36.6981 66.2309 36.5825 66.0161C36.333 65.5508 36.1018 65.0616 35.8462 64.5903C35.4568 63.8566 35.0552 63.1168 34.7083 62.3532C34.5806 62.1086 34.4528 61.864 34.3311 61.6194C34.1363 61.1899 33.9477 60.7425 33.7104 60.3547C33.3757 59.8118 33.1141 58.9826 32.4995 58.732C31.8301 58.4576 31.5624 59.1258 31.3859 59.5255C31.2277 59.8894 31.1608 60.3129 31.0269 60.7126C30.7166 61.6791 30.5462 62.7231 30.2359 63.7014C30.1263 64.0475 30.0777 64.4173 29.9803 64.7574C29.9438 64.8886 29.9499 65.1392 29.8221 65.175C29.6821 65.2108 29.6152 64.9363 29.5787 64.8469C29.4205 64.471 29.2927 64.0773 29.1345 63.6895C28.6538 62.5381 28.2461 61.3331 27.7654 60.1757C27.5767 59.7283 27.5341 59.1556 26.9987 59.0423C26.7674 58.9945 26.5849 59.1377 26.4754 59.2153C26.1468 59.4599 26.0555 59.8417 25.952 60.3189C25.9277 60.5098 25.9094 60.6947 25.8851 60.8857C25.8243 61.1541 25.8243 61.4405 25.7634 61.7268C25.7026 61.9893 25.7026 62.2697 25.6417 62.5441C25.4957 63.4509 25.3496 64.3577 25.2097 65.2585C25.0576 65.9087 25.0819 66.7022 24.8324 67.257C24.8142 67.263 24.8202 67.257 24.8081 67.2689C24.6316 67.2272 24.6985 66.6545 24.6499 66.4397C24.589 65.9326 24.5221 65.4196 24.4612 64.9125C24.443 64.7156 24.4247 64.5187 24.4065 64.3219C24.3639 63.9759 24.3152 63.6239 24.2726 63.2719C24.2604 63.1347 24.2482 63.0035 24.2361 62.8663C24.1631 62.5262 24.1874 62.1623 24.1144 61.8103C23.9683 60.7425 23.8284 59.6746 23.6823 58.6008C23.658 58.4159 23.6397 58.2309 23.6154 58.046C23.4937 57.4971 23.4694 56.9125 23.3051 56.3995C23.2016 56.0773 23.0252 55.7611 22.8365 55.5046C22.7209 55.3435 22.5627 55.1825 22.368 55.0989C22.1246 54.9975 21.6804 54.9796 21.4005 55.0632C20.865 55.2242 20.4999 55.5165 20.0983 55.8029C18.4675 56.9901 16.8611 58.2071 15.2242 59.3942C14.7496 59.7402 14.2871 60.1161 13.8125 60.4502C13.2648 60.8379 12.7415 61.2555 12.2 61.6373C11.9809 61.7924 11.6706 61.9356 11.5976 62.2399C11.4941 62.6813 12.0053 62.735 12.3338 62.6336C12.6077 62.5501 12.7902 62.383 13.0032 62.2399C13.3014 62.037 13.5995 61.8521 13.8916 61.6493C14.9443 60.9214 15.9727 60.1757 17.0193 59.4479C17.5061 59.1138 17.9685 58.732 18.4553 58.398C18.7839 58.1713 19.1308 57.9863 19.4654 57.7656C19.9218 57.4673 20.3904 57.1571 20.8467 56.8588C20.9745 56.7753 21.1936 56.5844 21.3944 56.7156C21.6195 56.8648 21.6134 57.3957 21.6865 57.7059C21.8203 58.3085 21.8021 58.9886 21.9299 59.603C21.9542 59.8596 21.9725 60.1101 21.9968 60.3666C22.0577 60.9334 22.1246 61.5001 22.1854 62.0669L22.2159 62.556C22.2645 63.0393 22.3132 63.5165 22.3619 63.9938C22.3619 64.0833 22.368 64.1668 22.3741 64.2563C22.4106 64.6142 22.4471 64.9781 22.4836 65.336C22.4836 65.4255 22.4897 65.509 22.4958 65.5985C22.5323 65.9565 22.5688 66.3204 22.6053 66.6783C22.6053 66.7618 22.6114 66.8454 22.6175 66.9289C22.6722 67.1914 22.6357 67.4837 22.6966 67.7581C22.7818 68.3606 22.867 68.9632 22.9521 69.5717C22.9643 69.7089 22.9826 69.8461 22.9947 69.9833C23.1104 70.5083 23.1104 71.1048 23.2381 71.6179C23.3355 72.0176 23.3963 72.3815 23.6823 72.5903C23.7614 72.644 23.8771 72.6917 23.9744 72.7215C24.7168 72.9303 25.301 72.3278 25.4652 71.8804C25.4957 71.6895 25.5322 71.4926 25.5626 71.3017C25.6843 70.8066 25.7147 70.2816 25.8425 69.7745C25.9399 69.2436 26.0433 68.7126 26.1407 68.1817C26.165 68.0206 26.1833 67.8536 26.2076 67.6925C26.2867 67.2152 26.3719 66.732 26.451 66.2548C26.4754 66.0937 26.4936 65.9266 26.5179 65.7656C26.664 65.1213 26.7796 64.4472 26.9317 63.8327C26.9622 63.8327 26.9622 63.8208 26.9865 63.8327C27.0899 63.8745 27.1569 64.1787 27.1995 64.304C27.3273 64.6917 27.4064 65.1034 27.5341 65.5031C27.7654 66.3383 28.0027 67.1735 28.2339 68.0146C28.4043 68.5456 28.5017 69.0765 28.7025 69.5657C28.9276 70.1205 29.0432 70.7529 29.6578 70.9199C29.9316 70.9915 30.175 70.8662 30.315 70.7648C30.7653 70.4427 30.8261 69.4464 30.9843 68.814C31.2947 67.5553 31.4346 66.219 31.7632 64.9721C31.8606 64.6082 31.891 64.2384 31.9883 63.8804C32.1283 63.3435 32.177 62.7947 32.323 62.2757C32.3778 62.0848 32.3839 61.8939 32.4569 61.7268C32.5908 61.7447 32.6273 61.9953 32.682 62.0967C32.8828 62.4785 33.0532 62.8841 33.2601 63.2719C33.4244 63.5881 33.607 63.9222 33.753 64.2443C33.8138 64.3875 33.8625 64.5307 33.9416 64.656C34.1303 64.9602 34.2763 65.2943 34.4649 65.6045C34.8361 66.207 35.183 66.8334 35.5542 67.4181C35.7976 67.7999 36.0044 68.1578 36.5034 68.301C36.619 68.3368 36.832 68.3964 37.0024 68.3547C37.3005 68.289 37.5074 68.0564 37.69 67.8715C37.9699 67.597 38.0733 67.3584 38.2802 67.0184C38.4749 66.7022 38.6636 66.3741 38.8583 66.0579C39.0104 65.8073 39.12 65.5329 39.3268 65.336H39.4364C39.6493 65.5269 39.7345 65.7417 39.8927 65.9923C40.0388 66.2249 40.1909 66.4636 40.3369 66.6902C40.483 66.9169 40.6108 67.1496 40.915 67.2152C41.1402 67.263 41.3836 67.1436 41.5174 67.0721C41.7122 66.9706 41.7913 66.7857 41.919 66.6127C42.132 66.3144 42.3632 66.0161 42.5762 65.7178C42.6918 65.5627 42.8014 65.4017 42.9109 65.2466C42.9474 65.1988 42.9657 65.1034 43.0448 65.1392C43.13 65.1809 43.2334 65.5866 43.276 65.694C43.3977 65.9684 43.6837 66.38 43.9332 66.5232C44.3956 66.7857 45.0711 66.553 45.3936 66.3502C45.996 65.9565 46.4767 65.2167 46.8601 64.6023C47.0304 64.3338 47.14 63.9699 47.3712 63.7492C47.4077 63.7492 47.4077 63.7551 47.426 63.773C47.5477 63.8387 47.5051 64.1608 47.5051 64.3398C47.5051 64.6977 47.4564 65.1451 47.5416 65.4554C47.5659 65.5568 47.572 65.6582 47.6389 65.7178C47.6937 65.7596 47.7789 65.8073 47.8519 65.8252C48.363 65.9744 48.6673 65.6164 48.8864 65.4017C49.361 64.9363 49.8113 64.4591 50.2129 63.9281C50.4867 63.5642 50.7484 63.1586 51.083 62.8484C51.2473 62.8543 51.2777 62.9736 51.3386 63.087C51.442 63.2839 51.5333 63.4807 51.6368 63.6776C51.9349 64.2324 52.4096 64.99 53.0181 65.2287C53.444 65.3957 53.8395 65.2108 54.0951 65.0557C54.4967 64.8111 54.8375 64.5307 55.2087 64.2563C55.3547 64.1489 55.5981 63.8446 55.7563 63.785C56.0849 63.6597 56.3344 63.8745 56.4987 63.9818C56.9003 64.2443 57.2715 64.5486 57.813 64.6679C58.2816 64.7693 58.7379 64.4293 58.9266 64.2443C59.3404 63.8387 59.5838 63.3435 59.8272 62.7589C59.9854 62.3711 60.0584 61.9296 60.247 61.5777C60.2653 61.5717 60.2592 61.5777 60.2714 61.5657C60.4539 61.5777 60.4843 62.0012 60.5269 62.1742C60.6851 62.8185 60.6425 64.0355 61.5918 63.6895C61.7196 63.6418 61.8291 63.5941 61.9021 63.4926C62.2429 63.0512 62.0664 62.1205 61.9386 61.5836C61.9143 61.4226 61.8961 61.2615 61.8717 61.1004C61.8474 60.7126 61.8169 60.3308 61.7926 59.9431V59.4837C61.7683 59.3704 61.7683 59.1675 61.7926 59.0602C61.823 58.905 61.7744 58.7082 61.8048 58.571C61.8291 58.4576 61.7987 58.3085 61.8169 58.213V57.9505C61.8717 57.6881 61.8474 57.4315 61.9082 57.175C62.1638 56.0475 62.2977 54.9021 62.5958 53.8283C62.6628 53.518 62.7297 53.2078 62.7966 52.8976C62.8331 52.7246 62.7966 52.5098 62.7297 52.4084C62.6202 52.2533 62.3889 52.1937 62.1151 52.1996M89.9904 52.7544C90.3069 52.6411 90.7328 52.3249 90.8362 52.0028C90.9701 51.5852 90.7328 51.2332 90.3373 51.2392C90.2825 51.2511 90.2277 51.263 90.173 51.275L89.9296 51.3823C89.6618 51.5434 89.3758 51.7761 89.2542 52.0803C89.1507 52.3309 89.242 52.6411 89.4184 52.7485C89.5645 52.838 89.8322 52.8201 89.9965 52.7604M75.9767 57.0915C76.1167 57.0617 76.2566 57.0318 76.3966 57.002C76.4878 56.9841 76.6096 57.008 76.6887 56.9662C76.9138 56.9662 77.1024 56.9841 77.2363 57.0736C77.4797 57.2466 77.3945 57.6821 77.2606 57.9028C77.0355 58.2608 76.7069 58.5292 76.4148 58.8215C76.1045 59.1258 75.8124 59.4599 75.4595 59.7283C75.3134 59.8417 74.9849 60.1877 74.6928 60.0684C74.2729 59.8894 74.7415 59.3823 74.8692 59.1974C75.137 58.8036 75.3743 58.392 75.6359 57.9863C75.715 57.867 75.8733 57.6702 75.8063 57.4494C75.7577 57.2943 75.5629 57.2108 75.4473 57.1094C75.4473 57.0855 75.4473 57.0855 75.4595 57.0736V57.0497C75.6116 57.0259 75.782 57.1213 75.9828 57.0855M67.835 61.339C67.7072 61.5777 67.6038 61.8163 67.4577 62.0251C67.3969 62.1086 67.3543 62.216 67.2448 62.2518C67.2326 62.2578 67.2448 62.2518 67.2204 62.2637L67.1839 62.2399C67.1048 60.2712 67.0257 58.3025 66.9527 56.3398C66.9101 55.4986 66.8736 54.6515 66.831 53.8104C66.831 53.6374 66.8249 53.4584 66.8188 53.2854C66.7884 52.7127 66.758 52.1459 66.7275 51.5732L66.7154 51.0483C66.6971 50.738 66.6788 50.4278 66.6606 50.1236V49.8074C66.5997 49.527 66.6606 49.181 66.6058 48.9006V48.5964C66.5815 48.4771 66.6119 48.3339 66.5815 48.2026C66.5572 48.1072 66.5328 48.0296 66.5389 47.9163C66.7945 47.6419 67.0074 47.8089 67.4151 47.7313C67.5247 47.7075 67.695 47.7671 67.7802 47.7194C69.1311 47.7194 70.4698 47.8268 71.1513 48.4949C71.2974 48.6322 71.3643 48.8052 71.4738 48.9841C71.9484 49.7537 72.1249 51.1198 71.8268 52.2354C71.2852 54.2697 70.4515 55.8685 69.6544 57.6344C69.5023 57.9744 69.2954 58.3204 69.1433 58.6605C68.7356 59.5732 68.2792 60.4621 67.8167 61.3331M106.347 45.9237C106.25 45.8522 106.116 45.8462 105.933 45.8462C105.86 45.8581 105.793 45.876 105.72 45.888C105.598 45.9237 105.477 45.9655 105.355 46.0073C104.893 46.1743 104.406 46.3055 103.943 46.4905C102.452 47.0811 100.846 47.5524 99.27 48.0595C98.7954 48.2146 98.3208 48.3458 97.8583 48.4949C97.6636 48.5546 97.475 48.6083 97.2924 48.668C97.2255 48.6918 97.1585 48.6918 97.1038 48.7216C97.0551 48.7216 97.0551 48.7157 97.0247 48.6978C97.0429 48.4592 97.1646 48.2205 97.2376 48.0117C97.3837 47.5762 97.5054 47.1348 97.6514 46.7112C97.7853 46.3175 97.5176 46.0789 97.2194 46.0252C96.8421 45.9536 96.6535 46.5442 96.55 46.7888C96.3127 47.3734 96.0937 47.97 95.8503 48.5546C95.7773 48.7276 95.7286 48.9066 95.6616 49.0677C95.6251 49.1512 95.6251 49.2526 95.5704 49.3182C95.5278 49.3719 95.4182 49.3838 95.3452 49.4137C95.1627 49.4853 94.9801 49.5568 94.7915 49.6344C94.0917 49.9207 93.3615 50.2071 92.6191 50.4398C92.2784 50.5471 91.5056 50.744 91.6699 51.269C91.7003 51.3585 91.7551 51.4838 91.8281 51.5315C91.9985 51.6448 92.4427 51.6329 92.6739 51.5732C93.179 51.448 93.6292 51.3107 94.0674 51.1258C94.2682 51.0363 94.5298 50.8454 94.8037 50.8514C94.828 50.8693 94.8463 50.8872 94.8706 50.9051C94.9436 51.2332 94.5542 51.7403 94.4386 52.0087C93.97 53.0587 93.4224 54.0669 92.893 55.0632C92.7348 55.3674 92.5583 55.6538 92.4062 55.9461C92.3575 56.0415 92.2966 56.2444 92.108 56.1847C91.9072 56.125 91.8524 55.8566 91.749 55.6955C91.463 55.2302 91.2561 54.7052 90.9701 54.2339C90.8728 54.0788 90.6902 53.6195 90.4042 53.6911C89.96 53.8044 89.6071 54.4189 89.3819 54.7708C89.2359 54.9975 89.1081 55.26 88.9499 55.4808C88.816 55.6657 88.6456 55.8268 88.5057 56.0057C88.244 56.3398 87.952 56.65 87.6599 56.9543C87.4652 56.9543 87.3617 56.5068 87.2948 56.3517C87.1001 55.8924 86.9236 55.4092 86.7289 54.9558C86.6376 54.7529 86.5889 54.5143 86.4611 54.3473C86.2786 54.1027 85.7979 54.1206 85.5362 54.2817C85.3354 54.401 85.1894 54.6157 85.0494 54.7947C84.7939 55.1228 84.447 55.4748 84.1367 55.7552C84.0697 55.7552 84.0637 55.7373 84.0271 55.7134C83.8872 55.1288 84.1184 54.4547 83.6803 54.1444C83.4186 53.9595 83.0353 54.0609 82.8223 54.222C82.6763 54.3294 82.4633 54.6157 82.3416 54.7649C82.1591 55.0035 81.9157 55.2063 81.727 55.439C81.5201 55.7015 81.3011 55.9759 81.0698 56.2145C81.0333 56.2086 81.0394 56.2026 81.0151 56.1907C81.0029 56.1191 81.0151 56.0356 81.0272 55.964V55.2242C81.0272 54.5262 81.0455 53.7388 80.9177 53.1422C80.9055 53.0169 80.8873 52.8857 80.8751 52.7604C80.7656 52.307 80.6378 51.9491 80.2058 51.8119C79.9867 51.7403 79.6216 51.7761 79.4269 51.8357C79.2869 51.8775 79.1713 51.8894 79.0496 51.9431C78.9279 51.9968 78.8184 52.0982 78.715 52.1698C78.4959 52.3189 78.2768 52.4741 78.0578 52.6172C77.0659 53.2735 76.1288 53.9834 75.1735 54.6814C74.8571 54.908 74.5832 55.2004 74.2729 55.433C73.9747 55.6538 73.6948 55.9341 73.5366 56.298C73.4879 56.4114 73.4271 56.5904 73.4819 56.7455C73.5731 56.996 73.8409 57.1332 74.1025 57.2168C74.206 57.2526 74.3033 57.2526 74.3824 57.2943C74.3764 57.4673 74.1695 57.5628 74.0599 57.6403C73.7313 57.8909 73.4393 58.1892 73.1046 58.4397C72.9768 58.5352 72.8734 58.6605 72.7456 58.7559C72.204 59.1616 71.7294 59.6269 71.1878 60.0326C71.0114 60.1638 70.8592 60.3368 70.6889 60.4681C70.3785 60.7007 70.1047 60.9811 69.8004 61.2078C69.6362 61.3331 69.3928 61.4882 69.265 61.6433C69.2224 61.6433 69.2345 61.6433 69.1859 61.6433C69.1676 61.5299 69.2589 61.4584 69.3076 61.3808C69.4049 61.2317 69.5023 61.0825 69.5936 60.9334C70.0073 60.2831 70.3907 59.615 70.7984 58.9587C71.1026 58.4576 71.3521 57.9267 71.6564 57.4315C71.7476 57.2526 71.8328 57.0736 71.9241 56.8946C72.1858 56.4651 72.4048 55.9878 72.6117 55.5225C72.8429 55.0095 73.0985 54.4785 73.3237 53.9535C73.5549 53.4107 73.7192 52.8499 73.9139 52.2653C74.2121 51.3585 74.5102 49.873 74.206 48.7634C73.8409 47.4569 73.0863 46.7291 71.8815 46.2519C70.987 45.8999 69.484 45.8939 68.4435 46.1206C68.0297 46.1803 67.622 46.2459 67.2082 46.3055C66.831 46.395 66.4354 46.4189 66.0521 46.5143C64.9629 46.7768 63.825 46.9081 62.7723 47.1885C62.5411 47.2362 62.3098 47.2839 62.0847 47.3316C61.3423 47.5285 60.5695 47.6836 59.8576 47.9103C59.4742 48.0356 58.9874 48.1191 58.7684 48.3995C58.5737 48.6501 58.6223 49.008 58.9022 49.1392C59.0239 49.1989 59.4255 49.1452 59.5594 49.1154C60.4539 48.9125 61.3484 48.7157 62.2429 48.5128C62.6506 48.4055 63.0705 48.3577 63.466 48.2504C63.8007 48.1609 64.1475 48.1191 64.4822 48.0416C64.6404 48.0058 64.8412 48.0416 64.8838 48.1489C64.8838 48.3876 64.8899 48.6202 64.896 48.8589C64.9325 49.0378 64.8655 49.2705 64.9081 49.4614C64.9385 50.1415 64.9751 50.8216 65.0055 51.5016C65.1759 54.5501 65.3462 57.5986 65.5166 60.647C65.5227 60.8558 65.5349 61.0706 65.541 61.2794C65.5775 61.4643 65.5349 61.6851 65.5775 61.8819C65.614 62.0669 65.5714 62.2816 65.614 62.4845C65.6505 62.6694 65.6079 62.8842 65.6444 63.087C65.6627 63.3793 65.6809 63.6657 65.6992 63.958C65.7844 64.3636 65.9 64.7454 66.1799 64.9483C66.3685 65.0855 66.7214 65.0736 66.9588 64.9841C67.4516 64.7872 67.7741 64.3935 68.1697 64.1011C68.267 64.0296 68.3522 63.9222 68.4496 63.8506C68.9181 63.4986 69.338 63.0929 69.8065 62.741C69.9587 62.6276 70.0864 62.4725 70.2386 62.3592C70.6889 62.0191 71.0844 61.6135 71.5286 61.2794C71.8389 61.0467 72.1006 60.7663 72.4048 60.5396C72.7152 60.307 73.0072 60.0445 73.2932 59.788C73.3358 59.7939 73.3297 59.8059 73.3602 59.8238C73.3602 60.0087 73.2932 60.122 73.2506 60.2593C73.135 60.6232 73.0316 61.3331 73.2628 61.6433C73.3845 61.8103 73.7374 61.8819 74.0295 61.8044C74.5285 61.6791 74.8997 61.4524 75.2648 61.1959C75.6055 60.9513 75.8915 60.647 76.2201 60.4024C76.3479 60.2772 76.4696 60.1519 76.5974 60.0326C77.0537 59.6925 77.4919 59.2093 77.8326 58.7559C78.2647 58.1892 78.7089 57.6045 78.9097 56.8171C78.9523 56.656 78.9097 56.4412 78.8732 56.3159C78.7758 55.9759 78.6237 55.7373 78.2829 55.6418C78.0152 55.5643 77.4493 55.6299 77.1268 55.6299C76.7799 55.6299 76.3661 55.6717 76.0619 55.606C75.9645 55.5881 75.8063 55.5881 75.8489 55.445C75.9219 55.2004 76.3418 54.9558 76.5487 54.8126C77.1633 54.389 77.857 54.0251 78.5202 53.6433C78.7454 53.518 78.9584 53.3928 79.1652 53.2496C79.22 53.2138 79.3295 53.1541 79.3965 53.2078C79.506 53.2496 79.5303 53.3868 79.5608 53.5001C79.652 53.7925 79.6155 54.2399 79.6155 54.6098C79.6094 55.612 79.6034 56.6083 79.5912 57.6105C79.5912 57.9625 79.4938 58.5889 79.646 58.8215C79.7981 59.0482 80.2301 59.1317 80.5161 58.9647C80.6074 58.911 80.6804 58.8335 80.7595 58.7678C80.7839 58.732 80.8082 58.7022 80.8386 58.6664C80.9907 58.5113 81.1307 58.3562 81.2646 58.1832C81.5445 57.8193 81.8609 57.4673 82.1347 57.0915C82.2625 56.9185 82.3964 56.7455 82.512 56.5665C82.5607 56.4949 82.5911 56.3875 82.6763 56.3577C82.6884 56.3517 82.6763 56.3577 82.7006 56.3458C82.8588 56.5128 82.7676 56.9065 82.8223 57.175C82.9379 57.7059 82.9379 58.219 83.1996 58.5948C83.662 58.7082 83.8568 58.3502 84.0454 58.0937C84.4409 57.5568 84.873 57.0378 85.2685 56.489C85.3902 56.3338 85.5119 56.1847 85.6336 56.0296C85.7796 56.0356 85.737 56.1429 85.7796 56.2503C85.8466 56.4054 85.9196 56.5605 85.9926 56.7216C86.1812 57.1452 86.4003 57.5807 86.6376 57.9625C86.7654 58.1713 86.8688 58.4218 87.0696 58.5531C87.38 58.7559 87.8729 58.565 88.0372 58.3562C88.4144 57.867 88.8647 57.4315 89.242 56.9483C89.5097 56.6023 89.7957 56.2384 90.1 55.9222C90.2764 55.9341 90.4468 56.3637 90.532 56.5009C90.7389 56.829 90.9579 57.169 91.1648 57.4912C91.3048 57.7119 91.4508 57.9446 91.676 58.0818C91.9863 58.2727 92.3757 58.1176 92.5644 57.9088C92.7652 57.6105 92.966 57.3122 93.1668 57.0139C93.5136 56.5188 93.8544 56.0236 94.2012 55.5285C94.3534 55.5344 94.3108 55.6657 94.3351 55.791C94.3595 56.0177 94.3899 56.2444 94.4142 56.4651C94.5359 56.996 94.682 57.2705 95.2296 57.3838C95.4365 57.4256 95.6069 57.3062 95.6982 57.2227C95.9537 56.9781 96.0267 56.5546 95.9294 56.0654C95.9294 55.8626 95.9233 55.6657 95.9172 55.4629C95.8807 55.3018 95.9294 55.1049 95.8929 54.9259C95.8685 54.8066 95.9111 54.6336 95.8807 54.5024C95.8138 54.1862 95.9172 53.6374 95.9841 53.345C96.0024 53.1899 96.0207 53.0348 96.0389 52.8738C96.1484 52.3965 96.185 51.8715 96.3066 51.4122C96.4466 50.8872 96.4588 50.3324 96.8543 50.058C97.0673 49.9088 97.335 49.8551 97.6027 49.7537C98.1017 49.5568 98.6068 49.3719 99.1057 49.1631C100.378 48.6381 101.68 48.1489 102.958 47.6359C103.359 47.4748 103.749 47.3555 104.15 47.1885C104.564 47.0155 105.008 46.8663 105.428 46.6993C105.714 46.5859 106.037 46.5561 106.286 46.407C106.438 46.3175 106.578 46.0789 106.377 45.9237" fill="#231F20"/>
</g>
</svg>
