<svg width="120" height="120" viewBox="0 0 120 120" fill="none" xmlns="http://www.w3.org/2000/svg">
<rect width="120" height="120" rx="60" fill="white"/>
<rect x="0.5" y="0.5" width="119" height="119" rx="59.5" stroke="#1B497E" stroke-opacity="0.1"/>
<g clip-path="url(#clip0_16275_5149)">
<path d="M71.761 74.3765L66.4166 67.403H64.2059V78.9891H66.3629V70.8023L71.3317 77.5572H71.9541L76.6976 70.7477V78.9781H79.2088V67.3921H77.1268L71.761 74.3656V74.3765ZM87.6761 74.3547L90.1337 69.7967L90.1873 69.7202L92.6127 74.3656H87.6761V74.3547ZM91.4751 67.403H89.0176L82.5463 78.9891H85.2185L86.5707 76.4314H93.6644L94.9951 78.9891L98.0107 78.9344L91.4859 67.3921L91.4751 67.403ZM49.2351 72.4637V69.3814H55.5454C56.0068 69.3814 56.3502 69.7421 56.3502 70.2121V71.633C56.3502 72.103 55.9961 72.4637 55.5454 72.4637H49.2351ZM56.9298 74.4093C58.0137 74.4093 58.9259 73.4802 58.9259 72.3544V69.4579C58.9259 68.3321 58.0137 67.403 56.9298 67.403H46.7346V78.9672H49.2459V74.4093H51.639L56.3288 78.9672H60.0527L54.762 74.4093H56.919H56.9298ZM38.2888 79H40.9073V67.414H38.2888V79ZM31.6029 71.633C31.6029 72.103 31.2273 72.4637 30.7659 72.4637H24.4556V69.3814H30.7659C31.2166 69.3814 31.6029 69.7421 31.6029 70.2121V71.633ZM32.161 67.414H21.9444V78.9781H24.4771V74.4202H32.161C33.2663 74.4202 34.1785 73.4912 34.1785 72.3654V69.4688C34.1785 68.343 33.2663 67.414 32.161 67.414ZM64.0985 57.0521C60.7717 56.9756 57.3805 56.9428 53.9571 56.91C56.6722 53.2593 59.2907 49.543 59.4839 44.7228C61.0293 45.8923 62.5639 47.1602 64.0985 48.45C67.4683 51.3028 70.8381 54.4398 74.2615 57.6533C71.0527 57.3253 67.6293 57.1614 64.0985 57.0412M64.0985 41.0612C60.2888 37.957 56.4361 34.9402 52.4439 32C59.1298 54.5819 40.2312 60.5716 21 65.4028C36.6146 63.1184 51.8215 62.4844 64.0985 62.8233C73.7571 63.0965 83.9629 64.4081 92.0224 65.8947C83.7161 57.1505 73.4244 48.6467 64.0985 41.0721" fill="#231F20"/>
<path d="M64.0985 57.0521C60.7717 56.9756 57.3805 56.9428 53.9571 56.91C56.6722 53.2593 59.2907 49.543 59.4839 44.7228C61.0293 45.8923 62.5639 47.1602 64.0985 48.45C67.4683 51.3028 70.838 54.4398 74.2615 57.6533C71.0527 57.3253 67.6293 57.1614 64.0985 57.0412M64.0985 41.0612C60.2888 37.957 56.4361 34.9402 52.4439 32C59.1298 54.5819 40.2312 60.5716 21 65.4028C36.6146 63.1184 51.8215 62.4844 64.0985 62.8233C73.7571 63.0965 83.9629 64.4081 92.0224 65.8946C83.7161 57.1505 73.4244 48.6467 64.0985 41.0721" fill="#231F20"/>
<path d="M87.676 74.3546L90.1336 69.7967L90.1873 69.7202L92.6126 74.3546H87.676ZM91.4751 67.403H89.0175L82.5463 78.9891H85.2185L86.5707 76.4314H93.6643L94.9951 78.9891L98.0107 78.9344L91.4858 67.3921L91.4751 67.403ZM49.2351 72.4637V69.3814H55.5453C56.0068 69.3814 56.3502 69.7421 56.3502 70.2121V71.633C56.3502 72.103 55.996 72.4637 55.5453 72.4637H49.2351ZM56.9297 74.4093C58.0029 74.4093 58.9258 73.4802 58.9258 72.3544V69.4579C58.9258 68.3321 58.0136 67.403 56.9297 67.403H46.7346V78.9672H49.2458V74.4093H51.6497L56.3395 78.9672H60.0634L54.7726 74.4093H56.9297ZM71.7609 74.3765L66.4165 67.403H64.2058V78.9891H66.3629V70.8023L71.3316 77.5572H71.9541L76.6975 70.7477V78.9781H79.2087V67.3921H77.1268L71.7609 74.3656V74.3765ZM31.6029 71.633C31.6029 72.103 31.2273 72.4637 30.7658 72.4637H24.4556V69.3814H30.7658C31.2273 69.3814 31.6029 69.7421 31.6029 70.2121V71.633ZM32.1609 67.414H21.9443V78.9781H24.477V74.4202H32.1609C33.2663 74.4202 34.1785 73.4912 34.1785 72.3653V69.4688C34.1785 68.343 33.2663 67.414 32.1609 67.414ZM38.2887 79H40.9073V67.414H38.2887V79Z" fill="#231F20"/>
</g>
<defs>
<clipPath id="clip0_16275_5149">
<rect width="77" height="47" fill="white" transform="translate(21 32)"/>
</clipPath>
</defs>
</svg>
