<svg width="120" height="120" viewBox="0 0 120 120" fill="none" xmlns="http://www.w3.org/2000/svg">
<rect width="120" height="120" rx="60" fill="white"/>
<rect x="0.5" y="0.5" width="119" height="119" rx="59.5" stroke="#1B497E" stroke-opacity="0.1"/>
<g clip-path="url(#clip0_16160_6469)">
<path d="M34.1455 58.9064C34.2591 58.2756 34.5129 56.8579 31.6222 56.8579H27.9001L24.7773 63.5701H26.3991L27.6004 60.9946H30.3751C33.7322 60.9946 34.1407 58.946 34.1455 58.9089V58.9064ZM32.5576 58.7382C32.4512 59.3295 31.9485 60.0346 30.4983 60.0346H28.0475L29.082 57.8179H31.1823C32.5044 57.8179 32.6277 58.3622 32.56 58.7407L32.5576 58.7382Z" fill="#231F20"/>
<path d="M42.1989 58.5675C42.4914 56.9321 40.3789 56.8579 39.5886 56.8579H35.5837L32.4609 63.5701H34.1069L35.3951 60.8065H37.3263C38.194 60.8065 39.0617 60.8065 38.9215 61.5859C38.8345 62.0757 38.5928 62.5532 38.5034 63.053C38.4695 63.241 38.4671 63.4019 38.513 63.5701H40.2122C40.101 63.4019 40.1107 63.2039 40.1445 63.0159C40.2146 62.5557 40.4539 62.0856 40.536 61.6255C40.6351 61.0713 40.5095 60.6185 39.7674 60.4132L39.7723 60.3934C41.1113 60.2227 42.0104 59.6314 42.1989 58.57V58.5675ZM38.1867 59.9109H35.8157L36.7873 57.8154H39.0544C39.91 57.8154 40.6883 57.9564 40.5578 58.6887C40.4176 59.4681 39.562 59.9109 38.1867 59.9109Z" fill="#231F20"/>
<path d="M47.4438 56.6973C45.0317 56.6973 42.2498 57.9764 41.7422 60.7968C41.4425 62.4594 42.68 63.7286 45.3266 63.7286C47.804 63.7286 50.4578 62.452 50.9629 59.6315C51.2699 57.912 49.8825 56.6973 47.4438 56.6973ZM49.3339 59.6662C49.0656 61.1605 47.6879 62.7662 45.5489 62.7662C43.9295 62.7662 43.144 62.0066 43.3688 60.7548C43.6371 59.2604 45.0148 57.6523 47.219 57.6523C48.8384 57.6523 49.5587 58.4143 49.3339 59.6637V59.6662Z" fill="#231F20"/>
<path d="M62.8446 56.8555H59.1369L55.5743 59.0846L55.5501 59.0648L56.5822 56.8555H53.7301L50.6074 63.5677H53.4595L54.3682 61.6032L55.4583 60.9649L56.6885 63.5677H59.891L57.926 59.619L62.8446 56.8555Z" fill="#231F20"/>
<path d="M63.9395 61.0119H68.4013L69.1385 59.4137H64.6936L65.09 58.5774H69.8877L70.6756 56.8555H63.0259L59.8911 63.5677H67.6423L68.4448 61.8482H63.5432L63.9395 61.0119Z" fill="#231F20"/>
<path d="M77.2089 56.8555L75.5146 60.5221H75.488L74.4076 56.8555H71.5822L68.4595 63.5677H71.1689L72.9212 59.8095H72.9454L73.9702 63.5677H76.769L79.9183 56.8555H77.2089Z" fill="#231F20"/>
<path d="M86.5166 56.8555L84.8223 60.5221H84.7957L83.7177 56.8555H80.8898L77.7695 63.5677H80.479L82.2288 59.8095H82.253L83.2778 63.5677H86.0791L89.226 56.8555H86.5166Z" fill="#231F20"/>
<path d="M107.44 56.8555H104.059L101.903 58.6046L101.321 56.8555H98.2245L99.7834 60.0149L94.8987 63.4736L95.6577 61.8482H90.7561L91.1524 61.0119H95.6117L96.3538 59.4137H91.9065L92.3029 58.5774H97.0982L97.8861 56.8555H90.2388L87.104 63.5677H94.7658H94.8552H98.2656L100.741 61.6873L101.429 63.5677H104.629L103.025 60.0149L107.44 56.8555Z" fill="#231F20"/>
<path d="M23.2791 60.406C25.2054 55.2303 23.0567 50.5963 18.4814 50.052C13.9036 49.5102 8.63462 53.2634 6.70829 58.4391C4.77955 63.6149 6.92824 68.2489 11.506 68.7932C16.0813 69.335 21.3551 65.5793 23.2815 60.406H23.2791ZM11.6341 67.7071C7.25453 67.2865 5.23636 63.3032 7.12401 58.8103C9.01409 54.3198 14.0946 51.0169 18.4741 51.4375C22.8537 51.8581 24.8718 55.8414 22.9818 60.3343C21.0941 64.8272 16.0112 68.1276 11.6317 67.7071H11.6341Z" fill="#231F20"/>
<path d="M14.5635 52.8228L7.6582 63.6098H11.0734L17.1666 52.8179L14.5635 52.8228Z" fill="#231F20"/>
<path d="M17.604 62.1502C15.9194 60.6064 15.4408 58.3748 16.0185 56.1753L11.8105 63.6074H20.4488C19.4192 63.3427 18.3726 62.8677 17.604 62.1502Z" fill="#231F20"/>
<path d="M110.962 57.2441C108.883 57.2441 106.831 58.7558 106.394 60.599C105.954 62.4546 107.285 63.9662 109.364 63.9662C111.443 63.9662 113.473 62.4546 113.918 60.599C114.35 58.7558 113.033 57.2441 110.962 57.2441ZM113.316 60.5965C112.922 62.2517 111.322 63.4293 109.492 63.4293C107.662 63.4293 106.604 62.2517 107 60.5965C107.387 58.9587 108.994 57.7785 110.834 57.7785C112.673 57.7785 113.7 58.9587 113.316 60.5965Z" fill="#231F20"/>
<path d="M111.063 58.6592H109.217L108.306 62.5039H108.854L109.263 60.7943H110.181L110.984 62.5039H111.605L110.73 60.7943C111.496 60.7399 112.141 60.4628 112.315 59.723C112.477 59.0352 112.187 58.6592 111.068 58.6592H111.063ZM111.716 59.7107C111.544 60.4356 110.725 60.3465 110.126 60.3465H109.367L109.664 59.107H110.841C111.358 59.107 111.844 59.1763 111.716 59.7131V59.7107Z" fill="#231F20"/>
<path d="M23.5278 65.0869C21.7006 65.0869 19.8951 66.4155 19.5108 68.036C19.1241 69.6664 20.2963 70.9975 22.1235 70.9975C23.9508 70.9975 25.7369 69.6664 26.1285 68.036C26.5103 66.4155 25.3502 65.0869 23.5278 65.0869ZM25.5967 68.0385C25.2511 69.4933 23.842 70.5299 22.2347 70.5299C20.6274 70.5299 19.6945 69.4933 20.0425 68.0385C20.3809 66.5986 21.7972 65.5595 23.4118 65.5595C25.0263 65.5595 25.9327 66.5961 25.5943 68.0385H25.5967Z" fill="#231F20"/>
<path d="M23.6171 66.3315H21.9929L21.1904 69.7136H21.6714L22.0291 68.2094H22.8364L23.5421 69.7136H24.0884L23.3198 68.2094C23.9941 68.1599 24.5597 67.9174 24.7144 67.2667C24.857 66.6631 24.6008 66.3315 23.6171 66.3315ZM22.7905 67.816H22.121L22.382 66.7249H23.4189C23.8757 66.7249 24.3011 66.7868 24.1875 67.2568C24.0352 67.8952 23.3174 67.816 22.788 67.816H22.7905Z" fill="#231F20"/>
</g>
<defs>
<clipPath id="clip0_16160_6469">
<rect width="108" height="21" fill="white" transform="translate(6 50)"/>
</clipPath>
</defs>
</svg>
