<svg width="120" height="120" viewBox="0 0 120 120" fill="none" xmlns="http://www.w3.org/2000/svg">
<rect width="120" height="120" rx="60" fill="white"/>
<rect x="0.5" y="0.5" width="119" height="119" rx="59.5" stroke="#1B497E" stroke-opacity="0.1"/>
<mask id="mask0_16275_5147" style="mask-type:luminance" maskUnits="userSpaceOnUse" x="11" y="44" width="97" height="32">
<path d="M108 44.8169H11V75.1465H108V44.8169Z" fill="white"/>
</mask>
<g mask="url(#mask0_16275_5147)">
<path d="M99.627 62.0389V62.1756H99.2302V63.228H99.0661V62.1756H98.6693V62.0389H99.627ZM99.7775 62.0389H100.01L100.352 63.0366L100.694 62.0389H100.927V63.228H100.776V62.5309C100.776 62.5309 100.776 62.4626 100.776 62.4079C100.776 62.3532 100.776 62.2849 100.776 62.2302L100.434 63.228H100.27L99.928 62.2302V62.2712C99.928 62.2712 99.928 62.3396 99.928 62.4079C99.928 62.4626 99.928 62.5173 99.928 62.5446V63.2417H99.7775V62.0525V62.0389ZM18.251 47.8377H23.6824V63.2553H25.8851V47.8377H31.3302V47.2636H18.251V47.8377ZM43.0414 54.4531H36.1187V47.2636H33.9023V63.2553H36.1187V55.0271H43.0414V63.2553H45.2441V47.2636H43.0414V54.4667V54.4531ZM54.9851 47.3046L48.1582 63.2553H48.8149L50.9355 58.3348H57.2288L58.98 63.2553H61.2511L55.464 47.0859L54.9851 47.3046ZM51.1817 57.7607L54.4105 50.3253L57.0373 57.7607H51.1817ZM67.052 47.2636H64.8493V63.2553H73.701V62.6813H67.052V47.2636ZM77.3676 47.8377H78.3937V62.6813H77.3676V63.2553H81.7046V62.6813H80.6101V47.8377H81.7046V47.2636H77.3676V47.8377ZM92.3759 47.0859L91.8971 47.3046L85.0838 63.2553H85.7405L87.8611 58.3348H94.1545L95.9057 63.2553H98.1768L92.3896 47.0859H92.3759ZM88.0937 57.7607L91.3225 50.3253L93.9493 57.7607H88.0937Z" fill="#231F20"/>
<path d="M38.5404 70.0619C37.8563 69.8159 37.268 69.5972 37.268 68.9548C37.268 68.3944 37.7332 68.0253 38.4583 68.0253C38.8961 68.0253 39.5118 68.162 39.8675 68.2987L39.9359 68.326L40.018 68.1073L39.9496 68.08C39.4433 67.916 38.8414 67.8066 38.3762 67.8066C36.8986 67.8066 36.7345 68.7497 36.7345 69.1461C36.7345 70.1439 37.5553 70.4856 38.3625 70.8136C39.074 71.1143 39.7443 71.3877 39.7443 72.1121C39.7443 72.9049 38.9508 73.1919 38.2804 73.1919C37.7469 73.1919 37.1586 73.0142 36.8029 72.7545L36.7345 72.7135L36.6113 72.9049L36.6661 72.9459C37.1312 73.2739 37.7058 73.4379 38.3625 73.4379C39.5938 73.4379 40.2779 72.8912 40.2779 71.8934C40.2779 70.718 39.3476 70.3762 38.5404 70.0755" fill="#231F20"/>
<path d="M52.0711 67.7793C50.4431 67.7793 49.458 68.8864 49.458 70.7316C49.458 71.7431 49.7727 73.4242 51.8659 73.4242C53.5213 73.4242 54.479 72.3581 54.479 70.4993C54.479 68.1347 52.9741 67.7793 52.0711 67.7793ZM52.0301 67.998C52.6457 67.998 53.6855 68.326 53.6855 70.5129C53.6855 72.1941 53.0151 73.2055 51.9069 73.2055C50.7988 73.2055 50.2652 72.3171 50.2652 70.6906C50.2652 69.0641 50.9219 67.998 52.0301 67.998Z" fill="#231F20"/>
<path d="M64.726 67.8066C64.5208 67.8066 64.3292 67.8066 64.1514 67.8203H63.4536V73.3969H63.9188C64.124 73.4106 64.3839 73.4242 64.7396 73.4242C65.5195 73.4242 66.1899 73.2192 66.6687 72.8365C67.257 72.3581 67.558 71.6064 67.558 70.6086C67.558 68.7771 66.5866 67.793 64.7396 67.793M64.2471 68.039C64.3976 68.039 64.5618 68.0253 64.726 68.0253C65.6426 68.0253 66.7508 68.4764 66.7508 70.6086C66.7508 71.5517 66.5182 72.2624 66.0804 72.6998C65.6152 73.1509 65.0406 73.2055 64.7396 73.2055C64.5755 73.2055 64.4113 73.2055 64.2608 73.2055V68.0527L64.2471 68.039Z" fill="#231F20"/>
<path d="M76.4878 68.0425V68.2612H76.8435V73.4004H76.4878V73.6191H78.0338V73.4004H77.637V68.2612H78.0338V68.0425H76.4878Z" fill="#231F20"/>
</g>
</svg>
