<svg width="120" height="120" viewBox="0 0 120 120" fill="none" xmlns="http://www.w3.org/2000/svg">
<rect width="120" height="120" rx="60" fill="white"/>
<rect x="0.5" y="0.5" width="119" height="119" rx="59.5" stroke="#1B497E" stroke-opacity="0.1"/>
<g clip-path="url(#clip0_16275_5166)">
<path fill-rule="evenodd" clip-rule="evenodd" d="M38.2432 41.1791L60.0184 41.1883C60.1364 41.1316 76.2095 41.1607 79.0199 41.1623C79.9301 41.1623 80.8588 41.1393 81.769 41.1623L81.7613 55.481H60.0015H38.2417V62.6725H81.7843V34.0427C81.5928 33.9677 76.9635 34.0121 76.349 34.0121H38.2432V41.1791Z" fill="#201553"/>
<path fill-rule="evenodd" clip-rule="evenodd" d="M60.0061 55.4872H81.7659L81.7736 41.1685C80.8679 41.1409 79.9347 41.1685 79.0245 41.1685C76.211 41.1685 60.1379 41.1379 60.023 41.1945L60.0061 55.4872Z" fill="#E41022"/>
<path fill-rule="evenodd" clip-rule="evenodd" d="M38.2432 55.4921L60.0061 55.4891L60.0183 41.1933L38.2432 41.1841V55.4921Z" fill="white"/>
<path fill-rule="evenodd" clip-rule="evenodd" d="M54.957 64.4078V73.8179H56.3362V66.4734C56.4419 66.5438 56.4388 66.5652 56.5124 66.6739C56.7591 67.0395 57.5115 67.8979 57.769 68.2743L59.1052 69.9881L59.1205 70.0034C59.1315 70.0133 59.1417 70.0241 59.1512 70.0355C59.1879 70.0829 59.1772 70.0477 59.1956 70.1166H59.4776C59.5097 69.9972 60.0553 69.3408 60.1641 69.1985L60.6069 68.637C60.6216 68.62 60.6375 68.6042 60.6544 68.5896L61.0712 68.0663C61.1337 67.9908 61.1916 67.9116 61.2444 67.8291L61.9646 66.9187C62.0724 66.7578 62.1972 66.6091 62.337 66.4749V73.8195H63.7161V64.3129H62.4289L62.0795 64.7505C61.9263 64.9035 61.8083 65.1086 61.6658 65.2769L61.1862 65.8644C61.1479 65.9088 61.1218 65.9425 61.0866 65.9853L59.5496 67.9255C59.5097 67.9744 59.4837 67.9913 59.4438 68.0402C59.404 68.0892 59.381 68.1351 59.355 68.1718C59.2808 68.1101 59.2149 68.0392 59.1588 67.9607C59.0868 67.8811 59.0286 67.8077 58.9596 67.7189L56.3546 64.4537C56.2917 64.3695 56.3025 64.4154 56.2749 64.3129H55.2375C55.0995 64.3114 54.957 64.2746 54.957 64.4078Z" fill="#201553"/>
<path fill-rule="evenodd" clip-rule="evenodd" d="M71.2952 73.8182H72.6743V66.4737C72.6743 66.4737 72.6866 66.4813 72.6881 66.4905C72.6897 66.4997 72.7126 66.5181 72.7172 66.5242L72.7601 66.5762L74.5362 68.8484C74.5806 68.9004 74.5944 68.9066 74.6404 68.9647L75.1736 69.6548C75.2441 69.7573 75.2824 69.7772 75.3575 69.8797C75.4326 69.9822 75.4817 70.0327 75.5322 70.1123H75.7835C76.0119 69.7726 76.3965 69.3273 76.6585 68.9785L77.9687 67.3061L77.9978 67.2724L78.643 66.4737V73.8182H80.0221V64.3132H78.7349C78.6384 64.4953 77.8829 65.372 77.6975 65.6306L76.8271 66.7017C76.7612 66.7782 76.7091 66.8685 76.6432 66.9572L76.0762 67.6473L76.0456 67.6779C75.9245 67.8079 75.7391 68.1033 75.6548 68.1675C75.5799 68.1058 75.5166 68.0312 75.4679 67.9472L72.7617 64.5641L72.7464 64.5473C72.6605 64.457 72.6054 64.4188 72.5763 64.3086H71.2891L71.2952 73.8182Z" fill="#201553"/>
<path fill-rule="evenodd" clip-rule="evenodd" d="M43.7413 72.6582C43.3245 72.6582 42.6288 72.5893 42.2641 72.4072C42.0168 72.3119 41.7805 72.1904 41.5592 72.0446C41.0566 71.6682 41.0995 71.7386 40.6842 71.1923C40.5555 71.0196 40.448 70.8321 40.3639 70.6338L40.2306 70.3278C40.2065 70.2733 40.1905 70.2156 40.1831 70.1564C40.0578 69.737 40.006 69.299 40.0299 68.862C40.0306 68.7384 40.0444 68.6153 40.0713 68.4947C40.1181 68.0998 40.2337 67.7161 40.413 67.3609L40.8497 66.6999C41.1861 66.3106 41.6048 66.0007 42.0756 65.7926C42.14 65.7665 42.1476 65.7604 42.2059 65.7344C42.6172 65.5853 43.0484 65.4976 43.4854 65.4743C44.3941 65.4386 45.286 65.7253 46.0031 66.2837L46.3096 66.5744L46.3234 66.5913C46.6469 66.9535 46.8982 67.3742 47.0635 67.8307C47.2775 68.5097 47.3112 69.2325 47.1616 69.9284C47.1365 70.0454 47.1048 70.1609 47.0666 70.2742C46.9502 70.6362 46.7719 70.9754 46.5394 71.2765C46.2251 71.7009 45.8109 72.0414 45.3335 72.268L44.8737 72.4623C44.51 72.5806 44.1313 72.6465 43.749 72.6582H43.7413ZM38.5879 68.9553C38.5857 69.6915 38.7338 70.4203 39.0231 71.0974C39.063 71.1938 39.0813 71.2122 39.1166 71.2857L39.3924 71.7646C39.4127 71.7969 39.4306 71.8307 39.446 71.8656C39.4773 71.9263 39.5182 71.9816 39.5671 72.0293L39.9808 72.525L40.6321 73.0667L41.3983 73.4967C41.4652 73.5267 41.5337 73.5527 41.6036 73.5747C41.6711 73.5992 41.7569 73.6374 41.8289 73.665C42.0514 73.7548 42.284 73.8174 42.5215 73.8516C42.6146 73.859 42.7072 73.8712 42.7989 73.8884C43.6725 74.0303 44.5677 73.9531 45.4039 73.6634C45.4683 73.6405 45.4545 73.6512 45.5265 73.6298C45.784 73.5473 46.0313 73.4359 46.2636 73.2977C46.6433 73.0856 46.9911 72.8208 47.2964 72.5113L47.7102 72.0522C47.9492 71.7845 48.1576 71.3178 48.3093 70.9888C48.5641 70.3878 48.6979 69.7426 48.7032 69.0899C48.7002 68.5656 48.6185 68.0447 48.461 67.5445C48.365 67.2483 48.2419 66.9615 48.0933 66.6877L47.94 66.4092C47.7731 66.1252 47.5702 65.864 47.3363 65.6319C47.1585 65.4483 46.9317 65.3259 46.7478 65.1515L46.0031 64.7031C45.6823 64.5558 45.349 64.4375 45.0071 64.3497C44.6553 64.2641 44.2961 64.2128 43.9344 64.1967C43.573 64.1758 43.2104 64.1927 42.8525 64.2472L42.3438 64.3359C42.2595 64.3573 42.2151 64.3833 42.1292 64.4032C41.7534 64.4996 41.3925 64.6469 41.0566 64.8408C40.8643 64.9325 40.6828 65.0454 40.5157 65.1775C40.4436 65.2433 40.416 65.2586 40.3425 65.3198L39.3265 66.4689C39.0954 66.8317 38.9193 67.2267 38.804 67.6409C38.6745 68.0677 38.6019 68.5096 38.5879 68.9553Z" fill="#201553"/>
<path fill-rule="evenodd" clip-rule="evenodd" d="M67.0535 80.1861C67.0587 80.4531 67.0858 80.7193 67.1347 80.9818C67.1515 81.095 67.1515 81.1761 67.1715 81.2603C67.2711 81.7219 67.4406 82.1656 67.6741 82.5762C67.6907 82.6027 67.7055 82.6303 67.7185 82.6588C67.9204 83.0089 68.1694 83.3296 68.4587 83.6121C68.8834 84.0152 69.3749 84.3419 69.9114 84.5776C70.051 84.6444 70.1961 84.6991 70.345 84.7413C70.5105 84.7841 70.6193 84.827 70.8155 84.8667C70.9817 84.9149 71.1529 84.9442 71.3257 84.954C71.4208 84.9576 71.5156 84.9678 71.6092 84.9846C72.1587 85.0136 72.7097 84.9977 73.2565 84.9371L74.3185 84.7107C74.3819 84.6926 74.4443 84.6712 74.5054 84.6464L75.6609 84.2011C75.6394 84.1629 75.6302 84.1675 75.6302 84.1063V80.1861H72.4888V81.4408H74.2756V83.3229C73.6013 83.6457 72.1149 83.8186 71.3916 83.6289C71.1508 83.5764 70.9134 83.5094 70.6806 83.4284C70.4689 83.3496 70.2668 83.2469 70.0784 83.1224C69.7597 82.9113 69.3428 82.5808 69.1482 82.264L68.8172 81.6841C68.8077 81.6636 68.797 81.6437 68.7851 81.6244C68.768 81.5969 68.7551 81.567 68.7468 81.5357C68.7222 81.4668 68.7084 81.4317 68.687 81.375C68.5022 80.8226 68.4497 80.2346 68.5337 79.6583C68.6042 79.1656 68.733 78.6025 69.041 78.1878L69.3643 77.7594C69.3858 77.7383 69.4053 77.7153 69.4225 77.6905L69.7367 77.3769C69.8978 77.2278 70.0794 77.1026 70.2761 77.0051L71.6046 76.5751C72.1151 76.5181 72.6312 76.5345 73.137 76.6241L73.3378 76.6746C73.419 76.6944 73.4818 76.6975 73.5768 76.7189L74.7843 77.1443C75.6563 77.5268 75.4739 77.8512 75.4739 76.1405C75.4739 76.0503 75.4218 76.038 75.3559 76.009C75.29 75.9799 75.2471 75.9692 75.1736 75.9401L74.2541 75.5943C74.1934 75.5674 74.1303 75.5464 74.0656 75.5316C73.1554 75.3051 72.7049 75.2148 71.7272 75.2623L70.9059 75.3816C70.8155 75.4046 70.768 75.4091 70.673 75.4321L70.2132 75.5943C70.1182 75.6325 70.0769 75.6387 69.9849 75.68C69.4349 75.9212 68.9337 76.2609 68.5062 76.6822L67.7017 77.7303C67.6526 77.8206 67.6327 77.8436 67.5913 77.9323L67.5806 77.9537L67.5714 77.9751L67.4013 78.3393C67.1759 78.9292 67.0581 79.5547 67.0535 80.1861Z" fill="#201553"/>
<path fill-rule="evenodd" clip-rule="evenodd" d="M22 84.8606H23.4144V80.7507H28.5663V84.8606H29.9485V75.3877H28.5663V79.496H23.4144V75.3877H22V84.8606Z" fill="#201553"/>
<path fill-rule="evenodd" clip-rule="evenodd" d="M92.1249 79.527V76.5785C92.8482 76.5785 93.1884 76.5234 93.8412 76.6841L94.3469 76.932C94.4148 76.9899 94.475 77.0562 94.5262 77.1293C94.966 77.6939 94.8434 78.7405 94.3515 79.1185C93.521 79.7535 92.4299 79.4046 92.1249 79.5301V79.527ZM90.7458 84.8594H92.1249V80.7817C92.7946 80.7817 93.0107 80.7128 93.5179 80.9913L93.783 81.1979C94.3086 81.6401 94.5017 82.015 94.8894 82.5383L94.966 82.65C95.0043 82.7112 95.0257 82.7433 95.0656 82.803L95.8073 83.9766C95.8762 84.0776 95.9253 84.1694 95.9896 84.2658L96.3666 84.861H98.0001L97.6277 84.2918C97.5894 84.2397 97.5695 84.229 97.5281 84.1724L97.0853 83.516L97.0715 83.4992C97.0664 83.4934 97.0618 83.4873 97.0577 83.4808L96.3896 82.3914C96.3528 82.3428 96.3195 82.2916 96.29 82.2384L95.9053 81.6508C95.6466 81.2688 95.3436 80.9185 95.0028 80.6073C94.9154 80.5199 94.8111 80.4511 94.6963 80.4053V80.3502C94.9168 80.271 95.1236 80.1579 95.3092 80.0151C95.6028 79.7799 95.8391 79.4814 96.0005 79.1419C96.1619 78.8024 96.2441 78.4308 96.2409 78.0551C96.2317 77.8491 96.2045 77.6443 96.1597 77.443C96.1435 77.2985 96.1041 77.1574 96.0432 77.0253C95.7904 76.3061 95.2679 75.8976 94.5875 75.6237C94.5247 75.5977 94.5185 75.587 94.4588 75.564C94.0484 75.4408 93.6216 75.3804 93.193 75.385H90.7412L90.7458 84.8594Z" fill="#201553"/>
<path fill-rule="evenodd" clip-rule="evenodd" d="M80.7192 84.8591H86.2174V83.6993C86.2174 83.6274 86.196 83.6044 86.124 83.6044H82.103V80.7187H85.9339V79.4318H82.103V76.6409H85.9983C86.0703 76.6409 86.0918 76.6195 86.0918 76.5476V75.3862H80.7192V84.8591Z" fill="#201553"/>
<path fill-rule="evenodd" clip-rule="evenodd" d="M51.7834 84.8591H53.1626V80.5029H56.7131C56.7851 80.5029 56.8081 80.48 56.8081 80.408V79.2161H53.1657V76.6409H56.8066V75.3862H51.7834V84.8591Z" fill="#201553"/>
<path fill-rule="evenodd" clip-rule="evenodd" d="M25.863 65.5677H29.006C29.078 65.5677 29.0994 65.5906 29.0994 65.6625V73.818H30.4786V65.5677H33.715V64.313H25.863V65.5677Z" fill="#201553"/>
<path fill-rule="evenodd" clip-rule="evenodd" d="M89.293 68.7671V73.8165C90.853 73.8165 90.6798 73.919 90.6722 73.5028V69.0181C90.6722 68.6524 90.686 68.8192 90.9373 68.4672L92.3241 66.6831L92.3379 66.6663L93.2573 65.4805C93.3095 65.399 93.3673 65.3212 93.4305 65.2479C93.5653 65.0949 93.668 64.9495 93.789 64.7888C93.8841 64.6603 94.0955 64.4629 94.1292 64.313H92.4697C92.4405 64.4232 91.8245 65.179 91.7035 65.3351L90.0393 67.4772C89.9703 67.5583 90.0117 67.5277 89.9259 67.5507C89.8845 67.3977 89.0065 66.345 88.8762 66.1522L87.897 64.8699C87.8887 64.8581 87.8795 64.8468 87.8694 64.8363C87.8389 64.8033 87.8102 64.7685 87.7836 64.7322L87.4772 64.3191H85.8406C85.8881 64.492 86.2543 64.8776 86.357 65.0275L88.7812 68.1597C88.9866 68.377 89.1398 68.66 89.293 68.7671Z" fill="#201553"/>
<path fill-rule="evenodd" clip-rule="evenodd" d="M42.3591 84.8606H47.9508V83.6059H43.7413V75.3877H42.3591V84.8606Z" fill="#201553"/>
<path d="M62.8746 75.3862H61.4924V84.8591H62.8746V75.3862Z" fill="#201553"/>
<path d="M36.8917 75.3862H35.5095V84.8591H36.8917V75.3862Z" fill="#201553"/>
</g>
<defs>
<clipPath id="clip0_16275_5166">
<rect width="76" height="51" fill="white" transform="translate(22 34)"/>
</clipPath>
</defs>
</svg>
