<svg width="120" height="120" viewBox="0 0 120 120" fill="none" xmlns="http://www.w3.org/2000/svg">
<rect width="120" height="120" rx="60" fill="white"/>
<rect x="0.5" y="0.5" width="119" height="119" rx="59.5" stroke="#1B497E" stroke-opacity="0.1"/>
<g clip-path="url(#clip0_16275_5150)">
<path d="M78.118 52.8932C84.4073 49.6876 88.514 44.8737 88.7378 39.5332C88.7378 39.5332 87.0774 38.0512 81.7164 35.7659C77.0088 33.759 73.4173 33.2997 73.4173 33.2997L73.4338 45.1985C73.4338 46.9766 72.8178 48.7914 71.6547 50.3982C68.0963 49.4027 64.1636 48.8442 60.0389 48.8426H60.0361C55.9087 48.8442 51.9718 49.4043 48.4093 50.4014C47.2462 48.7946 46.6288 46.9782 46.6288 45.1985L46.644 33.2997C46.644 33.2997 43.0552 33.759 38.3448 35.7659C32.9838 38.0512 31.3262 39.5332 31.3262 39.5332C31.5486 44.8753 35.6567 49.6908 41.9529 52.8964C35.6622 56.102 31.5555 60.9159 31.3331 66.2548C31.3331 66.2548 32.9921 67.7383 38.3531 70.0221C43.0621 72.029 46.6522 72.4883 46.6522 72.4883L46.6357 60.5894C46.6357 58.8114 47.2517 56.995 48.4162 55.3898C51.9746 56.3868 55.9059 56.9438 60.0306 56.9438C64.1595 56.9438 68.0991 56.3852 71.6602 55.385C72.8233 56.9918 73.4394 58.8114 73.4394 60.5894L73.4255 72.4883C73.4255 72.4883 77.0157 72.029 81.7247 70.0221C87.0857 67.7383 88.7447 66.2548 88.7447 66.2548C88.5209 60.9127 84.4128 56.0972 78.118 52.8932ZM60.0334 55.5706H60.0292L59.9118 55.5674C56.1877 55.5674 53.1515 54.5112 50.9248 52.8964C53.1515 51.2784 56.1891 50.2205 59.9201 50.2205L60.0348 50.2189H60.0403L60.1577 50.2205C63.8832 50.2205 66.918 51.2768 69.1447 52.8916C66.918 54.508 63.8804 55.5674 60.1508 55.5674" fill="black"/>
<path d="M23.0942 85.6714C21.2901 85.6714 21.2584 84.0774 21.2584 83.4629V80.563C21.2584 80.3869 21.2459 80.1533 21.5678 80.1533H22.5002C22.8027 80.1533 22.7834 80.4029 22.7834 80.563V83.4629C22.7834 83.6693 22.8165 84.223 23.4727 84.223H25.0364C25.6801 84.223 25.7174 83.6693 25.7174 83.4629V80.563C25.7174 80.4029 25.6994 80.1533 26.0005 80.1533H26.9399C27.281 80.1533 27.2507 80.4029 27.2507 80.563V83.4629C27.2507 84.0774 27.2189 85.6714 25.4079 85.6714" fill="black"/>
<path d="M31.7342 85.3209C31.0974 84.3271 30.1884 83.0756 29.2615 81.7536V85.2841C29.2615 85.4377 29.2947 85.6714 28.9784 85.6714H28.1081C27.7932 85.6714 27.8305 85.4377 27.8305 85.2841V80.563C27.8305 80.4029 27.8167 80.1533 28.1081 80.1533H29.8044C30.2837 80.1533 30.9661 81.2719 31.4137 82.0097C31.759 82.573 32.3972 83.4196 32.8254 84.055V80.563C32.8254 80.4029 32.8061 80.1533 33.1224 80.1533H34.0673C34.3712 80.1533 34.3518 80.4029 34.3518 80.563V85.6714H32.6113C32.2384 85.6714 32.074 85.7002 31.7342 85.3209Z" fill="black"/>
<path d="M38.9049 84.2197C39.6674 84.2197 39.6121 83.3715 39.6121 82.9842C39.6121 81.6831 39.2958 81.6319 38.7916 81.6319H36.395V84.2197H38.9049ZM34.9238 85.6729V80.1627H39.1273C39.3842 80.1627 41.1054 80.1275 41.1054 82.2224C41.1054 84.3653 41.307 85.6729 39.1646 85.6729H36.8992L36.4074 84.519V85.6729" fill="black"/>
<path d="M42.7521 80.1982H46.624C46.9528 80.1982 46.9086 80.4463 46.9086 80.9072C46.9086 81.3361 46.9583 81.5777 46.624 81.5777H43.5643C43.4828 81.5777 43.2066 81.5265 43.2066 81.8626C43.2066 82.1987 43.1499 82.3315 43.458 82.3315H46.164C46.164 82.3315 46.555 83.1941 46.5992 83.3398C46.6627 83.471 46.6558 83.5958 46.4168 83.5958H43.6154L43.1803 82.6164V84.0631C43.1803 84.3992 43.44 84.3336 43.5146 84.3336H46.6931C47.0094 84.3336 46.9832 84.5881 46.9832 85.0042C46.9832 85.4523 47.0094 85.6987 46.6931 85.6987H42.6692C42.3349 85.6987 41.6802 85.5819 41.6802 84.3704V81.3297C41.6802 81.016 41.8252 80.1982 42.7521 80.1982Z" fill="black"/>
<path d="M51.3271 81.6168H49.4415C49.128 81.6168 49.139 81.7416 49.139 81.852V82.8379H51.0812C52.0219 82.8379 52.0219 82.5658 52.0219 82.2809C52.0219 81.7112 51.9846 81.6168 51.3271 81.6168ZM47.9538 80.162H52.1918C52.7595 80.162 53.5842 80.1556 53.5842 81.9304C53.5842 83.0923 53.3715 83.1499 52.917 83.5084C53.6809 83.6621 53.5801 84.7935 53.5801 85.3793C53.5801 85.6785 53.4861 85.6721 53.4088 85.6721H52.1669C51.9072 85.6721 51.9708 85.1968 51.9708 84.9488C51.9708 84.2686 51.6434 84.299 51.5163 84.299H49.6874C49.512 83.9469 49.1708 83.1579 49.1708 83.1579V85.4449C49.1708 85.6433 48.9995 85.6721 48.9373 85.6721H47.69C47.7577 85.6721 47.5615 85.6865 47.5615 85.4881V80.6373C47.5615 80.2932 47.7701 80.162 47.9538 80.162Z" fill="black"/>
<path d="M60.3773 81.7244L59.5954 83.376L59.6645 83.456H61.1218L61.1978 83.376C61.1467 83.2511 60.5168 81.8636 60.4533 81.7164L60.3773 81.7244ZM60.8815 80.1992C61.1909 80.1992 61.492 80.3592 61.8208 81.097C62.0432 81.6219 63.582 84.8435 63.9025 85.5173V85.6997H62.3001L61.8388 84.7347H59.8911C59.8911 84.7347 59.5637 83.8657 59.4697 83.6256C59.3496 83.8513 58.7059 85.2692 58.4835 85.6997H56.877V85.5829C57.2043 84.8675 59.4435 80.1992 59.4435 80.1992" fill="black"/>
<path d="M68.105 81.6168H66.2195C65.9045 81.6168 65.9169 81.7416 65.9169 81.852V82.8379H67.8591C68.7998 82.8379 68.7998 82.5658 68.7998 82.2809C68.7998 81.7112 68.7625 81.6168 68.105 81.6168ZM64.7317 80.162H68.9697C69.5375 80.162 70.3635 80.1556 70.3635 81.9304C70.3635 83.0923 70.1508 83.1499 69.6949 83.5084C70.4574 83.6621 70.3566 84.7935 70.3566 85.3793C70.3566 85.6785 70.2627 85.6721 70.1867 85.6721H68.9449C68.6852 85.6721 68.7487 85.1968 68.7487 84.9488C68.7487 84.2686 68.4213 84.299 68.2942 84.299H66.4653C66.2885 83.9469 65.9473 83.1579 65.9473 83.1579V85.4449C65.9473 85.6433 65.7788 85.6721 65.7153 85.6721H64.4665C64.5356 85.6721 64.3408 85.6865 64.3408 85.4881V80.6373C64.3408 80.2932 64.5494 80.162 64.7317 80.162Z" fill="black"/>
<path d="M74.0658 85.6714C73.7495 84.9848 72.8723 83.0916 72.2797 81.8513V85.2841C72.2797 85.4377 72.2977 85.6714 71.9979 85.6714H71.1387C70.8169 85.6714 70.8418 85.4377 70.8418 85.2841V80.563C70.8418 80.4029 70.8238 80.1613 71.1387 80.1613H72.6209C72.8419 80.1613 73.1555 80.1021 73.5105 80.9214C73.7757 81.5776 74.3379 82.9395 74.722 83.6613C75.1184 82.9395 75.6931 81.5776 75.9583 80.9214C76.305 80.1021 76.613 80.1613 76.8589 80.1613H78.3342C78.6381 80.1613 78.6063 80.4029 78.6063 80.563V85.2841C78.6063 85.4377 78.6491 85.6714 78.3342 85.6714H77.4708C77.1559 85.6714 77.1808 85.4377 77.1808 85.2841V81.8513C76.5826 83.0916 75.711 84.9848 75.3822 85.6714" fill="black"/>
<path d="M83.3355 84.2676C84.0497 84.2676 84.0234 83.4146 84.0234 82.8433C84.0234 82.3311 84.1243 81.5278 83.1974 81.5278H81.6254C80.7054 81.5278 80.8132 82.3311 80.8132 82.8433C80.8132 83.4146 80.769 84.2676 81.4817 84.2676H83.3355ZM80.5106 85.6855C79.1044 85.6855 79.1666 83.9379 79.1666 82.8081C79.1666 81.7694 79.0658 80.1482 80.8256 80.1322H83.9488C85.7142 80.1322 85.5995 81.7758 85.5995 82.8081C85.5995 83.9379 85.67 85.6855 84.2431 85.6855" fill="black"/>
<path d="M87.9511 85.6714C86.1457 85.6714 86.1153 84.0774 86.1153 83.4629V80.563C86.1153 80.3869 86.1029 80.1533 86.4247 80.1533H87.3585C87.6596 80.1533 87.6417 80.4029 87.6417 80.563V83.4629C87.6417 83.6693 87.6735 84.223 88.3296 84.223H89.8933C90.537 84.223 90.5743 83.6693 90.5743 83.4629V80.563C90.5743 80.4029 90.555 80.1533 90.8575 80.1533H91.7968C92.138 80.1533 92.1076 80.4029 92.1076 80.563V83.4629C92.1076 84.0774 92.0758 85.6714 90.2649 85.6714" fill="black"/>
<path d="M96.4819 81.6168H94.5964C94.2815 81.6168 94.2939 81.7416 94.2939 81.852V82.8379H96.2361C97.1768 82.8379 97.1768 82.5658 97.1768 82.2809C97.1768 81.7112 97.1395 81.6168 96.4819 81.6168ZM93.1073 80.162H97.3467C97.9144 80.162 98.7418 80.1556 98.7418 81.9304C98.7418 83.0923 98.5263 83.1499 98.0719 83.5084C98.8358 83.6621 98.7349 84.7935 98.7349 85.3793C98.7349 85.6785 98.641 85.6721 98.5636 85.6721H97.3218C97.0635 85.6721 97.1257 85.1968 97.1257 84.9488C97.1257 84.2686 96.7983 84.299 96.6726 84.299H94.8423C94.6669 83.9469 94.3257 83.1579 94.3257 83.1579V85.4449C94.3257 85.6433 94.1544 85.6721 94.0922 85.6721H92.8449C92.9125 85.6721 92.7178 85.6865 92.7178 85.4881V80.6373C92.7178 80.2932 92.9264 80.162 93.1073 80.162Z" fill="black"/>
</g>
<defs>
<clipPath id="clip0_16275_5150">
<rect width="78" height="53" fill="white" transform="translate(21 33)"/>
</clipPath>
</defs>
</svg>
