<svg width="120" height="120" viewBox="0 0 120 120" fill="none" xmlns="http://www.w3.org/2000/svg">
<rect width="120" height="120" rx="60" fill="white"/>
<rect x="0.5" y="0.5" width="119" height="119" rx="59.5" stroke="#1B497E" stroke-opacity="0.1"/>
<g clip-path="url(#clip0_16275_5161)">
<path d="M96.915 76.8666H102.645V75.1587H98.9993V69.8303H96.915V76.8666ZM90.0358 76.8666H95.7653V75.1587H92.1201V69.8303H90.0358V76.8666ZM80.6236 76.8666H82.8108L83.3529 75.6124H86.2504L86.7925 76.8666H89.0263L85.8204 69.7769H83.8109L80.6049 76.8666H80.6236ZM83.9604 74.0913L84.811 72.0898L85.6522 74.0913H83.9604ZM72.3611 76.9111H74.1744L75.6792 72.8637L77.1934 76.9111H79.0066L81.5209 69.8214H79.3618L78.0533 73.8955L76.6045 69.8036H74.8099L73.3612 73.8955L72.0527 69.8214H69.8468L72.3611 76.9111ZM60.5281 76.8666H66.6316V75.2032H62.5938V74.0913H66.2016V72.5523H62.5938V71.4849H66.5755V69.8303H60.5281V76.8666ZM52.275 76.8666H54.3593V74.1891H57.0325V76.8666H59.1168V69.8303H57.0325V72.4634H54.3593V69.8303H52.275V76.8666ZM46.5641 76.8666H48.6484V71.5382H50.901V69.8303H44.3022V71.5382H46.5548V76.8666H46.5641ZM34.6844 76.8666H36.7687V74.3492H40.3298V72.7302H36.7687V71.5294H40.7037V69.8214H34.6844V76.8577V76.8666ZM27.4594 76.8666H29.5437V74.3492H33.0955V72.7302H29.5437V71.5294H33.4787V69.8214H27.4594V76.8577V76.8666ZM18.0566 73.3618C18.0566 75.3811 19.7764 77.0001 22.0944 77.0001C24.4124 77.0001 26.1602 75.3633 26.1602 73.344V73.3262C26.1602 71.307 24.4404 69.688 22.1224 69.688C19.8044 69.688 18.0566 71.3248 18.0566 73.344V73.3618ZM24.0291 73.3618C24.0291 74.3759 23.2627 75.2388 22.1131 75.2388C20.9634 75.2388 20.1876 74.3581 20.1876 73.3351V73.3173C20.1876 72.3033 20.9541 71.4404 22.085 71.4404C23.216 71.4404 24.0198 72.3211 24.0198 73.344V73.3618H24.0291ZM104.318 72.668H105.729L106 69.7947H104.598L104.327 72.668H104.318ZM14.402 69.7947H13L13.2711 72.668H14.6824L14.4114 69.7947H14.402ZM102.084 72.668H103.486L103.757 69.7947H102.355L102.084 72.668ZM16.9163 72.668H15.5049L15.2339 69.7947H16.6452L16.9163 72.668Z" fill="#231F20"/>
<path d="M50.0503 58.1861L51.9197 52.8844L53.761 58.1861H50.0503ZM42.9842 63.5767H47.8071L48.7044 61.0771H55.0882L56.0136 63.5767H60.7617L54.6863 47.6182H49.5737L42.9749 63.5767H42.9842ZM94.5501 62.5804C94.5501 62.6605 94.4941 62.7139 94.3912 62.7139H94.1856V62.447H94.3912C94.4941 62.447 94.5595 62.4915 94.5595 62.5804M94.7651 62.5715C94.7651 62.3847 94.6249 62.2691 94.3912 62.2691H93.9706V63.1675H94.1763V62.874H94.3445L94.5501 63.1675H94.7932L94.5595 62.8473C94.681 62.8028 94.7651 62.7139 94.7651 62.5626M95.1296 62.7406C95.1296 63.1586 94.7932 63.4967 94.3352 63.4967C93.8772 63.4967 93.55 63.1586 93.55 62.7406C93.55 62.3225 93.8865 61.9844 94.3445 61.9844C94.8025 61.9844 95.1296 62.3225 95.1296 62.7406ZM95.2325 62.7406C95.2325 62.278 94.8399 61.8955 94.3445 61.8955C93.8491 61.8955 93.4472 62.278 93.4472 62.7494C93.4472 63.2209 93.8398 63.5945 94.3352 63.5945C94.8305 63.5945 95.2325 63.2031 95.2325 62.7406ZM66.9492 55.4996L73.2302 63.5678H77.1559V47.6093H72.6227V56.2913L66.9305 47.6093H62.5843V63.5678H66.9492V55.4996ZM25.3469 41C25.3843 41.1423 33.8057 63.5767 33.8057 63.5767H38.8343L46.5827 44.9051H94.681L95.0455 41H42.8907L36.4602 56.4781L30.6746 41H25.3563H25.3469ZM93.6155 52.1282H89.5777C89.1851 51.1853 88.7458 50.447 86.4839 50.447C84.923 50.447 84.25 51.0608 84.25 51.6746C84.25 52.3506 84.8108 52.911 86.5306 53.2758L90.1946 54.2098C92.5873 54.8236 93.7557 56.6294 93.7557 58.5419C93.7557 59.6093 93.5126 60.8903 92.4565 61.94C91.662 62.7228 90.4656 63.7635 86.4839 63.7635C81.0161 63.7635 79.2121 60.4722 79.2121 58.4796H83.4743C83.8949 59.9296 84.9417 60.4811 87.0167 60.4811C88.4561 60.4811 89.6898 59.9918 89.6898 58.9511C89.6898 57.9103 88.7925 57.5812 87.6429 57.2787L84.7454 56.5404C83.3528 56.1401 82.1844 55.811 81.3619 55.1527C79.2028 53.4181 79.3617 50.278 81.7077 48.6412C83.0069 47.7428 84.3342 47.2713 86.4465 47.2713C88.9234 47.2713 90.3441 47.9474 91.4564 48.6768C92.4471 49.3262 93.6248 50.8918 93.6248 52.1282" fill="#231F20"/>
</g>
<defs>
<clipPath id="clip0_16275_5161">
<rect width="93" height="36" fill="white" transform="translate(13 41)"/>
</clipPath>
</defs>
</svg>
